<svg xmlns="http://www.w3.org/2000/svg" xmlns:xlink="http://www.w3.org/1999/xlink" viewBox="0 0 4374.43994 4374.67671">
  <defs>
    <style>
      .cls-1 {
        isolation: isolate;
      }

      .cls-2 {
        fill: url(#linear-gradient);
      }

      .cls-3 {
        fill: url(#linear-gradient-2);
      }

      .cls-4 {
        fill: url(#linear-gradient-3);
      }

      .cls-5 {
        stroke-width: 0.76054px;
        fill: url(#linear-gradient-4);
        stroke: url(#linear-gradient-5);
      }

      .cls-6 {
        fill: url(#linear-gradient-6);
      }

      .cls-7 {
        fill: url(#linear-gradient-7);
      }

      .cls-8 {
        fill: url(#linear-gradient-8);
      }

      .cls-9 {
        fill: url(#linear-gradient-9);
      }
    </style>
    <linearGradient id="linear-gradient" x1="-1072.19297" y1="-3223.02401" x2="-768.79185" y2="-3223.02401" gradientTransform="matrix(0, -1, -1, 0, -2229.44058, 1266.33286)" gradientUnits="userSpaceOnUse">
      <stop offset="0" stop-color="#ffbe00"/>
      <stop offset="0.49622" stop-color="#ffbe00"/>
      <stop offset="0.50531" stop-color="#c69300"/>
      <stop offset="1" stop-color="#c69300"/>
    </linearGradient>
    <linearGradient id="linear-gradient-2" x1="-5731.8641" y1="-2641.98369" x2="-5428.46322" y2="-2641.98369" gradientTransform="matrix(-1, 0, 0, 1, -3392.87997, 6022.67822)" xlink:href="#linear-gradient"/>
    <linearGradient id="linear-gradient-3" x1="-3582.14064" y1="-4016.01647" x2="-3396.66961" y2="-4016.01647" gradientTransform="matrix(-0.70711, -0.70711, -0.70711, 0.70711, -3588.18202, 3027.36991)" xlink:href="#linear-gradient"/>
    <linearGradient id="linear-gradient-4" x1="1895.79614" y1="3823.80092" x2="2199.97241" y2="3823.80092" gradientTransform="matrix(1, 0, 0, -1, 139.16699, 4817.17264)" xlink:href="#linear-gradient"/>
    <linearGradient id="linear-gradient-5" x1="1895.7961" y1="3823.3477" x2="2199.97244" y2="3823.3477" gradientTransform="matrix(1, 0, 0, -1, 139.16699, 4817.17264)" gradientUnits="userSpaceOnUse">
      <stop offset="0" stop-color="#ffbe00"/>
      <stop offset="1" stop-color="#c69300"/>
    </linearGradient>
    <linearGradient id="linear-gradient-6" x1="1811.74483" y1="-195.53102" x2="1997.21578" y2="-195.53102" gradientTransform="matrix(0.70711, -0.70711, -0.70711, -0.70711, 233.89666, 2926.83189)" xlink:href="#linear-gradient"/>
    <linearGradient id="linear-gradient-7" x1="-135.49064" y1="5198.47197" x2="49.9804" y2="5198.47197" gradientTransform="matrix(0.70711, 0.70711, 0.70711, -0.70711, -990.14039, 5424.53527)" xlink:href="#linear-gradient"/>
    <linearGradient id="linear-gradient-8" x1="-2763.43724" y1="4405.48541" x2="-2460.03636" y2="4405.48541" gradientTransform="matrix(0, 1, 1, 0, -1024.68377, 4798.33319)" xlink:href="#linear-gradient"/>
    <linearGradient id="linear-gradient-9" x1="-5529.61802" y1="1377.99364" x2="-5344.14698" y2="1377.99364" gradientTransform="matrix(-0.70711, 0.70711, 0.70711, 0.70711, -2163.46181, 5525.06609)" xlink:href="#linear-gradient"/>
  </defs>
  <title>Black</title>
  <g id="Black">
    <g id="layer8">
      <path id="path5025" d="M2187.36231,1622.20454c-312.04089,0-565,252.95911-565,565s252.95911,565,565,565h0c312.04077,0,565-252.95923,565-565h0C2752.36231,1875.16365,2499.40308,1622.20454,2187.36231,1622.20454Zm.70313,148.62891c229.19824,0,415,185.80188,415,415s-185.80176,415-415,415h0c-229.19812,0-415-185.80176-415-415h0C1773.06543,1956.63533,1958.86731,1770.83345,2188.06543,1770.83345Z"/>
    </g>
    <g id="layer10">
      <path id="path4357-3" d="M2708.89722,1763.7419l495.91357.036-131.521,165.274c71.189,151.14075,74.43677,307.08081,46.708,471.84351l722.41113.01,146.21533,210.25684H2707.6377c203.64673-255.56787,195.00659-605.58679,1.25952-847.41724Z"/>
    </g>
    <g id="layer23">
      <path id="path4388-4" d="M1652.13916,1764.21077l-686.74268-.44763-323.4704,471.1001,601.26654-2.10181c6.34607,64.41162,9.7262,111.89282,30.93945,161.03662l-741.51221.1499-148.943,217.18555,1269.77124-.01c-110.17871-132.40063-176.76733-341.42627-140.178-537.28259l-459.77063,7.071,74.24268-121.62231,415.93677-1.51477c35.51233-97.46545,72.262-144.29736,108.46045-193.567Z"/>
    </g>
    <g id="layer12">
      <g id="layer5-4">
        <g id="text4287-4-59" class="cls-1">
          <g class="cls-1">
            <path d="M14.30318,3156.68813,175.21236,2923.4518h59.7334l171.48438,233.23633H343.26607l-48.873-70.63867H119.19381l-46.01367,70.63867Zm120.89648-95.77637H277.24459L233.517,2996.319q-20.0083-29.43164-29.72363-48.36621a208.24019,208.24019,0,0,1-22.5791,44.54785Z"/>
          </g>
        </g>
        <g id="text4287-4-3-2" class="cls-1">
          <g class="cls-1">
            <path d="M2420.40474,3156.66762l160.91016-233.23633h59.73242l171.48438,233.23633h-63.16406l-48.873-70.63867H2525.29537l-46.01367,70.63867Zm120.89648-95.77637h142.04492l-43.72851-64.59277q-20.00684-29.43164-29.72266-48.36621a208.23489,208.23489,0,0,1-22.57812,44.54785Z"/>
          </g>
        </g>
        <g id="text4287-4-5-0" class="cls-1">
          <g class="cls-1">
            <path d="M790.89107,3156.734V2923.4977H976.66451q56.0127,0,85.16992,6.28516,29.15332,6.28565,46.58594,22.19336,17.43164,15.91113,17.43555,35.16113,0,24.81885-28.86719,41.8418-28.86914,17.02588-89.17187,21.6377,22.00488,5.88721,33.43945,11.61328a234.88368,234.88368,0,0,1,46.01563,31.02441l72.88086,63.47949h-69.73828l-55.44531-48.52441q-24.2959-21.00147-40.01367-32.1377-15.7207-11.13428-28.15039-15.5918a124.85225,124.85225,0,0,0-25.29492-6.2041q-9.43066-1.11182-30.86719-1.11426H846.33638V3156.734Zm55.44531-130.2998H965.518q38.00684,0,59.44727-4.376,21.43652-4.374,32.582-14,11.14746-9.624,11.14648-20.9209,0-16.54541-21.57812-27.20606-21.583-10.65674-68.16406-10.65918H846.33638Z"/>
          </g>
        </g>
        <g id="text4287-4-5-6-3" class="cls-1">
          <g class="cls-1">
            <path d="M1525.49459,3156.63149V2923.39516h83.45508l99.17383,165.14258q13.71973,23.07129,20.00781,34.52441,7.13965-12.72656,22.293-37.38769l100.31641-162.2793h74.5957v233.23633h-53.44531V2961.41957l-121.75391,195.21191h-50.01562L1578.9399,2958.07875v198.55273Z"/>
          </g>
        </g>
        <g id="text4287-4-3-7-8" class="cls-1">
          <g class="cls-1">
            <path d="M3230.00435,3156.41762V2923.18129h144.332q48.873,0,74.5957,3.3418,36.01172,4.61572,61.44726,16.70508,33.15234,15.59326,49.58789,39.85352,16.43262,24.26367,16.43359,55.44531,0,26.57226-11.14649,47.09277a106.3632,106.3632,0,0,1-28.58008,33.9668,144.98051,144.98051,0,0,1-38.15625,21.16016q-20.72461,7.71826-50.01562,11.69336-29.2998,3.97851-67.30664,3.97754Zm55.44531-27.52344h89.457q41.4375,0,65.02149-4.2959,23.57813-4.29492,37.584-12.0918a80.42482,80.42482,0,0,0,30.72461-29.51172q10.998-18.5332,11.002-44.94531,0-36.59033-21.57812-56.24023-21.583-19.64795-52.44531-26.33106-22.292-4.77246-71.73633-4.77246h-88.0293Z"/>
          </g>
        </g>
        <g id="text4287-4-3-0-1" class="cls-1">
          <g class="cls-1">
            <path d="M3970.80123,3156.91762l160.91016-233.23633h59.73242l171.48438,233.23633h-63.16406l-48.873-70.63867H4075.69185l-46.01367,70.63867Zm120.89649-95.77637h142.04492l-43.72852-64.59277q-20.00684-29.43164-29.72266-48.36621a208.23494,208.23494,0,0,1-22.57812,44.54785Z"/>
          </g>
        </g>
      </g>
    </g>
    <g id="layer22">
      <g id="layer13">
        <path id="path4142-1-0" class="cls-2" d="M1643.005,2338.52583l344.16187-151.817-343.93933-151.58411L0,2186.7104Z"/>
      </g>
      <g id="layer20">
        <path id="path4142-1-0-8-2-6" class="cls-3" d="M2338.98413,2731.6711l-151.8169-344.95874-151.584,344.73633,151.58569,1643.228Z"/>
      </g>
      <g id="layer21">
        <path id="path4142-3-8-8-4-7-9-1" class="cls-4" d="M1727.90833,2514.89571l259.36194-128.144L1859.06873,2646.031l-408.351,277.29956Z"/>
      </g>
      <g id="layer16">
        <path id="path4142-1-0-8" class="cls-5" d="M2035.35083,1643.04012l151.81689,343.66834,151.584-343.44568L2187.166.035Z"/>
      </g>
      <g id="layer14">
        <path id="path4142-3-8-8-4" class="cls-6" d="M1727.78479,1858.526l259.36194,128.14416-128.20154-259.2793-408.351-277.29956Z"/>
      </g>
      <g id="layer17">
        <path id="path4142-3-8-8-4-7" class="cls-7" d="M2646.5459,1858.53194l-259.36182,128.144,128.20142-259.2793,408.35107-277.29956Z"/>
      </g>
      <g id="layer18">
        <path id="path4142-1-0-8-2" class="cls-8" d="M2731.43457,2034.896l-344.27124,151.81689,344.04858,151.584,1643.228-151.58569Z"/>
      </g>
      <g id="layer19">
        <path id="path4142-3-8-8-4-7-9" class="cls-9" d="M2646.42725,2514.89448l-259.36182-128.144,128.20142,259.2793,408.35107,277.29956Z"/>
      </g>
    </g>
  </g>
</svg>
