<svg id="Grey" xmlns="http://www.w3.org/2000/svg" xmlns:xlink="http://www.w3.org/1999/xlink" viewBox="0 0 4374.43994 4374.67627">
  <defs>
    <style>
      .cls-1 {
        fill: #5b5858;
      }

      .cls-2 {
        isolation: isolate;
      }

      .cls-3 {
        fill: url(#linear-gradient);
      }

      .cls-4 {
        fill: url(#linear-gradient-2);
      }

      .cls-5 {
        fill: url(#linear-gradient-3);
      }

      .cls-6 {
        stroke-width: 0.76054px;
        fill: url(#linear-gradient-4);
        stroke: url(#linear-gradient-5);
      }

      .cls-7 {
        fill: url(#linear-gradient-6);
      }

      .cls-8 {
        fill: url(#linear-gradient-7);
      }

      .cls-9 {
        fill: url(#linear-gradient-8);
      }

      .cls-10 {
        fill: url(#linear-gradient-9);
      }
    </style>
    <linearGradient id="linear-gradient" x1="4161.71606" y1="2010.88507" x2="4465.11719" y2="2010.88507" gradientTransform="matrix(0, -1, -1, 0, 3004.46851, 6500.24194)" gradientUnits="userSpaceOnUse">
      <stop offset="0" stop-color="#ffbe00"/>
      <stop offset="0.49622" stop-color="#ffbe00"/>
      <stop offset="0.50531" stop-color="#c69300"/>
      <stop offset="1" stop-color="#c69300"/>
    </linearGradient>
    <linearGradient id="linear-gradient-2" x1="5040.41626" y1="-2641.98364" x2="5343.81714" y2="-2641.98364" gradientTransform="matrix(-1, 0, 0, 1, 7379.40039, 6022.67822)" xlink:href="#linear-gradient"/>
    <linearGradient id="linear-gradient-3" x1="5504.93217" y1="-252.02758" x2="5690.40321" y2="-252.02758" gradientTransform="matrix(-0.70711, -0.70711, -0.70711, 0.70711, 5498.8907, 6791.35863)" xlink:href="#linear-gradient"/>
    <linearGradient id="linear-gradient-4" x1="1895.79614" y1="3519.33868" x2="2199.97241" y2="3519.33868" gradientTransform="matrix(1, 0, 0, -1, 139.16699, 4512.71045)" xlink:href="#linear-gradient"/>
    <linearGradient id="linear-gradient-5" x1="1895.7961" y1="3518.88547" x2="2199.97244" y2="3518.88547" gradientTransform="matrix(1, 0, 0, -1, 139.16699, 4512.71045)" gradientUnits="userSpaceOnUse">
      <stop offset="0" stop-color="#ffbe00"/>
      <stop offset="1" stop-color="#c69300"/>
    </linearGradient>
    <linearGradient id="linear-gradient-6" x1="3281.66502" y1="3353.17052" x2="3467.13598" y2="3353.17052" gradientTransform="matrix(0.70711, -0.70711, -0.70711, -0.70711, 1703.81702, 6475.53334)" xlink:href="#linear-gradient"/>
    <linearGradient id="linear-gradient-7" x1="1549.7169" y1="1130.02089" x2="1735.18794" y2="1130.02089" gradientTransform="matrix(0.70711, 0.70711, 0.70711, -0.70711, 695.06725, 1356.08436)" xlink:href="#linear-gradient"/>
    <linearGradient id="linear-gradient-8" x1="2774.93408" y1="-1132.88586" x2="3078.33496" y2="-1132.88586" gradientTransform="matrix(0, 1, 1, 0, 4513.6875, -740.03809)" xlink:href="#linear-gradient"/>
    <linearGradient id="linear-gradient-9" x1="3772.74215" y1="-2475.17009" x2="3958.21318" y2="-2475.17009" gradientTransform="matrix(-0.70711, 0.70711, 0.70711, 0.70711, 7138.89819, 1671.90245)" xlink:href="#linear-gradient"/>
  </defs>
  <title>Grey</title>
  <g id="layer8">
    <path id="path5025" class="cls-1" d="M2187.36231,1622.20459c-312.04089,0-565,252.95911-565,565s252.95911,565,565,565h0c312.04077,0,565-252.95923,565-565h0C2752.36231,1875.1637,2499.40308,1622.20459,2187.36231,1622.20459Zm.70313,148.62891c229.19824,0,415,185.80188,415,415s-185.80176,415-415,415h0c-229.19812,0-415-185.80176-415-415h0C1773.06543,1956.63538,1958.86731,1770.8335,2188.06543,1770.8335Z"/>
  </g>
  <g id="layer10">
    <path id="path4357-3" class="cls-1" d="M2708.89722,1763.74194l495.91357.036-131.521,165.274c71.189,151.14075,74.43677,307.08081,46.708,471.84351l722.41113.01,146.21533,210.25684H2707.6377c203.64673-255.56787,195.00659-605.58679,1.25952-847.41724Z"/>
  </g>
  <g id="layer23">
    <path id="path4388-4" class="cls-1" d="M1652.13916,1764.21082l-686.74268-.44763-323.4704,471.1001,601.26654-2.10181c6.34607,64.41162,9.7262,111.89282,30.93945,161.03662l-741.51221.1499-148.943,217.18555,1269.77124-.01c-110.17871-132.40063-176.76733-341.42627-140.178-537.28259l-459.77063,7.071,74.24268-121.62231,415.93677-1.51477c35.51233-97.46545,72.262-144.29736,108.46045-193.567Z"/>
  </g>
  <g id="layer12">
    <g id="layer5-4">
      <g id="text4287-4-59" class="cls-2">
        <g class="cls-2">
          <path class="cls-1" d="M14.30371,3156.68848,175.2124,2923.45215h59.7334l171.48389,233.23633H343.2666l-48.873-70.63867H119.19434l-46.01465,70.63867Zm120.896-95.77637H277.24512l-43.728-64.59277q-20.009-29.43164-29.72412-48.36621a208.23756,208.23756,0,0,1-22.57861,44.54785Z"/>
        </g>
      </g>
      <g id="text4287-4-3-2" class="cls-2">
        <g class="cls-2">
          <path class="cls-1" d="M2420.40527,3156.668l160.90918-233.23633h59.7334l171.4834,233.23633h-63.16309l-48.873-70.63867H2525.2959l-46.01465,70.63867Zm120.89551-95.77637h142.0459l-43.72852-64.59277q-20.0083-29.43164-29.72363-48.36621a208.23489,208.23489,0,0,1-22.57812,44.54785Z"/>
        </g>
      </g>
      <g id="text4287-4-5-0" class="cls-2">
        <g class="cls-2">
          <path class="cls-1" d="M790.89063,3156.73438V2923.498H976.665q56.0127,0,85.16992,6.28516,29.15185,6.28564,46.58594,22.19336,17.43018,15.91113,17.43457,35.16113,0,24.81885-28.86621,41.8418-28.87061,17.02588-89.17188,21.6377,22.00488,5.88721,33.43945,11.61328a234.90624,234.90624,0,0,1,46.01465,31.02441l72.88086,63.47949H1090.415L1034.96875,3108.21q-24.2959-21.00147-40.0127-32.13769-15.7207-11.13428-28.15137-15.5918a124.84328,124.84328,0,0,0-25.29395-6.2041q-9.43213-1.11182-30.86719-1.11426H846.33691v103.57227Zm55.44629-130.29981H965.51855q38.00684,0,59.44727-4.376,21.43506-4.374,32.582-14,11.146-9.624,11.14648-20.9209,0-16.54541-21.57812-27.20605-21.583-10.65674-68.165-10.65918H846.33691Z"/>
        </g>
      </g>
      <g id="text4287-4-5-6-3" class="cls-2">
        <g class="cls-2">
          <path class="cls-1" d="M1525.49414,3156.63184V2923.39551h83.45508l99.1748,165.14258q13.71973,23.07129,20.00684,34.52441,7.14111-12.72656,22.293-37.38769l100.31738-162.2793h74.5957v233.23633H1871.8916V2961.41992L1750.1377,3156.63184h-50.01562L1578.94043,2958.0791v198.55273Z"/>
        </g>
      </g>
      <g id="text4287-4-3-7-8" class="cls-2">
        <g class="cls-2">
          <path class="cls-1" d="M3230.00391,3156.418V2923.18164h144.332q48.873,0,74.5957,3.3418,36.01172,4.61572,61.44824,16.70508,33.15088,15.59326,49.58691,39.85351,16.43262,24.26367,16.43457,55.44531,0,26.57227-11.14648,47.09277a106.35354,106.35354,0,0,1-28.58106,33.9668,144.95939,144.95939,0,0,1-38.15527,21.16016q-20.72461,7.71826-50.01562,11.69336-29.2998,3.97851-67.30762,3.97754Zm55.44629-27.52344h89.457q41.4375,0,65.02148-4.2959,23.57813-4.29492,37.583-12.0918a80.41107,80.41107,0,0,0,30.72461-29.51172q10.99951-18.5332,11.00293-44.94531,0-36.59033-21.57812-56.24024-21.583-19.64795-52.44531-26.33105-22.292-4.77246-71.7373-4.77246H3285.4502Z"/>
        </g>
      </g>
      <g id="text4287-4-3-0-1" class="cls-2">
        <g class="cls-2">
          <path class="cls-1" d="M3970.80176,3156.918l160.90918-233.23633h59.7334l171.4834,233.23633h-63.16309l-48.873-70.63867H4075.69238l-46.01465,70.63867Zm120.89551-95.77637h142.0459l-43.72852-64.59277q-20.0083-29.43164-29.72363-48.36621a208.23494,208.23494,0,0,1-22.57812,44.54785Z"/>
        </g>
      </g>
    </g>
  </g>
  <g id="layer22">
    <g id="layer13">
      <path id="path4142-1-0" class="cls-3" d="M1643.005,2338.52588l344.16187-151.817-343.93933-151.58411L0,2186.71045Z"/>
    </g>
    <g id="layer20">
      <path id="path4142-1-0-8-2-6" class="cls-4" d="M2338.98413,2731.67114l-151.8169-344.95874-151.584,344.73633,151.58569,1643.228Z"/>
    </g>
    <g id="layer21">
      <path id="path4142-3-8-8-4-7-9-1" class="cls-5" d="M1727.90833,2514.89575l259.36194-128.144L1859.06873,2646.031l-408.351,277.29956Z"/>
    </g>
    <g id="layer16">
      <path id="path4142-1-0-8" class="cls-6" d="M2035.35083,1643.04016l151.81689,343.66834,151.584-343.44568L2187.166.035Z"/>
    </g>
    <g id="layer14">
      <path id="path4142-3-8-8-4" class="cls-7" d="M1727.78479,1858.526l259.36194,128.14417-128.20154-259.2793-408.351-277.29956Z"/>
    </g>
    <g id="layer17">
      <path id="path4142-3-8-8-4-7" class="cls-8" d="M2646.5459,1858.532l-259.36182,128.144,128.20142-259.2793,408.35107-277.29956Z"/>
    </g>
    <g id="layer18">
      <path id="path4142-1-0-8-2" class="cls-9" d="M2731.43457,2034.896l-344.27124,151.8169,344.04858,151.584,1643.228-151.58569Z"/>
    </g>
    <g id="layer19">
      <path id="path4142-3-8-8-4-7-9" class="cls-10" d="M2646.42725,2514.89453l-259.36182-128.144,128.20142,259.2793,408.35107,277.29956Z"/>
    </g>
  </g>
</svg>
