<?xml version="1.0" encoding="utf-8"?>
<!-- Generator: Adobe Illustrator 20.1.0, SVG Export Plug-In . SVG Version: 6.00 Build 0)  -->
<svg version="1.1" id="Layer_1" xmlns="http://www.w3.org/2000/svg" xmlns:xlink="http://www.w3.org/1999/xlink" x="0px" y="0px"
	 viewBox="0 0 4374.4 4374.7" style="enable-background:new 0 0 4374.4 4374.7;" xml:space="preserve">
<style type="text/css">
	.st0{fill:#FFFFFF;}
	.st1{fill:url(#path4142-1-0_1_);}
	.st2{fill:url(#path4142-1-0-8-2-6_1_);}
	.st3{fill:url(#path4142-3-8-8-4-7-9-1_1_);}
	.st4{fill:url(#path4142-1-0-8_1_);stroke:url(#path4142-1-0-8_2_);stroke-width:0.7605;}
	.st5{fill:url(#path4142-3-8-8-4_1_);}
	.st6{fill:url(#path4142-3-8-8-4-7_1_);}
	.st7{fill:url(#path4142-1-0-8-2_1_);}
	.st8{fill:url(#path4142-3-8-8-4-7-9_1_);}
</style>
<title>Black</title>
<g id="Black">
	<g id="layer8">
		<path id="path5025" class="st0" d="M2187.4,1622.2c-312,0-565,253-565,565s253,565,565,565l0,0c312,0,565-253,565-565l0,0
			C2752.4,1875.2,2499.4,1622.2,2187.4,1622.2z M2188.1,1770.8c229.2,0,415,185.8,415,415s-185.8,415-415,415l0,0
			c-229.2,0-415-185.8-415-415l0,0C1773.1,1956.6,1958.9,1770.8,2188.1,1770.8z"/>
	</g>
	<g id="layer10">
		<path id="path4357-3" class="st0" d="M2708.9,1763.7l495.9,0l-131.5,165.3c71.2,151.1,74.4,307.1,46.7,471.8l722.4,0l146.2,210.3
			h-1281C2911.3,2355.6,2902.6,2005.6,2708.9,1763.7L2708.9,1763.7z"/>
	</g>
	<g id="layer23">
		<path id="path4388-4" class="st0" d="M1652.1,1764.2l-686.7-0.4l-323.5,471.1l601.3-2.1c6.3,64.4,9.7,111.9,30.9,161l-741.5,0.1
			l-148.9,217.2l1269.8,0c-110.2-132.4-176.8-341.4-140.2-537.3l-459.8,7.1l74.2-121.6l415.9-1.5
			C1579.2,1860.3,1615.9,1813.5,1652.1,1764.2L1652.1,1764.2z"/>
	</g>
	<g id="layer12">
		<g id="layer5-4">
			<g id="text4287-4-59">
				<g>
					<path class="st0" d="M14.3,3156.7l160.9-233.2h59.7l171.5,233.2h-63.2l-48.9-70.6H119.2l-46,70.6H14.3z M135.2,3060.9h142
						l-43.7-64.6c-13.3-19.6-23.2-35.7-29.7-48.4c-5.7,15.7-13.3,30.7-22.6,44.5L135.2,3060.9z"/>
				</g>
			</g>
			<g id="text4287-4-3-2">
				<g>
					<path class="st0" d="M2420.4,3156.7l160.9-233.2h59.7l171.5,233.2h-63.2l-48.9-70.6h-175.2l-46,70.6H2420.4z M2541.3,3060.9
						h142l-43.7-64.6c-13.3-19.6-23.2-35.7-29.7-48.4c-5.7,15.7-13.3,30.7-22.6,44.5L2541.3,3060.9z"/>
				</g>
			</g>
			<g id="text4287-4-5-0">
				<g>
					<path class="st0" d="M790.9,3156.7v-233.2h185.8c37.3,0,65.7,2.1,85.2,6.3c19.4,4.2,35,11.6,46.6,22.2
						c11.6,10.6,17.4,22.3,17.4,35.2c0,16.5-9.6,30.5-28.9,41.8c-19.2,11.4-49,18.6-89.2,21.6c14.7,3.9,25.8,7.8,33.4,11.6
						c16.5,8.5,32,18.9,46,31l72.9,63.5h-69.7l-55.4-48.5c-16.2-14-29.5-24.7-40-32.1c-10.5-7.4-19.9-12.6-28.2-15.6
						c-8.2-2.9-16.7-5-25.3-6.2c-6.3-0.7-16.6-1.1-30.9-1.1h-64.3v103.6H790.9z M846.3,3026.4h119.2c25.3,0,45.2-1.5,59.4-4.4
						c14.3-2.9,25.2-7.6,32.6-14c7.4-6.4,11.1-13.4,11.1-20.9c0-11-7.2-20.1-21.6-27.2c-14.4-7.1-37.1-10.7-68.2-10.7H846.3V3026.4z
						"/>
				</g>
			</g>
			<g id="text4287-4-5-6-3">
				<g>
					<path class="st0" d="M1525.5,3156.6v-233.2h83.5l99.2,165.1c9.1,15.4,15.8,26.9,20,34.5c4.8-8.5,12.2-20.9,22.3-37.4
						l100.3-162.3h74.6v233.2h-53.4v-195.2l-121.8,195.2h-50l-121.2-198.6v198.6H1525.5z"/>
				</g>
			</g>
			<g id="text4287-4-3-7-8">
				<g>
					<path class="st0" d="M3230,3156.4v-233.2h144.3c32.6,0,57.4,1.1,74.6,3.3c24,3.1,44.5,8.6,61.4,16.7
						c22.1,10.4,38.6,23.7,49.6,39.9c11,16.2,16.4,34.7,16.4,55.4c0,17.7-3.7,33.4-11.1,47.1c-7,13.2-16.8,24.8-28.6,34
						c-11.6,8.9-24.4,16.1-38.2,21.2c-13.8,5.1-30.5,9-50,11.7c-19.5,2.7-42,4-67.3,4H3230z M3285.4,3128.9h89.5
						c27.6,0,49.3-1.4,65-4.3c15.7-2.9,28.2-6.9,37.6-12.1c12.7-6.9,23.3-17.1,30.7-29.5c7.3-12.4,11-27.3,11-44.9
						c0-24.4-7.2-43.1-21.6-56.2c-14.4-13.1-31.9-21.9-52.4-26.3c-14.9-3.2-38.8-4.8-71.7-4.8h-88V3128.9z"/>
				</g>
			</g>
			<g id="text4287-4-3-0-1">
				<g>
					<path class="st0" d="M3970.8,3156.9l160.9-233.2h59.7l171.5,233.2h-63.2l-48.9-70.6h-175.2l-46,70.6H3970.8z M4091.7,3061.1
						h142l-43.7-64.6c-13.3-19.6-23.2-35.7-29.7-48.4c-5.7,15.7-13.3,30.7-22.6,44.5L4091.7,3061.1z"/>
				</g>
			</g>
		</g>
	</g>
	<g id="layer22">
		<g id="layer13">
			
				<linearGradient id="path4142-1-0_1_" gradientUnits="userSpaceOnUse" x1="2599.8071" y1="3925.0242" x2="2903.208" y2="3925.0242" gradientTransform="matrix(0 -1 1 0 -2931.4407 4938.333)">
				<stop  offset="0" style="stop-color:#FFBE00"/>
				<stop  offset="0.4962" style="stop-color:#FFBE00"/>
				<stop  offset="0.5053" style="stop-color:#C69300"/>
				<stop  offset="1" style="stop-color:#C69300"/>
			</linearGradient>
			<path id="path4142-1-0" class="st1" d="M1643,2338.5l344.2-151.8l-343.9-151.6L0,2186.7L1643,2338.5z"/>
		</g>
		<g id="layer20">
			
				<linearGradient id="path4142-1-0-8-2-6_1_" gradientUnits="userSpaceOnUse" x1="-1969.864" y1="7015.9834" x2="-1666.4631" y2="7015.9834" gradientTransform="matrix(-1 0 0 -1 369.1201 10396.6777)">
				<stop  offset="0" style="stop-color:#FFBE00"/>
				<stop  offset="0.4962" style="stop-color:#FFBE00"/>
				<stop  offset="0.5053" style="stop-color:#C69300"/>
				<stop  offset="1" style="stop-color:#C69300"/>
			</linearGradient>
			<path id="path4142-1-0-8-2-6" class="st2" d="M2339,2731.7l-151.8-345l-151.6,344.7l151.6,1643.2L2339,2731.7z"/>
		</g>
		<g id="layer21">
			
				<linearGradient id="path4142-3-8-8-4-7-9-1_1_" gradientUnits="userSpaceOnUse" x1="895.3599" y1="6535.3589" x2="1080.8301" y2="6535.3589" gradientTransform="matrix(-0.7071 -0.7071 0.7071 -0.7071 -2203.5732 7974.9087)">
				<stop  offset="0" style="stop-color:#FFBE00"/>
				<stop  offset="0.4962" style="stop-color:#FFBE00"/>
				<stop  offset="0.5053" style="stop-color:#C69300"/>
				<stop  offset="1" style="stop-color:#C69300"/>
			</linearGradient>
			<path id="path4142-3-8-8-4-7-9-1" class="st3" d="M1727.9,2514.9l259.4-128.1L1859.1,2646l-408.4,277.3L1727.9,2514.9z"/>
		</g>
		<g id="layer16">
			
				<linearGradient id="path4142-1-0-8_1_" gradientUnits="userSpaceOnUse" x1="1895.7961" y1="-3031.801" x2="2199.9724" y2="-3031.801" gradientTransform="matrix(1 0 0 1 139.167 4025.1729)">
				<stop  offset="0" style="stop-color:#FFBE00"/>
				<stop  offset="0.4962" style="stop-color:#FFBE00"/>
				<stop  offset="0.5053" style="stop-color:#C69300"/>
				<stop  offset="1" style="stop-color:#C69300"/>
			</linearGradient>
			
				<linearGradient id="path4142-1-0-8_2_" gradientUnits="userSpaceOnUse" x1="1895.7961" y1="-3031.3479" x2="2199.9724" y2="-3031.3479" gradientTransform="matrix(1 0 0 1 139.167 4025.1729)">
				<stop  offset="0" style="stop-color:#FFBE00"/>
				<stop  offset="1" style="stop-color:#C69300"/>
			</linearGradient>
			<path id="path4142-1-0-8" class="st4" d="M2035.4,1643l151.8,343.7l151.6-343.4L2187.2,0L2035.4,1643z"/>
		</g>
		<g id="layer14">
			
				<linearGradient id="path4142-3-8-8-4_1_" gradientUnits="userSpaceOnUse" x1="3629.0972" y1="182.0459" x2="3814.5671" y2="182.0459" gradientTransform="matrix(0.7071 -0.7071 0.7071 0.7071 -1041.6423 4221.4404)">
				<stop  offset="0" style="stop-color:#FFBE00"/>
				<stop  offset="0.4962" style="stop-color:#FFBE00"/>
				<stop  offset="0.5053" style="stop-color:#C69300"/>
				<stop  offset="1" style="stop-color:#C69300"/>
			</linearGradient>
			<path id="path4142-3-8-8-4" class="st5" d="M1727.8,1858.5l259.4,128.1l-128.2-259.3l-408.4-277.3L1727.8,1858.5z"/>
		</g>
		<g id="layer17">
			
				<linearGradient id="path4142-3-8-8-4-7_1_" gradientUnits="userSpaceOnUse" x1="-850.9742" y1="-2551.8088" x2="-665.504" y2="-2551.8088" gradientTransform="matrix(0.7071 0.7071 -0.7071 0.7071 1387.2509 4058.9961)">
				<stop  offset="0" style="stop-color:#FFBE00"/>
				<stop  offset="0.4962" style="stop-color:#FFBE00"/>
				<stop  offset="0.5053" style="stop-color:#C69300"/>
				<stop  offset="1" style="stop-color:#C69300"/>
			</linearGradient>
			<path id="path4142-3-8-8-4-7" class="st6" d="M2646.5,1858.5l-259.4,128.1l128.2-259.3l408.4-277.3L2646.5,1858.5z"/>
		</g>
		<g id="layer18">
			
				<linearGradient id="path4142-1-0-8-2_1_" gradientUnits="userSpaceOnUse" x1="-2673.437" y1="58.5146" x2="-2370.0361" y2="58.5146" gradientTransform="matrix(0 1 -1 0 3439.3164 4708.333)">
				<stop  offset="0" style="stop-color:#FFBE00"/>
				<stop  offset="0.4962" style="stop-color:#FFBE00"/>
				<stop  offset="0.5053" style="stop-color:#C69300"/>
				<stop  offset="1" style="stop-color:#C69300"/>
			</linearGradient>
			<path id="path4142-1-0-8-2" class="st7" d="M2731.4,2034.9l-344.3,151.8l344,151.6l1643.2-151.6L2731.4,2034.9z"/>
		</g>
		<g id="layer19">
			
				<linearGradient id="path4142-3-8-8-4-7-9_1_" gradientUnits="userSpaceOnUse" x1="-3584.9534" y1="3801.4968" x2="-3399.4832" y2="3801.4968" gradientTransform="matrix(-0.7071 0.7071 -0.7071 -0.7071 2874.0771 7812.457)">
				<stop  offset="0" style="stop-color:#FFBE00"/>
				<stop  offset="0.4962" style="stop-color:#FFBE00"/>
				<stop  offset="0.5053" style="stop-color:#C69300"/>
				<stop  offset="1" style="stop-color:#C69300"/>
			</linearGradient>
			<path id="path4142-3-8-8-4-7-9" class="st8" d="M2646.4,2514.9l-259.4-128.1l128.2,259.3l408.4,277.3L2646.4,2514.9z"/>
		</g>
	</g>
</g>
</svg>
