<?xml version="1.0" encoding="utf-8"?>
<!-- Generator: Adobe Illustrator 20.0.0, SVG Export Plug-In . SVG Version: 6.00 Build 0)  -->
<svg version="1.1" xmlns="http://www.w3.org/2000/svg" xmlns:xlink="http://www.w3.org/1999/xlink" x="0px" y="0px"
	 viewBox="0 0 4374.4 4374.7" style="enable-background:new 0 0 4374.4 4374.7;" xml:space="preserve">
<style type="text/css">
	.st0{fill:#5B5858;}
	.st1{fill:url(#path4142-1-0_2_);}
	.st2{fill:url(#path4142-1-0-8-2-6_2_);}
	.st3{fill:url(#path4142-3-8-8-4-7-9-1_2_);}
	.st4{fill:url(#path4142-1-0-8_2_);stroke:url(#path4142-1-0-8_3_);stroke-width:0.7605;}
	.st5{fill:url(#path4142-3-8-8-4_2_);}
	.st6{fill:url(#path4142-3-8-8-4-7_2_);}
	.st7{fill:url(#path4142-1-0-8-2_2_);}
	.st8{fill:url(#path4142-3-8-8-4-7-9_2_);}
	.st9{display:none;}
	.st10{display:inline;fill:#AA0000;}
	.st11{display:inline;fill:none;stroke:#000000;}
	.st12{font-family:'ArialMT';}
	.st13{font-size:325.8302px;}
	.st14{letter-spacing:74;}
	.st15{fill:url(#path4142-1-0_3_);}
	.st16{fill:url(#path4142-1-0-8-2-6_3_);}
	.st17{fill:url(#path4142-3-8-8-4-7-9-1_3_);}
	.st18{fill:url(#path4142-1-0-8_4_);stroke:url(#path4142-1-0-8_5_);stroke-width:0.7605;}
	.st19{fill:url(#path4142-3-8-8-4_3_);}
	.st20{fill:url(#path4142-3-8-8-4-7_3_);}
	.st21{fill:url(#path4142-1-0-8-2_3_);}
	.st22{fill:url(#path4142-3-8-8-4-7-9_3_);}
</style>
<g id="Grey" inkscape:export-filename="D:\GIT\sol-armada\assets\images\Sol-Logo-2.0.png" inkscape:export-xdpi="4.1146226" inkscape:export-ydpi="4.1146226" inkscape:version="0.91 r13725" sodipodi:docname="sol-logo.svg" xmlns:cc="http://creativecommons.org/ns#" xmlns:dc="http://purl.org/dc/elements/1.1/" xmlns:inkscape="http://www.inkscape.org/namespaces/inkscape" xmlns:osb="http://www.openswatchbook.org/uri/2009/osb" xmlns:rdf="http://www.w3.org/1999/02/22-rdf-syntax-ns#" xmlns:sodipodi="http://sodipodi.sourceforge.net/DTD/sodipodi-0.dtd" xmlns:svg="http://www.w3.org/2000/svg">
	<defs>
		
		
			<inkscape:perspective  id="perspective5770" inkscape:persp3d-origin="2179.8217 : 1448.0716 : 1" inkscape:vp_x="-141.42135 : 3630.5152 : 1" inkscape:vp_y="0 : 1000 : 0" inkscape:vp_z="4907.651 : 4691.1753 : 1" sodipodi:type="inkscape:persp3d">
			</inkscape:perspective>
	</defs>
	
		<sodipodi:namedview  bordercolor="#666666" borderopacity="1.0" fit-margin-bottom="0" fit-margin-left="0" fit-margin-right="0" fit-margin-top="0" id="base" inkscape:current-layer="layer14" inkscape:cx="-401.53286" inkscape:cy="1942.3417" inkscape:document-units="px" inkscape:guide-bbox="true" inkscape:pageopacity="0.0" inkscape:pageshadow="2" inkscape:window-height="1057" inkscape:window-maximized="1" inkscape:window-width="1858" inkscape:window-x="54" inkscape:window-y="-8" inkscape:zoom="0.125" pagecolor="#ffffff" showgrid="false" showguides="false" units="px">
		
			<sodipodi:guide  id="guide4136" inkscape:color="rgb(0,0,255)" inkscape:label="" orientation="1,0" position="2187.167,2187.9658">
			</sodipodi:guide>
		
			<sodipodi:guide  id="guide4138" inkscape:color="rgb(0,0,255)" inkscape:label="" orientation="0,1" position="2187.167,2187.9658">
			</sodipodi:guide>
		
			<sodipodi:guide  id="guide6733" inkscape:color="rgb(0,0,255)" inkscape:label="" orientation="-0.70710678,0.70710678" position="2187.167,2187.9658">
			</sodipodi:guide>
		
			<sodipodi:guide  id="guide6735" inkscape:color="rgb(0,0,255)" inkscape:label="" orientation="1,0" position="2187.167,2187.9658">
			</sodipodi:guide>
		
			<sodipodi:guide  id="guide6737" inkscape:color="rgb(0,0,255)" inkscape:label="" orientation="0.70710678,0.70710678" position="2187.167,2187.9658">
			</sodipodi:guide>
	</sodipodi:namedview>
	<g id="layer8" transform="translate(139.16699,138.71045)" inkscape:groupmode="layer" inkscape:label="Letter-O">
		<path id="path5025" inkscape:connector-curvature="0" class="st0" d="M-3337.9,1635.7c-312,0-565,253-565,565s253,565,565,565l0,0
			c312,0,565-253,565-565l0,0C-2772.9,1888.7-3025.9,1635.7-3337.9,1635.7z M-3337.2,1784.4c229.2,0,415,185.8,415,415
			s-185.8,415-415,415l0,0c-229.2,0-415-185.8-415-415l0,0C-3752.2,1970.2-3566.4,1784.4-3337.2,1784.4z"/>
	</g>
	<g id="layer10" transform="translate(139.16699,138.71045)" inkscape:groupmode="layer" inkscape:label="Letter-L">
		<path id="path4357-3" inkscape:connector-curvature="0" sodipodi:nodetypes="ccccccccc" class="st0" d="M-2816.4,1777.3l495.9,0
			l-131.5,165.3c71.2,151.1,74.4,307.1,46.7,471.8l722.4,0l146.2,210.3h-1281C-2614,2369.1-2622.7,2019.1-2816.4,1777.3
			L-2816.4,1777.3z"/>
	</g>
	<g id="layer23" transform="translate(139.16699,138.71045)" inkscape:groupmode="layer" inkscape:label="Letter-S">
		<path id="path4388-4" inkscape:connector-curvature="0" sodipodi:nodetypes="cccccccccccccc" class="st0" d="M-3873.2,1777.7
			l-686.7-0.4l-323.5,471.1l601.3-2.1c6.3,64.4,9.7,111.9,30.9,161l-741.5,0.1l-148.9,217.2l1269.8,0
			c-110.2-132.4-176.8-341.4-140.2-537.3l-459.8,7.1l74.2-121.6l415.9-1.5C-3946.1,1873.8-3909.4,1827-3873.2,1777.7L-3873.2,1777.7
			z"/>
	</g>
	<g id="layer12" transform="translate(139.16699,138.71045)" inkscape:groupmode="layer" inkscape:label="ARMADA">
		<g id="layer5-4" transform="translate(-338.33,-319.431)" inkscape:label="Armada">
			<g id="flowRoot4291-0">
			</g>
			<text transform="matrix(1.7964 0 0 1 -5171.8159 3489.6401)" class="st0 st12 st13 st14">A</text>
			<text transform="matrix(1.7964 0 0 1 -2765.7146 3489.6196)" class="st0 st12 st13 st14">A</text>
			<text transform="matrix(1.7964 0 0 1 -4442.1011 3489.686)" class="st0 st12 st13 st14">R</text>
			<text transform="matrix(1.7964 0 0 1 -3704.9255 3489.5835)" class="st0 st12 st13 st14">M</text>
			<text transform="matrix(1.7964 0 0 1 -2002.1305 3489.3696)" class="st0 st12 st13 st14">D</text>
			<text transform="matrix(1.7964 0 0 1 -1215.318 3489.8696)" class="st0 st12 st13 st14">A</text>
		</g>
	</g>
	<g id="layer22" transform="translate(139.16699,138.71045)" inkscape:groupmode="layer" inkscape:label="Points">
		<g id="layer13" inkscape:groupmode="layer" inkscape:label="W">
			
				<linearGradient id="path4142-1-0_2_" gradientUnits="userSpaceOnUse" x1="-1363.5911" y1="2024.4058" x2="-1060.1899" y2="2024.4058" gradientTransform="matrix(0 -1 -1 0 -2507.3181 988.4554)">
				<stop  offset="0" style="stop-color:#FFBE00"/>
				<stop  offset="0.4962" style="stop-color:#FFBE00"/>
				<stop  offset="0.5053" style="stop-color:#C69300"/>
				<stop  offset="1" style="stop-color:#C69300"/>
			</linearGradient>
			<path id="path4142-1-0" inkscape:connector-curvature="0" sodipodi:nodetypes="ccccc" class="st1" d="M-3882.3,2352l344.2-151.8
				l-343.9-151.6l-1643.2,151.6L-3882.3,2352z"/>
		</g>
		<g id="layer20" inkscape:groupmode="layer" inkscape:label="S">
			
				<linearGradient id="path4142-1-0-8-2-6_2_" gradientUnits="userSpaceOnUse" x1="-484.8909" y1="-2628.4629" x2="-181.49" y2="-2628.4629" gradientTransform="matrix(-1 0 0 1 -3671.2139 6022.6782)">
				<stop  offset="0" style="stop-color:#FFBE00"/>
				<stop  offset="0.4962" style="stop-color:#FFBE00"/>
				<stop  offset="0.5053" style="stop-color:#C69300"/>
				<stop  offset="1" style="stop-color:#C69300"/>
			</linearGradient>
			<path id="path4142-1-0-8-2-6" inkscape:connector-curvature="0" sodipodi:nodetypes="ccccc" class="st2" d="M-3186.3,2745.2
				l-151.8-345l-151.6,344.7l151.6,1643.2L-3186.3,2745.2z"/>
		</g>
		<g id="layer21" inkscape:groupmode="layer" inkscape:label="SW">
			
				<linearGradient id="path4142-3-8-8-4-7-9-1_2_" gradientUnits="userSpaceOnUse" x1="-20.375" y1="-238.5069" x2="165.096" y2="-238.5069" gradientTransform="matrix(-0.7071 -0.7071 -0.7071 0.7071 -3923.8381 2888.3367)">
				<stop  offset="0" style="stop-color:#FFBE00"/>
				<stop  offset="0.4962" style="stop-color:#FFBE00"/>
				<stop  offset="0.5053" style="stop-color:#C69300"/>
				<stop  offset="1" style="stop-color:#C69300"/>
			</linearGradient>
			<path id="path4142-3-8-8-4-7-9-1" inkscape:connector-curvature="0" sodipodi:nodetypes="ccccc" class="st3" d="M-3797.4,2528.4
				l259.4-128.1l-128.2,259.3l-408.4,277.3L-3797.4,2528.4z"/>
		</g>
		<g id="layer16" inkscape:groupmode="layer" inkscape:label="N">
			
				<linearGradient id="path4142-1-0-8_2_" gradientUnits="userSpaceOnUse" x1="-3629.511" y1="3532.8594" x2="-3325.3347" y2="3532.8594" gradientTransform="matrix(1 0 0 -1 139.167 4539.752)">
				<stop  offset="0" style="stop-color:#FFBE00"/>
				<stop  offset="0.4962" style="stop-color:#FFBE00"/>
				<stop  offset="0.5053" style="stop-color:#C69300"/>
				<stop  offset="1" style="stop-color:#C69300"/>
			</linearGradient>
			
				<linearGradient id="path4142-1-0-8_3_" gradientUnits="userSpaceOnUse" x1="-3629.511" y1="3532.406" x2="-3325.3347" y2="3532.406" gradientTransform="matrix(1 0 0 -1 139.167 4539.752)">
				<stop  offset="0" style="stop-color:#FFBE00"/>
				<stop  offset="1" style="stop-color:#C69300"/>
			</linearGradient>
			<path id="path4142-1-0-8" inkscape:connector-curvature="0" sodipodi:nodetypes="ccccc" class="st4" d="M-3490,1656.6
				l151.8,343.7l151.6-343.4L-3338.1,13.6L-3490,1656.6z"/>
		</g>
		<g id="layer14" inkscape:groupmode="layer" inkscape:label="NW">
			
				<linearGradient id="path4142-3-8-8-4_2_" gradientUnits="userSpaceOnUse" x1="-2243.6421" y1="3366.6912" x2="-2058.1711" y2="3366.6912" gradientTransform="matrix(0.7071 -0.7071 -0.7071 -0.7071 95.0525 2591.6323)">
				<stop  offset="0" style="stop-color:#FFBE00"/>
				<stop  offset="0.4962" style="stop-color:#FFBE00"/>
				<stop  offset="0.5053" style="stop-color:#C69300"/>
				<stop  offset="1" style="stop-color:#C69300"/>
			</linearGradient>
			<path id="path4142-3-8-8-4" inkscape:connector-curvature="0" sodipodi:nodetypes="ccccc" class="st5" d="M-3797.5,1872
				l259.4,128.1l-128.2-259.3l-408.4-277.3L-3797.5,1872z"/>
		</g>
		<g id="layer17" inkscape:groupmode="layer" inkscape:label="NE">
			
				<linearGradient id="path4142-3-8-8-4-7_2_" gradientUnits="userSpaceOnUse" x1="-3975.5903" y1="1143.5415" x2="-3790.1191" y2="1143.5415" gradientTransform="matrix(0.7071 0.7071 0.7071 -0.7071 -932.8184 5286.1475)">
				<stop  offset="0" style="stop-color:#FFBE00"/>
				<stop  offset="0.4962" style="stop-color:#FFBE00"/>
				<stop  offset="0.5053" style="stop-color:#C69300"/>
				<stop  offset="1" style="stop-color:#C69300"/>
			</linearGradient>
			<path id="path4142-3-8-8-4-7" inkscape:connector-curvature="0" sodipodi:nodetypes="ccccc" class="st6" d="M-2878.8,1872.1
				l-259.4,128.1l128.2-259.3l408.4-277.3L-2878.8,1872.1z"/>
		</g>
		<g id="layer18" inkscape:groupmode="layer" inkscape:label="E">
			
				<linearGradient id="path4142-1-0-8-2_2_" gradientUnits="userSpaceOnUse" x1="-2750.373" y1="-1119.3652" x2="-2446.9722" y2="-1119.3652" gradientTransform="matrix(0 1 1 0 -1025.1403 4798.7896)">
				<stop  offset="0" style="stop-color:#FFBE00"/>
				<stop  offset="0.4962" style="stop-color:#FFBE00"/>
				<stop  offset="0.5053" style="stop-color:#C69300"/>
				<stop  offset="1" style="stop-color:#C69300"/>
			</linearGradient>
			<path id="path4142-1-0-8-2" inkscape:connector-curvature="0" sodipodi:nodetypes="ccccc" class="st7" d="M-2793.9,2048.4
				l-344.3,151.8l344,151.6l1643.2-151.6L-2793.9,2048.4z"/>
		</g>
		<g id="layer19" inkscape:groupmode="layer" inkscape:label="SE">
			
				<linearGradient id="path4142-3-8-8-4-7-9_2_" gradientUnits="userSpaceOnUse" x1="-1752.5651" y1="-2461.6494" x2="-1567.094" y2="-2461.6494" gradientTransform="matrix(-0.7071 0.7071 0.7071 0.7071 -2302.9517 5582.8447)">
				<stop  offset="0" style="stop-color:#FFBE00"/>
				<stop  offset="0.4962" style="stop-color:#FFBE00"/>
				<stop  offset="0.5053" style="stop-color:#C69300"/>
				<stop  offset="1" style="stop-color:#C69300"/>
			</linearGradient>
			<path id="path4142-3-8-8-4-7-9" inkscape:connector-curvature="0" sodipodi:nodetypes="ccccc" class="st8" d="M-2878.9,2528.4
				l-259.4-128.1l128.2,259.3l408.4,277.3L-2878.9,2528.4z"/>
		</g>
	</g>
	
		<g id="layer15" transform="translate(139.16699,138.71045)" inkscape:groupmode="layer" inkscape:label="Construction" class="st9">
		<rect id="rect6740" x="-3538.1" y="2000.2" class="st10" width="400" height="400"/>
		<path id="path6790" inkscape:connector-curvature="0" sodipodi:nodetypes="cc" class="st11" d="M-3666.3,1741
			c26.8-21,100.6-65.7,176.4-84.4"/>
		<path id="path6790-6" inkscape:connector-curvature="0" sodipodi:nodetypes="cc" class="st11" d="M-3882.1,2048.7
			c7.8-33.1,37.6-114.1,85.1-176"/>
	</g>
</g>
<g id="Black">
	<g id="layer8_1_" transform="translate(139.16699,138.71045)" inkscape:groupmode="layer" inkscape:label="Letter-O">
		<path id="path5025_1_" inkscape:connector-curvature="0" d="M2048.2,1483.5c-312,0-565,253-565,565s253,565,565,565l0,0
			c312,0,565-253,565-565l0,0C2613.2,1736.5,2360.2,1483.5,2048.2,1483.5z M2048.9,1632.1c229.2,0,415,185.8,415,415
			s-185.8,415-415,415l0,0c-229.2,0-415-185.8-415-415l0,0C1633.9,1817.9,1819.7,1632.1,2048.9,1632.1z"/>
	</g>
	<g id="layer10_1_" transform="translate(139.16699,138.71045)" inkscape:groupmode="layer" inkscape:label="Letter-L">
		<path id="path4357-3_1_" inkscape:connector-curvature="0" sodipodi:nodetypes="ccccccccc" d="M2569.7,1625l495.9,0l-131.5,165.3
			c71.2,151.1,74.4,307.1,46.7,471.8l722.4,0l146.2,210.3h-1281C2772.1,2216.9,2763.5,1866.9,2569.7,1625L2569.7,1625z"/>
	</g>
	<g id="layer23_1_" transform="translate(139.16699,138.71045)" inkscape:groupmode="layer" inkscape:label="Letter-S">
		<path id="path4388-4_1_" inkscape:connector-curvature="0" sodipodi:nodetypes="cccccccccccccc" d="M1513,1625.5l-686.7-0.4
			l-323.5,471.1l601.3-2.1c6.3,64.4,9.7,111.9,30.9,161l-741.5,0.1l-148.9,217.2l1269.8,0c-110.2-132.4-176.8-341.4-140.2-537.3
			l-459.8,7.1l74.2-121.6l415.9-1.5C1440,1721.6,1476.8,1674.8,1513,1625.5L1513,1625.5z"/>
	</g>
	<g id="layer12_1_" transform="translate(139.16699,138.71045)" inkscape:groupmode="layer" inkscape:label="ARMADA">
		<g id="layer5-4_1_" transform="translate(-338.33,-319.431)" inkscape:label="Armada">
			<g id="flowRoot4291-0_1_">
			</g>
			<text transform="matrix(1.7964 0 0 1 214.3241 3337.4089)" class="st12 st13 st14">A</text>
			<text transform="matrix(1.7964 0 0 1 2620.4255 3337.3884)" class="st12 st13 st14">A</text>
			<text transform="matrix(1.7964 0 0 1 944.0389 3337.4548)" class="st12 st13 st14">R</text>
			<text transform="matrix(1.7964 0 0 1 1681.2147 3337.3523)" class="st12 st13 st14">M</text>
			<text transform="matrix(1.7964 0 0 1 3384.0095 3337.1384)" class="st12 st13 st14">D</text>
			<text transform="matrix(1.7964 0 0 1 4170.8223 3337.6384)" class="st12 st13 st14">A</text>
		</g>
	</g>
	<g id="layer22_1_" transform="translate(139.16699,138.71045)" inkscape:groupmode="layer" inkscape:label="Points">
		<g id="layer13_1_" inkscape:groupmode="layer" inkscape:label="W">
			
				<linearGradient id="path4142-1-0_3_" gradientUnits="userSpaceOnUse" x1="-1211.36" y1="-3361.7344" x2="-907.9589" y2="-3361.7344" gradientTransform="matrix(0 -1 -1 0 -2507.3181 988.4554)">
				<stop  offset="0" style="stop-color:#FFBE00"/>
				<stop  offset="0.4962" style="stop-color:#FFBE00"/>
				<stop  offset="0.5053" style="stop-color:#C69300"/>
				<stop  offset="1" style="stop-color:#C69300"/>
			</linearGradient>
			<path id="path4142-1-0_1_" inkscape:connector-curvature="0" sodipodi:nodetypes="ccccc" class="st15" d="M1503.8,2199.8
				L1848,2048l-343.9-151.6L-139.2,2048L1503.8,2199.8z"/>
		</g>
		<g id="layer20_1_" inkscape:groupmode="layer" inkscape:label="S">
			
				<linearGradient id="path4142-1-0-8-2-6_3_" gradientUnits="userSpaceOnUse" x1="-5871.0313" y1="-2780.6941" x2="-5567.6304" y2="-2780.6941" gradientTransform="matrix(-1 0 0 1 -3671.2139 6022.6782)">
				<stop  offset="0" style="stop-color:#FFBE00"/>
				<stop  offset="0.4962" style="stop-color:#FFBE00"/>
				<stop  offset="0.5053" style="stop-color:#C69300"/>
				<stop  offset="1" style="stop-color:#C69300"/>
			</linearGradient>
			<path id="path4142-1-0-8-2-6_1_" inkscape:connector-curvature="0" sodipodi:nodetypes="ccccc" class="st16" d="M2199.8,2593
				L2048,2248l-151.6,344.7L2048,4236L2199.8,2593z"/>
		</g>
		<g id="layer21_1_" inkscape:groupmode="layer" inkscape:label="SW">
			
				<linearGradient id="path4142-3-8-8-4-7-9-1_3_" gradientUnits="userSpaceOnUse" x1="-3721.3076" y1="-4154.7271" x2="-3535.8367" y2="-4154.7271" gradientTransform="matrix(-0.7071 -0.7071 -0.7071 0.7071 -3923.8381 2888.3367)">
				<stop  offset="0" style="stop-color:#FFBE00"/>
				<stop  offset="0.4962" style="stop-color:#FFBE00"/>
				<stop  offset="0.5053" style="stop-color:#C69300"/>
				<stop  offset="1" style="stop-color:#C69300"/>
			</linearGradient>
			<path id="path4142-3-8-8-4-7-9-1_1_" inkscape:connector-curvature="0" sodipodi:nodetypes="ccccc" class="st17" d="
				M1588.7,2376.2l259.4-128.1l-128.2,259.3l-408.4,277.3L1588.7,2376.2z"/>
		</g>
		<g id="layer16_1_" inkscape:groupmode="layer" inkscape:label="N">
			
				<linearGradient id="path4142-1-0-8_4_" gradientUnits="userSpaceOnUse" x1="1756.6292" y1="3685.0906" x2="2060.8054" y2="3685.0906" gradientTransform="matrix(1 0 0 -1 139.167 4539.752)">
				<stop  offset="0" style="stop-color:#FFBE00"/>
				<stop  offset="0.4962" style="stop-color:#FFBE00"/>
				<stop  offset="0.5053" style="stop-color:#C69300"/>
				<stop  offset="1" style="stop-color:#C69300"/>
			</linearGradient>
			
				<linearGradient id="path4142-1-0-8_5_" gradientUnits="userSpaceOnUse" x1="1756.6292" y1="3684.6372" x2="2060.8054" y2="3684.6372" gradientTransform="matrix(1 0 0 -1 139.167 4539.752)">
				<stop  offset="0" style="stop-color:#FFBE00"/>
				<stop  offset="1" style="stop-color:#C69300"/>
			</linearGradient>
			<path id="path4142-1-0-8_1_" inkscape:connector-curvature="0" sodipodi:nodetypes="ccccc" class="st18" d="M1896.2,1504.3
				L2048,1848l151.6-343.4L2048-138.7L1896.2,1504.3z"/>
		</g>
		<g id="layer14_1_" inkscape:groupmode="layer" inkscape:label="NW">
			
				<linearGradient id="path4142-3-8-8-4_3_" gradientUnits="userSpaceOnUse" x1="1672.5779" y1="-334.2415" x2="1858.0488" y2="-334.2415" gradientTransform="matrix(0.7071 -0.7071 -0.7071 -0.7071 95.0525 2591.6323)">
				<stop  offset="0" style="stop-color:#FFBE00"/>
				<stop  offset="0.4962" style="stop-color:#FFBE00"/>
				<stop  offset="0.5053" style="stop-color:#C69300"/>
				<stop  offset="1" style="stop-color:#C69300"/>
			</linearGradient>
			<path id="path4142-3-8-8-4_1_" inkscape:connector-curvature="0" sodipodi:nodetypes="ccccc" class="st19" d="M1588.6,1719.8
				L1848,1848l-128.2-259.3l-408.4-277.3L1588.6,1719.8z"/>
		</g>
		<g id="layer17_1_" inkscape:groupmode="layer" inkscape:label="NE">
			
				<linearGradient id="path4142-3-8-8-4-7_3_" gradientUnits="userSpaceOnUse" x1="-274.6576" y1="5059.7617" x2="-89.1866" y2="5059.7617" gradientTransform="matrix(0.7071 0.7071 0.7071 -0.7071 -932.8184 5286.1475)">
				<stop  offset="0" style="stop-color:#FFBE00"/>
				<stop  offset="0.4962" style="stop-color:#FFBE00"/>
				<stop  offset="0.5053" style="stop-color:#C69300"/>
				<stop  offset="1" style="stop-color:#C69300"/>
			</linearGradient>
			<path id="path4142-3-8-8-4-7_1_" inkscape:connector-curvature="0" sodipodi:nodetypes="ccccc" class="st20" d="M2507.4,1719.8
				L2248,1848l128.2-259.3l408.4-277.3L2507.4,1719.8z"/>
		</g>
		<g id="layer18_1_" inkscape:groupmode="layer" inkscape:label="E">
			
				<linearGradient id="path4142-1-0-8-2_3_" gradientUnits="userSpaceOnUse" x1="-2902.6042" y1="4266.7749" x2="-2599.2034" y2="4266.7749" gradientTransform="matrix(0 1 1 0 -1025.1403 4798.7896)">
				<stop  offset="0" style="stop-color:#FFBE00"/>
				<stop  offset="0.4962" style="stop-color:#FFBE00"/>
				<stop  offset="0.5053" style="stop-color:#C69300"/>
				<stop  offset="1" style="stop-color:#C69300"/>
			</linearGradient>
			<path id="path4142-1-0-8-2_1_" inkscape:connector-curvature="0" sodipodi:nodetypes="ccccc" class="st21" d="M2592.3,1896.2
				L2248,2048l344,151.6L4235.3,2048L2592.3,1896.2z"/>
		</g>
		<g id="layer19_1_" inkscape:groupmode="layer" inkscape:label="SE">
			
				<linearGradient id="path4142-3-8-8-4-7-9_3_" gradientUnits="userSpaceOnUse" x1="-5668.7852" y1="1239.2832" x2="-5483.314" y2="1239.2832" gradientTransform="matrix(-0.7071 0.7071 0.7071 0.7071 -2302.9517 5582.8447)">
				<stop  offset="0" style="stop-color:#FFBE00"/>
				<stop  offset="0.4962" style="stop-color:#FFBE00"/>
				<stop  offset="0.5053" style="stop-color:#C69300"/>
				<stop  offset="1" style="stop-color:#C69300"/>
			</linearGradient>
			<path id="path4142-3-8-8-4-7-9_1_" inkscape:connector-curvature="0" sodipodi:nodetypes="ccccc" class="st22" d="M2507.3,2376.2
				L2247.9,2248l128.2,259.3l408.4,277.3L2507.3,2376.2z"/>
		</g>
	</g>
</g>
</svg>
