<?xml version="1.0" encoding="utf-8"?>
<!-- Generator: Adobe Illustrator 19.2.1, SVG Export Plug-In . SVG Version: 6.00 Build 0)  -->
<svg version="1.1" xmlns="http://www.w3.org/2000/svg" xmlns:xlink="http://www.w3.org/1999/xlink" x="0px" y="0px"
	 viewBox="0 0 500 162" style="enable-background:new 0 0 500 162;" xml:space="preserve">
<style type="text/css">
	.st0{fill:#FFFFFF;}
	.st1{display:none;}
	.st2{display:inline;}
	.st3{font-family:'ArialMT';}
	.st4{font-size:9.9908px;}
	.st5{letter-spacing:1.7;}
	.st6{display:inline;fill:#AA0000;}
	.st7{display:inline;fill:none;stroke:#000000;}
	.st8{font-family:'Pirulen';}
	.st9{font-size:35.0907px;}
</style>
<g id="svg2" inkscape:export-filename="D:\GIT\sol-armada\assets\images\Sol-Logo-2.0.png" inkscape:export-xdpi="4.1146226" inkscape:export-ydpi="4.1146226" inkscape:version="0.91 r13725" sodipodi:docname="sol-logo.svg" xmlns:cc="http://creativecommons.org/ns#" xmlns:dc="http://purl.org/dc/elements/1.1/" xmlns:inkscape="http://www.inkscape.org/namespaces/inkscape" xmlns:osb="http://www.openswatchbook.org/uri/2009/osb" xmlns:rdf="http://www.w3.org/1999/02/22-rdf-syntax-ns#" xmlns:sodipodi="http://sodipodi.sourceforge.net/DTD/sodipodi-0.dtd" xmlns:svg="http://www.w3.org/2000/svg">
	<defs>
		
		
			<inkscape:perspective  id="perspective5770" inkscape:persp3d-origin="2179.8217 : 1448.0716 : 1" inkscape:vp_x="-141.42135 : 3630.5152 : 1" inkscape:vp_y="0 : 1000 : 0" inkscape:vp_z="4907.651 : 4691.1753 : 1" sodipodi:type="inkscape:persp3d">
			</inkscape:perspective>
	</defs>
	
		<sodipodi:namedview  bordercolor="#666666" borderopacity="1.0" fit-margin-bottom="0" fit-margin-left="0" fit-margin-right="0" fit-margin-top="0" id="base" inkscape:current-layer="layer14" inkscape:cx="-401.53286" inkscape:cy="1942.3417" inkscape:document-units="px" inkscape:guide-bbox="true" inkscape:pageopacity="0.0" inkscape:pageshadow="2" inkscape:window-height="1057" inkscape:window-maximized="1" inkscape:window-width="1858" inkscape:window-x="54" inkscape:window-y="-8" inkscape:zoom="0.125" pagecolor="#ffffff" showgrid="false" showguides="false" units="px">
		
			<sodipodi:guide  id="guide4136" inkscape:color="rgb(0,0,255)" inkscape:label="" orientation="1,0" position="2187.167,2187.9658">
			</sodipodi:guide>
		
			<sodipodi:guide  id="guide4138" inkscape:color="rgb(0,0,255)" inkscape:label="" orientation="0,1" position="2187.167,2187.9658">
			</sodipodi:guide>
		
			<sodipodi:guide  id="guide6733" inkscape:color="rgb(0,0,255)" inkscape:label="" orientation="-0.70710678,0.70710678" position="2187.167,2187.9658">
			</sodipodi:guide>
		
			<sodipodi:guide  id="guide6735" inkscape:color="rgb(0,0,255)" inkscape:label="" orientation="1,0" position="2187.167,2187.9658">
			</sodipodi:guide>
		
			<sodipodi:guide  id="guide6737" inkscape:color="rgb(0,0,255)" inkscape:label="" orientation="0.70710678,0.70710678" position="2187.167,2187.9658">
			</sodipodi:guide>
	</sodipodi:namedview>
	<g id="layer8" transform="translate(139.16699,138.71045)" inkscape:groupmode="layer" inkscape:label="Letter-O">
		<path id="path5025" inkscape:connector-curvature="0" class="st0" d="M-64.5-75c-9.6,0-17.3,7.8-17.3,17.3s7.8,17.3,17.3,17.3l0,0
			c9.6,0,17.3-7.8,17.3-17.3l0,0C-47.2-67.3-54.9-75-64.5-75z M-64.5-70.5c7,0,12.7,5.7,12.7,12.7S-57.4-45-64.5-45l0,0
			c-7,0-12.7-5.7-12.7-12.7l0,0C-77.2-64.8-71.5-70.5-64.5-70.5z"/>
	</g>
	<g id="layer10" transform="translate(139.16699,138.71045)" inkscape:groupmode="layer" inkscape:label="Letter-L" class="st1">
		<path id="path4357-3" inkscape:connector-curvature="0" sodipodi:nodetypes="ccccccccc" class="st2" d="M-48.5-70.7h15.2l-4,5.1
			c2.2,4.6,2.3,9.4,1.4,14.5h22.2l4.5,6.4h-39.3C-42.3-52.5-42.6-63.3-48.5-70.7L-48.5-70.7z"/>
	</g>
	<g id="layer23" transform="translate(139.16699,138.71045)" inkscape:groupmode="layer" inkscape:label="Letter-S" class="st1">
		<path id="path4388-4" inkscape:connector-curvature="0" sodipodi:nodetypes="cccccccccccccc" class="st2" d="M-80.9-70.7H-102
			l-9.9,14.4l18.4-0.1c0.2,2,0.3,3.4,0.9,4.9h-22.7l-4.6,6.7H-81c-3.4-4.1-5.4-10.5-4.3-16.5l-14,0.3l2.3-3.7h12.8
			C-83.1-67.7-82-69.2-80.9-70.7L-80.9-70.7z"/>
	</g>
	<g id="layer12" transform="translate(139.16699,138.71045)" inkscape:groupmode="layer" inkscape:label="ARMADA" class="st1">
		<g id="layer5-4" transform="translate(-338.33,-319.431)" inkscape:label="Armada" class="st2">
			<g id="flowRoot4291-0">
			</g>
			<text transform="matrix(1.7964 0 0 1 207.2284 291.4637)" class="st3 st4 st5">A</text>
			<text transform="matrix(1.7964 0 0 1 281.0063 291.4637)" class="st3 st4 st5">A</text>
			<text transform="matrix(1.7964 0 0 1 229.6034 291.4657)" class="st3 st4 st5">R</text>
			<text transform="matrix(1.7964 0 0 1 252.2074 291.4613)" class="st3 st4 st5">M</text>
			<text transform="matrix(1.7964 0 0 1 304.4193 291.4559)" class="st3 st4 st5">D</text>
			<text transform="matrix(1.7964 0 0 1 328.5448 291.4706)" class="st3 st4 st5">A</text>
		</g>
	</g>
	<g id="layer22" transform="translate(139.16699,138.71045)" inkscape:groupmode="layer" inkscape:label="Points">
		
			<image style="overflow:visible;opacity:0.75;enable-background:new    ;" width="139" height="139" xlink:href="5FD34DC9.png"  transform="matrix(0.9928 0 0 0.9928 -133.887 -126.8723)">
		</image>
		<g>
			<g>
				<g id="layer13_9_" inkscape:groupmode="layer" inkscape:label="W">
					<path id="path4142-1-0_12_" inkscape:connector-curvature="0" sodipodi:nodetypes="ccccc" class="st0" d="M-81.2-53.1l10.6-4.7
						l-10.5-4.6l-50.4,4.6L-81.2-53.1z"/>
				</g>
				<g id="layer20_9_" inkscape:groupmode="layer" inkscape:label="S">
					<path id="path4142-1-0-8-2-6_12_" inkscape:connector-curvature="0" sodipodi:nodetypes="ccccc" class="st0" d="M-59.8-41
						l-4.7-10.6L-69.1-41l4.6,50.4L-59.8-41z"/>
				</g>
				<g id="layer21_9_" inkscape:groupmode="layer" inkscape:label="SW">
					<path id="path4142-3-8-8-4-7-9-1_12_" inkscape:connector-curvature="0" sodipodi:nodetypes="ccccc" class="st0" d="
						M-78.6-47.6l8-3.9l-3.9,8L-87-35L-78.6-47.6z"/>
				</g>
				<g id="layer16_9_" inkscape:groupmode="layer" inkscape:label="N">
					<path id="path4142-1-0-8_12_" inkscape:connector-curvature="0" sodipodi:nodetypes="ccccc" class="st0" d="M-69.2-74.4
						l4.7,10.5l4.6-10.5l-4.6-50.4L-69.2-74.4z"/>
				</g>
				<g id="layer14_9_" inkscape:groupmode="layer" inkscape:label="NW">
					<path id="path4142-3-8-8-4_12_" inkscape:connector-curvature="0" sodipodi:nodetypes="ccccc" class="st0" d="M-78.6-67.8
						l8,3.9l-3.9-8L-87-80.4L-78.6-67.8z"/>
				</g>
				<g id="layer17_9_" inkscape:groupmode="layer" inkscape:label="NE">
					<path id="path4142-3-8-8-4-7_12_" inkscape:connector-curvature="0" sodipodi:nodetypes="ccccc" class="st0" d="M-50.4-67.8
						l-8,3.9l3.9-8l12.5-8.5L-50.4-67.8z"/>
				</g>
				<g id="layer18_9_" inkscape:groupmode="layer" inkscape:label="E">
					<path id="path4142-1-0-8-2_12_" inkscape:connector-curvature="0" sodipodi:nodetypes="ccccc" class="st0" d="M-47.8-62.4
						l-10.6,4.7l10.5,4.6l50.4-4.6L-47.8-62.4z"/>
				</g>
				<g id="layer19_9_" inkscape:groupmode="layer" inkscape:label="SE">
					<path id="path4142-3-8-8-4-7-9_12_" inkscape:connector-curvature="0" sodipodi:nodetypes="ccccc" class="st0" d="M-50.4-47.6
						l-8-3.9l3.9,8L-42-35L-50.4-47.6z"/>
				</g>
			</g>
		</g>
	</g>
	
		<g id="layer15" transform="translate(139.16699,138.71045)" inkscape:groupmode="layer" inkscape:label="Construction" class="st1">
		<rect id="rect6740" x="-171.2" y="-258.3" class="st6" width="400" height="400"/>
		<path id="path6790" inkscape:connector-curvature="0" sodipodi:nodetypes="cc" class="st7" d="M-299.4-517.6
			c26.8-21,100.6-65.7,176.4-84.4"/>
		<path id="path6790-6" inkscape:connector-curvature="0" sodipodi:nodetypes="cc" class="st7" d="M-515.2-209.9
			c7.8-33.1,37.6-114.1,85.1-176"/>
	</g>
</g>
<g id="Layer_2">
	<text transform="matrix(1 0 0 1 148.8999 90.1104)" class="st0 st8 st9">SOL Armada</text>
</g>
</svg>
