<?xml version="1.0" encoding="utf-8"?>
<!-- Generator: Adobe Illustrator 19.2.1, SVG Export Plug-In . SVG Version: 6.00 Build 0)  -->
<svg version="1.1"
	 id="svg2" inkscape:export-filename="D:\GIT\sol-armada\assets\images\Sol-Logo-2.0.png" inkscape:export-xdpi="4.1146226" inkscape:export-ydpi="4.1146226" inkscape:version="0.91 r13725" sodipodi:docname="sol-logo.svg" xmlns:cc="http://creativecommons.org/ns#" xmlns:dc="http://purl.org/dc/elements/1.1/" xmlns:inkscape="http://www.inkscape.org/namespaces/inkscape" xmlns:osb="http://www.openswatchbook.org/uri/2009/osb" xmlns:rdf="http://www.w3.org/1999/02/22-rdf-syntax-ns#" xmlns:sodipodi="http://sodipodi.sourceforge.net/DTD/sodipodi-0.dtd" xmlns:svg="http://www.w3.org/2000/svg"
	 xmlns="http://www.w3.org/2000/svg" xmlns:xlink="http://www.w3.org/1999/xlink" x="0px" y="0px" viewBox="0 0 4374.4 4374.7"
	 style="enable-background:new 0 0 4374.4 4374.7;" xml:space="preserve">
<style type="text/css">
	.st0{font-family:'ArialMT';}
	.st1{font-size:325.8302px;}
	.st2{letter-spacing:74;}
	.st3{display:none;}
	.st4{display:inline;fill:#AA0000;}
	.st5{display:inline;fill:none;stroke:#000000;}
</style>
<defs>
	
	
		<inkscape:perspective  id="perspective5770" inkscape:persp3d-origin="2179.8217 : 1448.0716 : 1" inkscape:vp_x="-141.42135 : 3630.5152 : 1" inkscape:vp_y="0 : 1000 : 0" inkscape:vp_z="4907.651 : 4691.1753 : 1" sodipodi:type="inkscape:persp3d">
		</inkscape:perspective>
</defs>
<sodipodi:namedview  bordercolor="#666666" borderopacity="1.0" fit-margin-bottom="0" fit-margin-left="0" fit-margin-right="0" fit-margin-top="0" id="base" inkscape:current-layer="layer14" inkscape:cx="-401.53286" inkscape:cy="1942.3417" inkscape:document-units="px" inkscape:guide-bbox="true" inkscape:pageopacity="0.0" inkscape:pageshadow="2" inkscape:window-height="1057" inkscape:window-maximized="1" inkscape:window-width="1858" inkscape:window-x="54" inkscape:window-y="-8" inkscape:zoom="0.125" pagecolor="#ffffff" showgrid="false" showguides="false" units="px">
	
		<sodipodi:guide  id="guide4136" inkscape:color="rgb(0,0,255)" inkscape:label="" orientation="1,0" position="2187.167,2187.9658">
		</sodipodi:guide>
	
		<sodipodi:guide  id="guide4138" inkscape:color="rgb(0,0,255)" inkscape:label="" orientation="0,1" position="2187.167,2187.9658">
		</sodipodi:guide>
	
		<sodipodi:guide  id="guide6733" inkscape:color="rgb(0,0,255)" inkscape:label="" orientation="-0.70710678,0.70710678" position="2187.167,2187.9658">
		</sodipodi:guide>
	
		<sodipodi:guide  id="guide6735" inkscape:color="rgb(0,0,255)" inkscape:label="" orientation="1,0" position="2187.167,2187.9658">
		</sodipodi:guide>
	
		<sodipodi:guide  id="guide6737" inkscape:color="rgb(0,0,255)" inkscape:label="" orientation="0.70710678,0.70710678" position="2187.167,2187.9658">
		</sodipodi:guide>
</sodipodi:namedview>
<g id="layer8" transform="translate(139.16699,138.71045)" inkscape:groupmode="layer" inkscape:label="Letter-O">
	<path id="path5025" inkscape:connector-curvature="0" d="M2048.2,1483.5c-312,0-565,253-565,565s253,565,565,565l0,0
		c312,0,565-253,565-565l0,0C2613.2,1736.5,2360.2,1483.5,2048.2,1483.5z M2048.9,1632.1c229.2,0,415,185.8,415,415
		s-185.8,415-415,415l0,0c-229.2,0-415-185.8-415-415l0,0C1633.9,1817.9,1819.7,1632.1,2048.9,1632.1z"/>
</g>
<g id="layer10" transform="translate(139.16699,138.71045)" inkscape:groupmode="layer" inkscape:label="Letter-L">
	<path id="path4357-3" inkscape:connector-curvature="0" sodipodi:nodetypes="ccccccccc" d="M2569.7,1625l495.9,0l-131.5,165.3
		c71.2,151.1,74.4,307.1,46.7,471.8l722.4,0l146.2,210.3h-1281C2772.1,2216.9,2763.5,1866.9,2569.7,1625L2569.7,1625z"/>
</g>
<g id="layer23" transform="translate(139.16699,138.71045)" inkscape:groupmode="layer" inkscape:label="Letter-S">
	<path id="path4388-4" inkscape:connector-curvature="0" sodipodi:nodetypes="cccccccccccccc" d="M1513,1625.5l-686.7-0.4
		l-323.5,471.1l601.3-2.1c6.3,64.4,9.7,111.9,30.9,161l-741.5,0.1l-148.9,217.2l1269.8,0c-110.2-132.4-176.8-341.4-140.2-537.3
		l-459.8,7.1l74.2-121.6l415.9-1.5C1440,1721.6,1476.8,1674.8,1513,1625.5L1513,1625.5z"/>
</g>
<g id="layer12" transform="translate(139.16699,138.71045)" inkscape:groupmode="layer" inkscape:label="ARMADA">
	<g id="layer5-4" transform="translate(-338.33,-319.431)" inkscape:label="Armada">
		<g id="flowRoot4291-0">
		</g>
		<text transform="matrix(1.7964 0 0 1 214.3241 3337.4089)" class="st0 st1 st2">A</text>
		<text transform="matrix(1.7964 0 0 1 2620.4258 3337.3884)" class="st0 st1 st2">A</text>
		<text transform="matrix(1.7964 0 0 1 944.039 3337.4548)" class="st0 st1 st2">R</text>
		<text transform="matrix(1.7964 0 0 1 1681.2147 3337.3523)" class="st0 st1 st2">M</text>
		<text transform="matrix(1.7964 0 0 1 3384.0098 3337.1384)" class="st0 st1 st2">D</text>
		<text transform="matrix(1.7964 0 0 1 4170.8223 3337.6384)" class="st0 st1 st2">A</text>
	</g>
</g>
<g id="layer22" transform="translate(139.16699,138.71045)" inkscape:groupmode="layer" inkscape:label="Points">
	
		<image style="overflow:visible;opacity:0.75;" width="4435" height="4436" xlink:href="81BD054E.png"  transform="matrix(1 0 0 1 -169.167 -169.0342)">
	</image>
	<g>
		<g>
			<g id="layer13_9_" inkscape:groupmode="layer" inkscape:label="W">
				<path id="path4142-1-0_12_" inkscape:connector-curvature="0" sodipodi:nodetypes="ccccc" d="M1503.8,2199.8L1848,2048
					l-343.9-151.6L-139.2,2048L1503.8,2199.8z"/>
			</g>
			<g id="layer20_9_" inkscape:groupmode="layer" inkscape:label="S">
				<path id="path4142-1-0-8-2-6_12_" inkscape:connector-curvature="0" sodipodi:nodetypes="ccccc" d="M2199.8,2593L2048,2248
					l-151.6,344.7L2048,4236L2199.8,2593z"/>
			</g>
			<g id="layer21_9_" inkscape:groupmode="layer" inkscape:label="SW">
				<path id="path4142-3-8-8-4-7-9-1_12_" inkscape:connector-curvature="0" sodipodi:nodetypes="ccccc" d="M1588.7,2376.2
					l259.4-128.1l-128.2,259.3l-408.4,277.3L1588.7,2376.2z"/>
			</g>
			<g id="layer16_9_" inkscape:groupmode="layer" inkscape:label="N">
				<path id="path4142-1-0-8_12_" inkscape:connector-curvature="0" sodipodi:nodetypes="ccccc" d="M1896.2,1504.3L2048,1848
					l151.6-343.4L2048-138.7L1896.2,1504.3z"/>
			</g>
			<g id="layer14_9_" inkscape:groupmode="layer" inkscape:label="NW">
				<path id="path4142-3-8-8-4_12_" inkscape:connector-curvature="0" sodipodi:nodetypes="ccccc" d="M1588.6,1719.8L1848,1848
					l-128.2-259.3l-408.4-277.3L1588.6,1719.8z"/>
			</g>
			<g id="layer17_9_" inkscape:groupmode="layer" inkscape:label="NE">
				<path id="path4142-3-8-8-4-7_12_" inkscape:connector-curvature="0" sodipodi:nodetypes="ccccc" d="M2507.4,1719.8L2248,1848
					l128.2-259.3l408.4-277.3L2507.4,1719.8z"/>
			</g>
			<g id="layer18_9_" inkscape:groupmode="layer" inkscape:label="E">
				<path id="path4142-1-0-8-2_12_" inkscape:connector-curvature="0" sodipodi:nodetypes="ccccc" d="M2592.3,1896.2L2248,2048
					l344,151.6L4235.3,2048L2592.3,1896.2z"/>
			</g>
			<g id="layer19_9_" inkscape:groupmode="layer" inkscape:label="SE">
				<path id="path4142-3-8-8-4-7-9_12_" inkscape:connector-curvature="0" sodipodi:nodetypes="ccccc" d="M2507.3,2376.2
					L2247.9,2248l128.2,259.3l408.4,277.3L2507.3,2376.2z"/>
			</g>
		</g>
	</g>
</g>
<g id="layer15" transform="translate(139.16699,138.71045)" inkscape:groupmode="layer" inkscape:label="Construction" class="st3">
	<rect id="rect6740" x="1848" y="1848" class="st4" width="400" height="400"/>
	<path id="path6790" inkscape:connector-curvature="0" sodipodi:nodetypes="cc" class="st5" d="M1719.8,1588.7
		c26.8-21,100.6-65.7,176.4-84.4"/>
	<path id="path6790-6" inkscape:connector-curvature="0" sodipodi:nodetypes="cc" class="st5" d="M1504,1896.4
		c7.8-33.1,37.6-114.1,85.1-176"/>
</g>
</svg>
