<?xml version="1.0" encoding="utf-8"?>
<!-- Generator: Adobe Illustrator 19.2.1, SVG Export Plug-In . SVG Version: 6.00 Build 0)  -->
<svg version="1.1"
	 id="svg2" inkscape:export-filename="D:\GIT\sol-armada\assets\images\Sol-Logo-2.0.png" inkscape:export-xdpi="4.1146226" inkscape:export-ydpi="4.1146226" inkscape:version="0.91 r13725" sodipodi:docname="sol-logo.svg" xmlns:cc="http://creativecommons.org/ns#" xmlns:dc="http://purl.org/dc/elements/1.1/" xmlns:inkscape="http://www.inkscape.org/namespaces/inkscape" xmlns:osb="http://www.openswatchbook.org/uri/2009/osb" xmlns:rdf="http://www.w3.org/1999/02/22-rdf-syntax-ns#" xmlns:sodipodi="http://sodipodi.sourceforge.net/DTD/sodipodi-0.dtd" xmlns:svg="http://www.w3.org/2000/svg"
	 xmlns="http://www.w3.org/2000/svg" xmlns:xlink="http://www.w3.org/1999/xlink" x="0px" y="0px" viewBox="0 0 4500 4500"
	 style="enable-background:new 0 0 4500 4500;" xml:space="preserve">
<style type="text/css">
	.st0{font-family:'ArialMT';}
	.st1{font-size:325.8302px;}
	.st2{letter-spacing:73.5;}
	.st3{display:none;}
	.st4{display:inline;fill:#AA0000;}
	.st5{display:inline;fill:none;stroke:#000000;}
</style>
<defs>
	
	
		<inkscape:perspective  id="perspective5770" inkscape:persp3d-origin="2179.8217 : 1448.0716 : 1" inkscape:vp_x="-141.42135 : 3630.5152 : 1" inkscape:vp_y="0 : 1000 : 0" inkscape:vp_z="4907.651 : 4691.1753 : 1" sodipodi:type="inkscape:persp3d">
		</inkscape:perspective>
</defs>
<sodipodi:namedview  bordercolor="#666666" borderopacity="1.0" fit-margin-bottom="0" fit-margin-left="0" fit-margin-right="0" fit-margin-top="0" id="base" inkscape:current-layer="layer14" inkscape:cx="-401.53286" inkscape:cy="1942.3417" inkscape:document-units="px" inkscape:guide-bbox="true" inkscape:pageopacity="0.0" inkscape:pageshadow="2" inkscape:window-height="1057" inkscape:window-maximized="1" inkscape:window-width="1858" inkscape:window-x="54" inkscape:window-y="-8" inkscape:zoom="0.125" pagecolor="#ffffff" showgrid="false" showguides="false" units="px">
	
		<sodipodi:guide  id="guide4136" inkscape:color="rgb(0,0,255)" inkscape:label="" orientation="1,0" position="2187.167,2187.9658">
		</sodipodi:guide>
	
		<sodipodi:guide  id="guide4138" inkscape:color="rgb(0,0,255)" inkscape:label="" orientation="0,1" position="2187.167,2187.9658">
		</sodipodi:guide>
	
		<sodipodi:guide  id="guide6733" inkscape:color="rgb(0,0,255)" inkscape:label="" orientation="-0.70710678,0.70710678" position="2187.167,2187.9658">
		</sodipodi:guide>
	
		<sodipodi:guide  id="guide6735" inkscape:color="rgb(0,0,255)" inkscape:label="" orientation="1,0" position="2187.167,2187.9658">
		</sodipodi:guide>
	
		<sodipodi:guide  id="guide6737" inkscape:color="rgb(0,0,255)" inkscape:label="" orientation="0.70710678,0.70710678" position="2187.167,2187.9658">
		</sodipodi:guide>
</sodipodi:namedview>
<g id="layer8" transform="translate(139.16699,138.71045)" inkscape:groupmode="layer" inkscape:label="Letter-O">
	
		<image style="overflow:visible;enable-background:new    ;" width="1191" height="1191" xlink:href="35FE01E.png"  transform="matrix(1 0 0 1 1513.2188 1515.61)">
	</image>
	<g>
		<g>
			<path id="path5025_12_" inkscape:connector-curvature="0" d="M2108.6,1546.1c-312,0-565,253-565,565s253,565,565,565l0,0
				c312,0,565-253,565-565l0,0C2673.6,1799.1,2420.6,1546.1,2108.6,1546.1z M2109.3,1694.8c229.2,0,415,185.8,415,415
				s-185.8,415-415,415l0,0c-229.2,0-415-185.8-415-415l0,0C1694.3,1880.6,1880.1,1694.8,2109.3,1694.8z"/>
		</g>
	</g>
</g>
<g id="layer10" transform="translate(139.16699,138.71045)" inkscape:groupmode="layer" inkscape:label="Letter-L">
	
		<image style="overflow:visible;enable-background:new    ;" width="1342" height="908" xlink:href="35FE022.png"  transform="matrix(1 0 0 1 2598.2188 1657.61)">
	</image>
	<g>
		<g>
			<path id="path4357-3_12_" inkscape:connector-curvature="0" sodipodi:nodetypes="ccccccccc" d="M2630.1,1687.7H3126L2994.5,1853
				c71.2,151.1,74.4,307.1,46.7,471.8h722.4l146.2,210.3h-1281C2832.5,2279.5,2823.9,1929.5,2630.1,1687.7L2630.1,1687.7z"/>
		</g>
	</g>
</g>
<g id="layer23" transform="translate(139.16699,138.71045)" inkscape:groupmode="layer" inkscape:label="Letter-S">
	
		<image style="overflow:visible;enable-background:new    ;" width="1331" height="908" xlink:href="35FE025.png"  transform="matrix(1 0 0 1 274.2188 1657.61)">
	</image>
	<g>
		<g>
			<path id="path4388-4_12_" inkscape:connector-curvature="0" sodipodi:nodetypes="cccccccccccccc" d="M1573.4,1688.1l-686.7-0.4
				l-323.5,471.1l601.3-2.1c6.3,64.4,9.7,111.9,30.9,161l-741.5,0.1L305,2535h1269.8c-110.2-132.4-176.8-341.4-140.2-537.3
				l-459.8,7.1l74.2-121.6l415.9-1.5C1500.4,1784.2,1537.2,1737.4,1573.4,1688.1L1573.4,1688.1z"/>
		</g>
	</g>
</g>
<g id="layer12" transform="translate(139.16699,138.71045)" inkscape:groupmode="layer" inkscape:label="ARMADA">
	
		<image style="overflow:visible;enable-background:new    ;" width="4542" height="447" xlink:href="35FE026.png"  transform="matrix(1 0 0 1 -94.7813 2770.6099)">
	</image>
	<g>
		<g>
			<g id="layer5-4_9_" transform="translate(-338.33,-319.431)" inkscape:label="Armada">
				<text transform="matrix(1.7964 0 0 1 274.7099 3400.0525)" class="st0 st1 st2">A</text>
				<text transform="matrix(1.7964 0 0 1 2680.8115 3400.033)" class="st0 st1 st2">A</text>
				<text transform="matrix(1.7964 0 0 1 1004.4247 3400.0984)" class="st0 st1 st2">R</text>
				<text transform="matrix(1.7964 0 0 1 1741.6005 3399.9968)" class="st0 st1 st2">M</text>
				<text transform="matrix(1.7964 0 0 1 3444.3945 3399.783)" class="st0 st1 st2">D</text>
				<text transform="matrix(1.7964 0 0 1 4231.207 3400.283)" class="st0 st1 st2">A</text>
			</g>
		</g>
	</g>
</g>
<g id="layer22" transform="translate(139.16699,138.71045)" inkscape:groupmode="layer" inkscape:label="Points">
	
		<image style="overflow:visible;enable-background:new    ;" width="4435" height="4436" xlink:href="35FE024.png"  transform="matrix(1 0 0 1 -108.7813 -106.3901)">
	</image>
	<g>
		<g>
			<g id="layer13_9_" inkscape:groupmode="layer" inkscape:label="W">
				<path id="path4142-1-0_12_" inkscape:connector-curvature="0" sodipodi:nodetypes="ccccc" d="M1564.2,2262.5l344.2-151.8
					l-343.9-151.6L-78.8,2110.6L1564.2,2262.5z"/>
			</g>
			<g id="layer20_9_" inkscape:groupmode="layer" inkscape:label="S">
				<path id="path4142-1-0-8-2-6_12_" inkscape:connector-curvature="0" sodipodi:nodetypes="ccccc" d="M2260.2,2655.6l-151.8-345
					l-151.6,344.7l151.6,1643.2L2260.2,2655.6z"/>
			</g>
			<g id="layer21_9_" inkscape:groupmode="layer" inkscape:label="SW">
				<path id="path4142-3-8-8-4-7-9-1_12_" inkscape:connector-curvature="0" sodipodi:nodetypes="ccccc" d="M1649.1,2438.8
					l259.4-128.1L1780.3,2570l-408.4,277.3L1649.1,2438.8z"/>
			</g>
			<g id="layer16_9_" inkscape:groupmode="layer" inkscape:label="N">
				<path id="path4142-1-0-8_12_" inkscape:connector-curvature="0" sodipodi:nodetypes="ccccc" d="M1956.6,1567l151.8,343.7
					l151.6-343.4L2108.4-76L1956.6,1567z"/>
			</g>
			<g id="layer14_9_" inkscape:groupmode="layer" inkscape:label="NW">
				<path id="path4142-3-8-8-4_12_" inkscape:connector-curvature="0" sodipodi:nodetypes="ccccc" d="M1649,1782.5l259.4,128.1
					l-128.2-259.3L1371.8,1374L1649,1782.5z"/>
			</g>
			<g id="layer17_9_" inkscape:groupmode="layer" inkscape:label="NE">
				<path id="path4142-3-8-8-4-7_12_" inkscape:connector-curvature="0" sodipodi:nodetypes="ccccc" d="M2567.8,1782.5l-259.4,128.1
					l128.2-259.3L2845,1374L2567.8,1782.5z"/>
			</g>
			<g id="layer18_9_" inkscape:groupmode="layer" inkscape:label="E">
				<path id="path4142-1-0-8-2_12_" inkscape:connector-curvature="0" sodipodi:nodetypes="ccccc" d="M2652.7,1958.8l-344.3,151.8
					l344,151.6l1643.2-151.6L2652.7,1958.8z"/>
			</g>
			<g id="layer19_9_" inkscape:groupmode="layer" inkscape:label="SE">
				<path id="path4142-3-8-8-4-7-9_12_" inkscape:connector-curvature="0" sodipodi:nodetypes="ccccc" d="M2567.6,2438.8
					l-259.4-128.1l128.2,259.3l408.4,277.3L2567.6,2438.8z"/>
			</g>
		</g>
	</g>
</g>
<g id="layer15" transform="translate(139.16699,138.71045)" inkscape:groupmode="layer" inkscape:label="Construction" class="st3">
	<rect id="rect6740" x="1866.4" y="1910.6" class="st4" width="400" height="400"/>
	<path id="path6790" inkscape:connector-curvature="0" sodipodi:nodetypes="cc" class="st5" d="M1738.2,1651.4
		c26.8-21,100.6-65.7,176.4-84.4"/>
	<path id="path6790-6" inkscape:connector-curvature="0" sodipodi:nodetypes="cc" class="st5" d="M1522.4,1959.1
		c7.8-33.1,37.6-114.1,85.1-176"/>
</g>
</svg>
