<svg xmlns="http://www.w3.org/2000/svg" xmlns:xlink="http://www.w3.org/1999/xlink" viewBox="0 0 1920 1080"><defs><style>.cls-1{fill:none;}.cls-2{clip-path:url(#clip-path);}.cls-3{clip-path:url(#clip-path-2);}.cls-4{clip-path:url(#clip-path-3);}.cls-5{clip-path:url(#clip-path-4);}.cls-6{fill:#231f20;opacity:0.26;}.cls-7{fill:url(#linear-gradient);}.cls-8{fill:url(#linear-gradient-2);}.cls-9{fill:url(#linear-gradient-3);}.cls-10{fill:#fff;}.cls-11{fill:url(#linear-gradient-4);}.cls-12{fill:url(#linear-gradient-5);}.cls-13{fill:url(#linear-gradient-6);}.cls-14{fill:url(#linear-gradient-7);}.cls-15{fill:url(#linear-gradient-8);}.cls-16{fill:url(#linear-gradient-9);}.cls-17{fill:url(#linear-gradient-10);}.cls-18{fill:url(#linear-gradient-11);}.cls-19{fill:#424143;}.cls-20{fill:url(#linear-gradient-12);}.cls-21{fill:url(#linear-gradient-13);}.cls-22{fill:url(#linear-gradient-14);}.cls-23{fill:url(#linear-gradient-15);}.cls-24{fill:url(#linear-gradient-16);}</style><clipPath id="clip-path"><rect class="cls-1" x="960" y="0.97" width="960" height="540"/></clipPath><clipPath id="clip-path-2"><rect class="cls-1" x="960" y="540" width="960" height="540"/></clipPath><clipPath id="clip-path-3"><rect class="cls-1" y="540.11" width="960" height="540"/></clipPath><clipPath id="clip-path-4"><rect class="cls-1" width="960" height="540"/></clipPath><linearGradient id="linear-gradient" x1="698.09" y1="591.44" x2="910.22" y2="803.57" gradientTransform="matrix(1, 0, 0, -1, 0, 1082)" gradientUnits="userSpaceOnUse"><stop offset="0.21" stop-color="#34679a"/><stop offset="0.52" stop-color="#fff" stop-opacity="0.7"/><stop offset="0.81" stop-color="#34679a"/></linearGradient><linearGradient id="linear-gradient-2" x1="702.22" y1="799.39" x2="906.1" y2="595.5" xlink:href="#linear-gradient"/><linearGradient id="linear-gradient-3" x1="706.48" y1="599.9" x2="901.9" y2="795.32" gradientTransform="matrix(0.99, 0.16, 0.16, -0.99, -98.76, 948.38)" xlink:href="#linear-gradient"/><linearGradient id="linear-gradient-4" x1="727.52" y1="620.75" x2="879.89" y2="773.12" gradientTransform="matrix(0.98, 0.18, 0.18, -0.98, -111.34, 927.57)" gradientUnits="userSpaceOnUse"><stop offset="0.21" stop-color="#34679a"/><stop offset="0.53" stop-color="#34679a" stop-opacity="0.7"/><stop offset="0.81" stop-color="#34679a"/></linearGradient><linearGradient id="linear-gradient-5" x1="1010.45" y1="593.02" x2="1222.58" y2="805.15" gradientTransform="matrix(1, 0, 0, -1, 0, 1082)" gradientUnits="userSpaceOnUse"><stop offset="0.21" stop-color="#026735"/><stop offset="0.51" stop-color="#fff" stop-opacity="0.5"/><stop offset="0.81" stop-color="#026735"/></linearGradient><linearGradient id="linear-gradient-6" x1="1014.58" y1="800.97" x2="1218.46" y2="597.09" gradientTransform="matrix(1, 0, 0, -1, 0, 1082)" gradientUnits="userSpaceOnUse"><stop offset="0.21" stop-color="#026735"/><stop offset="0.52" stop-color="#fff" stop-opacity="0.5"/><stop offset="0.81" stop-color="#026735"/></linearGradient><linearGradient id="linear-gradient-7" x1="1018.84" y1="601.48" x2="1214.26" y2="796.9" gradientTransform="matrix(0.99, 0.16, 0.16, -0.99, -95.2, 899.77)" xlink:href="#linear-gradient-6"/><linearGradient id="linear-gradient-8" x1="1039.82" y1="622.35" x2="1192.19" y2="774.73" gradientTransform="matrix(0.98, 0.18, 0.18, -0.98, -106.63, 871.87)" gradientUnits="userSpaceOnUse"><stop offset="0.21" stop-color="#026735"/><stop offset="0.53" stop-color="#026735" stop-opacity="0.7"/><stop offset="0.81" stop-color="#026735"/></linearGradient><linearGradient id="linear-gradient-9" x1="1011.89" y1="279.5" x2="1224.02" y2="491.64" gradientTransform="matrix(1, 0, 0, -1, 0, 1082)" gradientUnits="userSpaceOnUse"><stop offset="0.21" stop-color="#424143"/><stop offset="0.52" stop-color="#fff" stop-opacity="0.5"/><stop offset="0.81" stop-color="#424143"/></linearGradient><linearGradient id="linear-gradient-10" x1="1016.02" y1="487.45" x2="1219.91" y2="283.57" xlink:href="#linear-gradient-9"/><linearGradient id="linear-gradient-11" x1="2071.54" y1="-388.56" x2="2294.97" y2="-225.91" gradientTransform="matrix(1, 0, 0, -1, -1070.51, 387.86)" gradientUnits="userSpaceOnUse"><stop offset="0.21" stop-color="#3f4043"/><stop offset="0.52" stop-color="#fff" stop-opacity="0.5"/><stop offset="0.81" stop-color="#424143"/></linearGradient><linearGradient id="linear-gradient-12" x1="2245.84" y1="-483.69" x2="2422.95" y2="-360.94" gradientTransform="matrix(1, 0, 0, -1, -1216.85, 274.71)" gradientUnits="userSpaceOnUse"><stop offset="0.21" stop-color="#fff" stop-opacity="0"/><stop offset="0.53" stop-color="#fff" stop-opacity="0.4"/><stop offset="0.81" stop-color="#fff" stop-opacity="0"/></linearGradient><linearGradient id="linear-gradient-13" x1="697.67" y1="277.04" x2="909.81" y2="489.18" gradientTransform="matrix(1, 0, 0, -1, 0, 1082)" gradientUnits="userSpaceOnUse"><stop offset="0.21" stop-color="#704099"/><stop offset="0.51" stop-color="#fff" stop-opacity="0.7"/><stop offset="0.81" stop-color="#704099"/></linearGradient><linearGradient id="linear-gradient-14" x1="701.8" y1="484.99" x2="905.69" y2="281.11" gradientTransform="matrix(1, 0, 0, -1, 0, 1082)" gradientUnits="userSpaceOnUse"><stop offset="0.21" stop-color="#704099"/><stop offset="0.52" stop-color="#fff" stop-opacity="0.5"/><stop offset="0.81" stop-color="#704099"/></linearGradient><linearGradient id="linear-gradient-15" x1="706.07" y1="285.51" x2="901.48" y2="480.92" gradientTransform="matrix(0.99, 0.16, 0.16, -0.99, -49.85, 952.27)" gradientUnits="userSpaceOnUse"><stop offset="0.21" stop-color="#704099"/><stop offset="0.52" stop-color="#fff" stop-opacity="0.7"/><stop offset="0.81" stop-color="#704099"/></linearGradient><linearGradient id="linear-gradient-16" x1="727.11" y1="306.35" x2="879.48" y2="458.72" gradientTransform="matrix(0.98, 0.18, 0.18, -0.98, -55.3, 932.68)" gradientUnits="userSpaceOnUse"><stop offset="0.21" stop-color="#704099"/><stop offset="0.53" stop-color="#704099" stop-opacity="0.7"/><stop offset="0.81" stop-color="#704099"/></linearGradient></defs><title>slide_2</title><g id="Trade"><g class="cls-2"><image id="trade_1" width="4804" height="2253" transform="translate(869.16 0.97) scale(0.24)" xlink:href="originals/parts/trade_1.jpg"/><image id="trade_2" width="1920" height="1080" transform="translate(960 0.97) scale(0.5)" xlink:href="originals/parts/trade_2.jpg"/></g></g><g id="Security"><g class="cls-3"><image id="security_1" width="1920" height="1080" transform="translate(960 540) scale(0.5)" xlink:href="originals/parts/security_1.jpg"/></g></g><g id="Science"><g class="cls-4"><image id="science_1" width="3440" height="1440" transform="translate(-290 540.11) scale(0.38)" xlink:href="originals/parts/science_1.jpg"/></g></g><g id="Corporate"><g class="cls-5"><image id="corporate_1" width="3128" height="1704" transform="translate(-39 0) scale(0.32)" xlink:href="originals/parts/corporate_1.png"/><image id="corporate_2" width="1459" height="858" transform="translate(0 0) scale(0.66)" xlink:href="originals/parts/corporate_2.png"/></g></g><g id="Overlay"><rect class="cls-6" x="-145" y="-83" width="2158" height="1260"/></g><g id="Emblems"><g id="Corprate"><circle class="cls-7" cx="804.15" cy="384.49" r="150"/><circle class="cls-8" cx="804.16" cy="384.55" r="144.17"/><circle class="cls-9" cx="804.17" cy="384.37" r="138.17" transform="translate(-50.01 129.79) rotate(-8.95)"/><circle class="cls-10" cx="804.15" cy="384.38" r="113.66"/><circle class="cls-11" cx="803.74" cy="385.09" r="107.73" transform="translate(-55.78 149.47) rotate(-10.27)"/><path class="cls-10" d="M738.42,277.25q3.13-2,4.34-.12l1,1.56q1.2,1.87-1.92,3.88l-7.49,4.81-.83-1.3,7.49-4.81q1.47-.94,1.1-1.52l-1-1.56q-.38-.6-1.85.35l-4.66,3q-3.13,2-4.34.12l-.62-1q-1.22-1.89,1.91-3.9l7.24-4.65.83,1.3-7.24,4.65q-1.47.94-1.09,1.54l.62,1q.38.6,1.85-.35Z"/><path class="cls-10" d="M744,271.75q-1-2,2.41-3.62l5.42-2.54q3.36-1.58,4.32.46l2.53,5.39q.94,2-2.42,3.59l-5.42,2.54q-3.36,1.58-4.32-.46Zm11.6,1.88q1.58-.74,1.29-1.36l-2.53-5.39q-.3-.64-1.88.1l-5.42,2.54q-1.58.74-1.28,1.39l2.52,5.36q.3.64,1.88-.1Z"/><path class="cls-10" d="M758.94,262.63l1.87-.62,2.77,8.44,8-2.64.48,1.46-9.9,3.25Z"/><path class="cls-10" d="M797.44,264.94l-2.12.26-6.45-7.79-4.49,9.12-2.09.25,5.63-11.18,1.43-.17Z"/><path class="cls-10" d="M799.57,264.93l.11-10.42,8.25.09q3.72,0,3.69,2.29v1.27q0,1.88-2.6,2.16l2.42,4.74-2.1,0-2.39-4.68-5.35-.06-.05,4.65Zm2.07-8.86,0,2.69,6.28.07q1.75,0,1.75-.69v-1.27q0-.71-1.74-.73Z"/><path class="cls-10" d="M816.08,254.87l1.81.28,4.83,9.35L830.1,257l1.67.26-1.58,10.3-1.87-.29,1.1-7.16-6.26,6.36-1.6-.24-4.09-7.94-1.1,7.14-1.87-.29Z"/><path class="cls-10" d="M846.8,272.55l-2-.63-2.72-9.74-7.81,6.5-2-.62,9.69-7.92,1.37.42Z"/><path class="cls-10" d="M853.15,263.92l8.26,3.84q3.91,1.82,2.71,4.39l-2,4.32q-1.19,2.55-5.09.73l-8.26-3.84Zm4.51,11.89q2.12,1,2.66-.17l2-4.32q.55-1.18-1.57-2.17l-6.47-3-3.1,6.66Z"/><path class="cls-10" d="M875.24,288l-1.8-1.15,0-10.12-9.26,4.18-1.77-1.13,11.45-5.05,1.21.78Z"/><path class="cls-10" d="M748.16,499.92l-.74,1.35-7-3.82q-3.26-1.78-2.11-3.89l2.7-4.94q1.15-2.1,4.41-.32l7,3.82-.74,1.35-7-3.82q-1.53-.84-1.94-.09l-2.7,4.94q-.41.75,1.12,1.59Z"/><path class="cls-10" d="M754,495.41q.82-2.1,4.28-.74l5.57,2.18q3.46,1.35,2.64,3.45l-2.17,5.54q-.81,2.07-4.27.72l-5.58-2.18q-3.46-1.35-2.64-3.45Zm6.62,9.71q1.63.64,1.88,0l2.17-5.54q.26-.66-1.37-1.3l-5.57-2.18q-1.63-.64-1.89,0l-2.16,5.52q-.26.66,1.37,1.3Z"/><path class="cls-10" d="M767.54,509.11,770,499l8,2q3.61.89,3.07,3.08l-.31,1.23q-.45,1.83-3,1.51l1.27,5.16-2-.5-1.25-5.09-5.19-1.28-1.12,4.51Zm4-8.15-.65,2.62,6.09,1.51q1.7.42,1.87-.27l.31-1.23q.17-.69-1.53-1.11Z"/><path class="cls-10" d="M783.58,512.76l1.23-10.35,8,1q3.69.44,3.43,2.67l-.24,2.06q-.27,2.24-4,1.8l-6.09-.72-.45,3.82Zm3-8.59-.41,3.47,6.09.72q1.73.21,1.82-.5l.24-2.06q.08-.71-1.65-.91Z"/><path class="cls-10" d="M799.11,506.21q0-2.25,3.69-2.29l6-.07q3.72,0,3.74,2.21l.07,6q0,2.22-3.69,2.26l-6,.07q-3.72,0-3.74-2.21Zm9.77,6.53q1.75,0,1.74-.7l-.07-6q0-.71-1.75-.69l-6,.07q-1.75,0-1.74.73l.07,5.92q0,.71,1.75.69Z"/><path class="cls-10" d="M816.75,513.87l-1.45-10.32,8.17-1.15q3.68-.52,4,1.71l.18,1.26q.26,1.86-2.25,2.53l3.11,4.32-2.08.29-3.07-4.26-5.3.75.65,4.6Zm.71-9.07.38,2.67,6.22-.88q1.73-.24,1.63-.95l-.18-1.26q-.1-.7-1.83-.46Z"/><path class="cls-10" d="M846.86,507.46l-2.06.57-7.55-6.73L834.19,511l-2,.57,3.87-11.9,1.38-.39Z"/><path class="cls-10" d="M842.61,497.84l11.85-4.69.57,1.43-4.94,2,3.27,8.26-1.83.73-3.27-8.26-5.08,2Z"/><path class="cls-10" d="M861.33,496l1.53,2.81,7.69-4.18.74,1.35-9.42,5.12-5-9.16,9.42-5.12.74,1.35-7.69,4.18,1.24,2.29,7.3-4,.74,1.35Z"/><path class="cls-10" d="M720.08,284.4l9.48,11.2-.89.75-9.48-11.2Z"/><path class="cls-10" d="M716.76,287.27l9.85,10.87-.87.78-9.85-10.87Z"/><path class="cls-10" d="M713.55,290.26l10.21,10.54-.84.81-10.21-10.54Z"/><path class="cls-10" d="M710.43,293.36,721,303.54l-.81.84L709.62,294.2Z"/><path class="cls-10" d="M707.43,296.55l10.9,9.82-.78.87-10.9-9.82Z"/><path class="cls-10" d="M704.53,299.85l11.23,9.45-.75.9-11.23-9.45Z"/><path class="cls-10" d="M701.74,303.25l11.54,9.06-.72.92L701,304.17Z"/><path class="cls-10" d="M699.08,306.73l11.84,8.67-.69.94-11.84-8.67Z"/><path class="cls-10" d="M696.53,310.3l12.13,8.26-.66,1-12.13-8.26Z"/><path class="cls-10" d="M694.1,314l12.4,7.85-.63,1-12.4-7.85Z"/><path class="cls-10" d="M691.8,317.7l12.65,7.43-.59,1-12.65-7.43Z"/><path class="cls-10" d="M689.62,321.51l12.89,7-.56,1-12.89-7Z"/><path class="cls-10" d="M687.58,325.39,700.7,332l-.52,1-13.12-6.57Z"/><path class="cls-10" d="M685.66,329.33,699,335.46l-.49,1.06-13.33-6.12Z"/><path class="cls-10" d="M683.88,333.34,697.41,339,697,340.1l-13.53-5.68Z"/><path class="cls-10" d="M682.23,337.41l13.71,5.22-.42,1.09-13.71-5.22Z"/><path class="cls-10" d="M680.72,341.53l13.88,4.76-.38,1.11-13.88-4.76Z"/><path class="cls-10" d="M679.35,345.69l14,4.29-.34,1.12-14-4.29Z"/><path class="cls-10" d="M678.12,349.9l14.17,3.82-.31,1.13L677.82,351Z"/><path class="cls-10" d="M677,354.15l14.29,3.35-.27,1.14-14.29-3.35Z"/><path class="cls-10" d="M676.08,358.43l14.39,2.87-.23,1.15-14.39-2.87Z"/><path class="cls-10" d="M675.28,362.75l14.48,2.38-.19,1.15-14.48-2.38Z"/><path class="cls-10" d="M674.62,367.09l14.55,1.9-.15,1.16-14.55-1.9Z"/><path class="cls-10" d="M674.1,371.44l14.61,1.41-.11,1.17L674,372.61Z"/><path class="cls-10" d="M673.74,375.82l14.64.91-.07,1.17L673.66,377Z"/><path class="cls-10" d="M673.52,380.2l14.67.42,0,1.17-14.67-.42Z"/><path class="cls-10" d="M673.44,384.59l14.67-.07v1.17l-14.67.07Z"/><path class="cls-10" d="M673.52,389l14.66-.57,0,1.17-14.66.57Z"/><path class="cls-10" d="M673.74,393.36l14.63-1.06.08,1.17-14.63,1.06Z"/><path class="cls-10" d="M674.11,397.74l14.59-1.56.12,1.17-14.59,1.55Z"/><path class="cls-10" d="M674.63,402.09l14.53-2,.16,1.16-14.53,2Z"/><path class="cls-10" d="M675.3,406.44l14.45-2.54.21,1.15-14.45,2.54Z"/><path class="cls-10" d="M676.11,410.75l14.36-3,.24,1.14-14.36,3Z"/><path class="cls-10" d="M677.07,415l14.25-3.51.28,1.14-14.25,3.51Z"/><path class="cls-10" d="M678.18,419.28l14.12-4,.32,1.13-14.12,4Z"/><path class="cls-10" d="M679.42,423.49l14-4.47.36,1.11-14,4.47Z"/><path class="cls-10" d="M680.81,427.66l13.82-4.93.39,1.1-13.82,4.93Z"/><path class="cls-10" d="M682.33,431.77,696,426.38l.43,1.09-13.65,5.39Z"/><path class="cls-10" d="M684,435.83,697.45,430l.47,1.07-13.46,5.84Z"/><path class="cls-10" d="M685.79,439.83,699,433.55l.5,1.06-13.26,6.28Z"/><path class="cls-10" d="M687.72,443.78l13-6.74.54,1-13,6.74Z"/><path class="cls-10" d="M689.77,447.64l12.82-7.15.57,1-12.82,7.15Z"/><path class="cls-10" d="M691.95,451.44l12.57-7.57.6,1-12.57,7.57Z"/><path class="cls-10" d="M694.25,455.18l12.31-8,.64,1-12.31,8Z"/><path class="cls-10" d="M696.69,458.83l12-8.39.67,1-12,8.39Z"/><path class="cls-10" d="M699.25,462.4,711,453.6l.7.94-11.75,8.79Z"/><path class="cls-10" d="M701.92,465.88l11.44-9.19.73.91-11.44,9.19Z"/><path class="cls-10" d="M704.71,469.27l11.12-9.57.77.89-11.13,9.57Z"/><path class="cls-10" d="M707.61,472.56l10.79-9.94.79.86-10.79,9.94Z"/><path class="cls-10" d="M710.63,475.75l10.45-10.3.82.83-10.45,10.3Z"/><path class="cls-10" d="M713.75,478.84l10.1-10.65.85.8-10.1,10.65Z"/><path class="cls-10" d="M717,481.82l9.73-11,.88.78-9.73,11Z"/><path class="cls-10" d="M720.29,484.7l9.35-11.3.9.75-9.35,11.3Z"/><path class="cls-10" d="M723.71,487.45l9-11.61.93.71-9,11.61Z"/><path class="cls-10" d="M727.21,490.09l8.57-11.91.95.69-8.57,11.91Z"/><path class="cls-10" d="M889.27,285.12l-9.48,11.2-.89-.75,9.48-11.2Z"/><path class="cls-10" d="M892.56,288l-9.85,10.87-.87-.79,9.85-10.87Z"/><path class="cls-10" d="M895.75,291l-10.21,10.54-.84-.81,10.21-10.54Z"/><path class="cls-10" d="M898.84,294.16l-10.56,10.18-.81-.84L898,293.32Z"/><path class="cls-10" d="M901.82,297.39l-10.9,9.82-.78-.87,10.9-9.82Z"/><path class="cls-10" d="M904.68,300.71l-11.23,9.44-.75-.9,11.23-9.45Z"/><path class="cls-10" d="M907.44,304.13l-11.54,9.06-.72-.92,11.54-9.06Z"/><path class="cls-10" d="M910.08,307.64l-11.84,8.67-.69-.94,11.84-8.67Z"/><path class="cls-10" d="M912.59,311.23l-12.13,8.26-.66-1,12.13-8.26Z"/><path class="cls-10" d="M915,314.91l-12.4,7.85-.63-1,12.4-7.85Z"/><path class="cls-10" d="M917.25,318.67,904.6,326.1l-.59-1,12.65-7.43Z"/><path class="cls-10" d="M919.4,322.5l-12.89,7-.56-1,12.89-7Z"/><path class="cls-10" d="M921.41,326.4,908.28,333l-.52-1,13.12-6.57Z"/><path class="cls-10" d="M923.29,330.36,910,336.49l-.49-1.06,13.33-6.13Z"/><path class="cls-10" d="M925,334.39l-13.53,5.68L911,339l13.53-5.68Z"/><path class="cls-10" d="M926.64,338.47l-13.71,5.22-.42-1.09,13.71-5.22Z"/><path class="cls-10" d="M928.12,342.6l-13.88,4.76-.38-1.11,13.88-4.76Z"/><path class="cls-10" d="M929.45,346.78l-14,4.29-.34-1.12,14-4.29Z"/><path class="cls-10" d="M930.65,351l-14.17,3.82-.3-1.13,14.17-3.82Z"/><path class="cls-10" d="M931.7,355.26l-14.29,3.35-.27-1.14,14.29-3.35Z"/><path class="cls-10" d="M932.61,359.55l-14.39,2.87-.23-1.15,14.39-2.87Z"/><path class="cls-10" d="M933.37,363.87l-14.48,2.38-.19-1.15,14.48-2.38Z"/><path class="cls-10" d="M934,368.21l-14.55,1.9-.15-1.16,14.55-1.9Z"/><path class="cls-10" d="M934.47,372.57,919.87,374l-.11-1.17,14.61-1.41Z"/><path class="cls-10" d="M934.8,376.95l-14.64.92-.07-1.17,14.64-.92Z"/><path class="cls-10" d="M935,381.33l-14.67.42,0-1.17,14.67-.42Z"/><path class="cls-10" d="M935,385.72l-14.67-.07v-1.17l14.67.07Z"/><path class="cls-10" d="M934.9,390.11l-14.66-.57,0-1.17,14.66.57Z"/><path class="cls-10" d="M934.63,394.49,920,393.43l.08-1.17,14.64,1.06Z"/><path class="cls-10" d="M934.22,398.86l-14.59-1.56.12-1.17,14.59,1.56Z"/><path class="cls-10" d="M933.66,403.22l-14.53-2,.16-1.16,14.53,2Z"/><path class="cls-10" d="M933,407.55,918.51,405l.21-1.15,14.45,2.54Z"/><path class="cls-10" d="M932.11,411.86l-14.36-3,.24-1.14,14.36,3Z"/><path class="cls-10" d="M931.11,416.14l-14.25-3.51.28-1.14L931.39,415Z"/><path class="cls-10" d="M930,420.37l-14.12-4,.32-1.13,14.12,4Z"/><path class="cls-10" d="M928.68,424.57l-14-4.46.36-1.11,14,4.46Z"/><path class="cls-10" d="M927.26,428.72l-13.82-4.93.39-1.1,13.82,4.93Z"/><path class="cls-10" d="M925.7,432.82l-13.65-5.39.43-1.09,13.65,5.39Z"/><path class="cls-10" d="M924,436.87,910.54,431,911,430l13.46,5.84Z"/><path class="cls-10" d="M922.17,440.85l-13.26-6.28.5-1.06,13.26,6.29Z"/><path class="cls-10" d="M920.21,444.78l-13-6.74.54-1,13,6.74Z"/><path class="cls-10" d="M918.13,448.63l-12.82-7.15.57-1,12.82,7.15Z"/><path class="cls-10" d="M915.91,452.41l-12.57-7.57.6-1,12.57,7.57Z"/><path class="cls-10" d="M913.57,456.12l-12.31-8,.64-1,12.31,8Z"/><path class="cls-10" d="M911.1,459.75l-12-8.39.67-1,12,8.39Z"/><path class="cls-10" d="M908.52,463.3l-11.75-8.79.7-.94,11.75,8.79Z"/><path class="cls-10" d="M905.81,466.75l-11.44-9.19.73-.91,11.44,9.19Z"/><path class="cls-10" d="M903,470.12l-11.12-9.57.76-.89,11.12,9.57Z"/><path class="cls-10" d="M900.06,473.38l-10.8-9.94.79-.86,10.79,9.94Z"/><path class="cls-10" d="M897,476.55l-10.45-10.3.82-.83,10.45,10.3Z"/><path class="cls-10" d="M893.87,479.61,883.77,469l.85-.8,10.1,10.65Z"/><path class="cls-10" d="M890.62,482.56l-9.73-11,.88-.78,9.73,11Z"/><path class="cls-10" d="M887.27,485.4l-9.35-11.3.9-.75,9.35,11.3Z"/><path class="cls-10" d="M883.83,488.13l-9-11.61.93-.71,9,11.61Z"/><path class="cls-10" d="M880.3,490.74l-8.57-11.91.95-.69,8.57,11.91Z"/><path class="cls-10" d="M746.27,424.68v25a3,3,0,0,0,3,3h53.11a3,3,0,0,0,3-3v-25h0s.12-7.66-7.29-9.25c-5.49-1.18-10.55-2.8-13.12-5.92H766.67c-2.57,3.12-7.62,4.75-13.12,5.92-7.39,1.61-7.28,9.25-7.28,9.25Z"/><path class="cls-10" d="M854.7,351.75a1.58,1.58,0,0,0-.1-1.73,27.35,27.35,0,0,0-2-2.38,3,3,0,0,1,2.48-5c.74.09,1.52.19,2.28.31a1.53,1.53,0,0,0,1.73-1.06,60,60,0,0,0,2.2-24.76,1.55,1.55,0,0,0-2.87-.61c-3.09,5.09-11.09,13.08-31.65,18.63-28.32,7.63-37.11,29-39.79,40q-6.56,6.36-12.75,13.09a3.13,3.13,0,0,0-.28.34H785.6q3.44-3.55,7-7C828.75,379.18,846.38,366,854.7,351.75Z"/><path class="cls-10" d="M781.22,393.19H762.3a3,3,0,0,0-3,3v5.39a3,3,0,0,0,3,3h27a3,3,0,0,0,3-3v-5.39a3,3,0,0,0-3-3Z"/></g><g id="Logistics"><g id="Base"><circle class="cls-12" cx="1116.51" cy="382.91" r="150"/><circle class="cls-13" cx="1116.52" cy="382.97" r="144.17"/><circle class="cls-14" cx="1116.53" cy="382.79" r="138.17" transform="translate(-45.96 178.36) rotate(-8.95)"/><circle class="cls-10" cx="1116.51" cy="382.8" r="113.66"/><circle class="cls-15" cx="1116.03" cy="383.49" r="107.73" transform="translate(-50.49 205.12) rotate(-10.27)"/></g><g id="Text"><path class="cls-10" d="M1050.78,275.67q3.13-2,4.34-.12l1,1.56q1.2,1.87-1.92,3.88l-7.49,4.81-.83-1.3,7.49-4.81q1.47-.94,1.1-1.52l-1-1.56q-.38-.6-1.85.35l-4.66,3q-3.13,2-4.34.12l-.62-1q-1.22-1.89,1.91-3.9l7.24-4.65.83,1.3-7.24,4.65q-1.47.94-1.09,1.54l.62,1q.38.6,1.85-.35Z"/><path class="cls-10" d="M1056.38,270.17q-1-2,2.41-3.62l5.42-2.54q3.36-1.58,4.32.46l2.53,5.39q.94,2-2.42,3.59l-5.42,2.54q-3.36,1.58-4.32-.46ZM1068,272q1.58-.74,1.29-1.36l-2.53-5.39q-.3-.64-1.88.1l-5.42,2.54q-1.58.74-1.28,1.39l2.52,5.36q.3.64,1.88-.1Z"/><path class="cls-10" d="M1071.3,261l1.87-.62,2.77,8.44,8-2.64.48,1.46-9.9,3.25Z"/><path class="cls-10" d="M1109.8,263.35l-2.12.26-6.45-7.79-4.49,9.12-2.09.25,5.63-11.18,1.43-.17Z"/><path class="cls-10" d="M1111.93,263.35l.11-10.42,8.25.09q3.72,0,3.69,2.29v1.27q0,1.88-2.6,2.16l2.42,4.74-2.1,0-2.39-4.68-5.35-.06-.05,4.65Zm2.07-8.86,0,2.69,6.28.07q1.75,0,1.75-.69v-1.27q0-.71-1.74-.73Z"/><path class="cls-10" d="M1128.44,253.28l1.81.28,4.83,9.35,7.38-7.48,1.67.26-1.58,10.3-1.87-.29,1.1-7.16-6.26,6.36-1.6-.24-4.09-7.94-1.1,7.14-1.87-.29Z"/><path class="cls-10" d="M1159.16,271l-2-.63-2.72-9.74-7.81,6.5-2-.62,9.69-7.92,1.37.42Z"/><path class="cls-10" d="M1165.51,262.34l8.26,3.84q3.91,1.82,2.71,4.39l-2,4.32q-1.19,2.55-5.09.73l-8.26-3.84Zm4.51,11.89q2.12,1,2.66-.17l2-4.32q.55-1.18-1.57-2.17l-6.47-3-3.1,6.66Z"/><path class="cls-10" d="M1187.6,286.39l-1.8-1.15,0-10.12-9.26,4.18-1.77-1.13,11.45-5.05,1.21.78Z"/><path class="cls-10" d="M1062.21,489.21l1.79.83-3.73,8.06,7.68,3.55-.65,1.4-9.46-4.37Z"/><path class="cls-10" d="M1073.67,496.86q.69-2.14,4.22-1l5.7,1.81q3.54,1.13,2.86,3.27l-1.8,5.67q-.67,2.12-4.22,1l-5.7-1.81q-3.54-1.13-2.86-3.27Zm7.23,9.26q1.67.53,1.87-.12l1.8-5.67q.22-.68-1.45-1.21l-5.7-1.81q-1.67-.53-1.88.15l-1.8,5.64q-.22.68,1.45,1.21Z"/><path class="cls-10" d="M1099.3,505.89l1.94.34-.6,3.41q-.38,2.19-4,1.54l-4.54-.8q-3.66-.64-3.27-2.86l1-5.83q.39-2.22,4-1.57l8,1.41-.27,1.52-8-1.41q-1.72-.3-1.84.4l-1,5.83q-.12.7,1.6,1l4.54.8q1.72.3,1.84-.37Z"/><path class="cls-10" d="M1105.29,501.77l2,.17-.91,10.38-2-.17Z"/><path class="cls-10" d="M1119.74,506.42q3.72,0,3.72,2.24v1.85q0,2.22-3.71,2.23l-8.9,0v-1.54l8.9,0q1.75,0,1.75-.69v-1.85q0-.71-1.75-.71h-5.54q-3.72,0-3.72-2.24v-1.14q0-2.25,3.71-2.26h8.6v1.54h-8.6q-1.75,0-1.75.71v1.14q0,.71,1.75.71Z"/><path class="cls-10" d="M1125.7,502.16l12.64-1.62.2,1.53-5.27.68,1.13,8.81-2,.25-1.13-8.81-5.42.7Z"/><path class="cls-10" d="M1141,499.85l1.93-.41,2.19,10.19-1.93.41Z"/><path class="cls-10" d="M1159.46,504.07l.44,1.47-7.62,2.29q-3.56,1.07-4.25-1.23l-1.62-5.39q-.69-2.3,2.87-3.37l7.62-2.29.44,1.47-7.62,2.29q-1.67.5-1.43,1.33l1.62,5.39q.25.82,1.92.32Z"/><path class="cls-10" d="M1169.86,494.51q3.39-1.52,4.31.54l.75,1.69q.91,2-2.49,3.54l-8.12,3.63-.63-1.41,8.13-3.63q1.6-.71,1.32-1.33l-.75-1.69q-.29-.65-1.89.06l-5.06,2.26q-3.39,1.52-4.31-.54l-.47-1q-.92-2.06,2.47-3.57l7.85-3.51.63,1.41-7.85,3.51q-1.6.71-1.3,1.36l.47,1q.29.65,1.89-.06Z"/><path class="cls-10" d="M1032.44,282.82l9.48,11.2-.89.75-9.48-11.2Z"/><path class="cls-10" d="M1029.12,285.69l9.85,10.87-.87.78-9.85-10.87Z"/><path class="cls-10" d="M1025.91,288.68l10.21,10.54-.84.81-10.21-10.54Z"/><path class="cls-10" d="M1022.79,291.77,1033.35,302l-.81.84L1022,292.62Z"/><path class="cls-10" d="M1019.79,295l10.9,9.82-.78.87-10.9-9.82Z"/><path class="cls-10" d="M1016.89,298.27l11.23,9.45-.75.9-11.23-9.45Z"/><path class="cls-10" d="M1014.1,301.67l11.54,9.06-.72.92-11.54-9.06Z"/><path class="cls-10" d="M1011.44,305.15l11.84,8.67-.69.94-11.84-8.67Z"/><path class="cls-10" d="M1008.89,308.72,1021,317l-.66,1-12.13-8.26Z"/><path class="cls-10" d="M1006.46,312.38l12.4,7.85-.63,1-12.4-7.85Z"/><path class="cls-10" d="M1004.16,316.11l12.65,7.43-.59,1-12.65-7.43Z"/><path class="cls-10" d="M1002,319.92l12.89,7-.56,1-12.89-7Z"/><path class="cls-10" d="M999.94,323.81l13.12,6.57-.52,1-13.12-6.57Z"/><path class="cls-10" d="M998,327.75l13.33,6.12-.49,1.06-13.33-6.12Z"/><path class="cls-10" d="M996.24,331.76l13.53,5.68-.45,1.08-13.53-5.68Z"/><path class="cls-10" d="M994.59,335.83l13.71,5.22-.42,1.09-13.71-5.22Z"/><path class="cls-10" d="M993.08,339.95,1007,344.7l-.38,1.11-13.88-4.76Z"/><path class="cls-10" d="M991.71,344.11l14,4.29-.34,1.12-14-4.29Z"/><path class="cls-10" d="M990.48,348.32l14.17,3.82-.31,1.13-14.17-3.82Z"/><path class="cls-10" d="M989.39,352.57l14.29,3.35-.27,1.14-14.29-3.35Z"/><path class="cls-10" d="M988.44,356.85l14.39,2.87-.23,1.15L988.21,358Z"/><path class="cls-10" d="M987.64,361.17l14.48,2.38-.19,1.15-14.48-2.38Z"/><path class="cls-10" d="M987,365.5l14.55,1.9-.15,1.16-14.55-1.9Z"/><path class="cls-10" d="M986.46,369.86l14.61,1.41-.11,1.17L986.35,371Z"/><path class="cls-10" d="M986.1,374.24l14.64.91-.07,1.17L986,375.4Z"/><path class="cls-10" d="M985.87,378.62l14.67.42,0,1.17-14.67-.42Z"/><path class="cls-10" d="M985.8,383l14.67-.07v1.17l-14.67.07Z"/><path class="cls-10" d="M985.88,387.4l14.66-.57,0,1.17-14.66.57Z"/><path class="cls-10" d="M986.1,391.78l14.63-1.06.08,1.17-14.63,1.06Z"/><path class="cls-10" d="M986.47,396.15l14.59-1.56.12,1.17-14.59,1.55Z"/><path class="cls-10" d="M987,400.51l14.53-2,.16,1.16-14.53,2Z"/><path class="cls-10" d="M987.66,404.85l14.45-2.54.21,1.15L987.87,406Z"/><path class="cls-10" d="M988.47,409.17l14.36-3,.24,1.14-14.36,3Z"/><path class="cls-10" d="M989.43,413.45l14.25-3.51.28,1.14-14.25,3.51Z"/><path class="cls-10" d="M990.53,417.7l14.12-4,.32,1.13-14.12,4Z"/><path class="cls-10" d="M991.78,421.91l14-4.47.36,1.11-14,4.47Z"/><path class="cls-10" d="M993.17,426.07l13.82-4.93.39,1.1-13.82,4.93Z"/><path class="cls-10" d="M994.69,430.19l13.65-5.39.43,1.09-13.65,5.39Z"/><path class="cls-10" d="M996.35,434.25l13.46-5.84.47,1.07-13.46,5.84Z"/><path class="cls-10" d="M998.15,438.25l13.26-6.28.5,1.06-13.26,6.28Z"/><path class="cls-10" d="M1000.08,442.2l13-6.74.54,1-13,6.74Z"/><path class="cls-10" d="M1002.13,446.06l12.82-7.15.57,1-12.82,7.15Z"/><path class="cls-10" d="M1004.31,449.86l12.57-7.57.6,1-12.57,7.57Z"/><path class="cls-10" d="M1006.61,453.59l12.31-8,.64,1-12.31,8Z"/><path class="cls-10" d="M1009,457.24l12-8.39.67,1-12,8.39Z"/><path class="cls-10" d="M1011.6,460.81l11.75-8.79.7.94-11.75,8.79Z"/><path class="cls-10" d="M1014.28,464.29l11.44-9.19.73.91L1015,465.21Z"/><path class="cls-10" d="M1017.07,467.68l11.12-9.57.77.89-11.13,9.57Z"/><path class="cls-10" d="M1020,471l10.79-9.94.79.86-10.79,9.94Z"/><path class="cls-10" d="M1023,474.17l10.45-10.3.82.83L1023.81,475Z"/><path class="cls-10" d="M1026.11,477.26l10.1-10.65.85.8L1027,478.06Z"/><path class="cls-10" d="M1029.33,480.24l9.73-11,.88.78-9.73,11Z"/><path class="cls-10" d="M1032.65,483.11l9.35-11.3.9.75-9.35,11.3Z"/><path class="cls-10" d="M1036.07,485.87l9-11.61.93.71-9,11.61Z"/><path class="cls-10" d="M1039.57,488.51l8.57-11.91.95.69-8.57,11.91Z"/><path class="cls-10" d="M1043.17,491l8.17-12.19,1,.65-8.17,12.19Z"/><path class="cls-10" d="M1046.84,493.42l7.75-12.46,1,.62L1047.84,494Z"/><path class="cls-10" d="M1201.63,283.53l-9.48,11.2-.89-.75,9.48-11.2Z"/><path class="cls-10" d="M1204.92,286.44l-9.85,10.88-.87-.79,9.85-10.87Z"/><path class="cls-10" d="M1208.11,289.46,1197.9,300l-.84-.81,10.21-10.54Z"/><path class="cls-10" d="M1211.2,292.58l-10.56,10.18-.81-.84,10.56-10.18Z"/><path class="cls-10" d="M1214.18,295.81l-10.9,9.82-.78-.87,10.9-9.82Z"/><path class="cls-10" d="M1217,299.13l-11.23,9.44-.75-.9,11.23-9.45Z"/><path class="cls-10" d="M1219.8,302.55l-11.54,9.06-.72-.92,11.54-9.06Z"/><path class="cls-10" d="M1222.43,306.06l-11.84,8.67-.69-.94,11.84-8.67Z"/><path class="cls-10" d="M1224.95,309.65l-12.12,8.26-.66-1,12.13-8.26Z"/><path class="cls-10" d="M1227.34,313.33l-12.4,7.85-.63-1,12.4-7.85Z"/><path class="cls-10" d="M1229.61,317.09,1217,324.52l-.59-1,12.65-7.43Z"/><path class="cls-10" d="M1231.75,320.92l-12.89,7-.56-1,12.89-7Z"/><path class="cls-10" d="M1233.77,324.82l-13.12,6.57-.52-1,13.12-6.57Z"/><path class="cls-10" d="M1235.65,328.78l-13.33,6.12-.49-1.06,13.33-6.13Z"/><path class="cls-10" d="M1237.39,332.8l-13.53,5.68-.45-1.08,13.53-5.68Z"/><path class="cls-10" d="M1239,336.88l-13.71,5.22-.42-1.09,13.71-5.22Z"/><path class="cls-10" d="M1240.48,341l-13.88,4.76-.38-1.11,13.88-4.76Z"/><path class="cls-10" d="M1241.81,345.19l-14,4.29-.34-1.12,14-4.29Z"/><path class="cls-10" d="M1243,349.42l-14.17,3.82-.31-1.13,14.17-3.82Z"/><path class="cls-10" d="M1244.06,353.67,1229.77,357l-.27-1.14,14.29-3.35Z"/><path class="cls-10" d="M1245,358l-14.39,2.87-.23-1.15,14.39-2.87Z"/><path class="cls-10" d="M1245.73,362.29l-14.48,2.38-.19-1.15,14.48-2.38Z"/><path class="cls-10" d="M1246.35,366.63l-14.55,1.9-.15-1.16,14.55-1.9Z"/><path class="cls-10" d="M1246.83,371l-14.61,1.41-.11-1.17,14.61-1.41Z"/><path class="cls-10" d="M1247.16,375.37l-14.64.92-.07-1.17,14.64-.92Z"/><path class="cls-10" d="M1247.34,379.75l-14.67.42,0-1.17,14.67-.42Z"/><path class="cls-10" d="M1247.37,384.14l-14.67-.07V382.9l14.67.07Z"/><path class="cls-10" d="M1247.26,388.53,1232.6,388l0-1.17,14.66.57Z"/><path class="cls-10" d="M1247,392.91l-14.63-1.06.08-1.17,14.64,1.06Z"/><path class="cls-10" d="M1246.58,397.28,1232,395.73l.12-1.17,14.59,1.56Z"/><path class="cls-10" d="M1246,401.64l-14.53-2,.16-1.16,14.53,2Z"/><path class="cls-10" d="M1245.32,406l-14.45-2.54.21-1.15,14.45,2.54Z"/><path class="cls-10" d="M1244.47,410.28l-14.36-3,.24-1.14,14.36,3Z"/><path class="cls-10" d="M1243.47,414.55,1229.22,411l.28-1.14,14.25,3.51Z"/><path class="cls-10" d="M1242.33,418.79l-14.12-4,.32-1.13,14.12,4Z"/><path class="cls-10" d="M1241,423l-14-4.46.36-1.11,14,4.46Z"/><path class="cls-10" d="M1239.62,427.14l-13.82-4.93.39-1.1L1240,426Z"/><path class="cls-10" d="M1238.06,431.24l-13.65-5.39.43-1.09,13.65,5.39Z"/><path class="cls-10" d="M1236.36,435.28l-13.46-5.84.47-1.07,13.46,5.84Z"/><path class="cls-10" d="M1234.53,439.27,1221.27,433l.5-1.06,13.26,6.29Z"/><path class="cls-10" d="M1232.57,443.2l-13-6.74.54-1,13,6.74Z"/><path class="cls-10" d="M1230.49,447l-12.82-7.15.57-1,12.82,7.15Z"/><path class="cls-10" d="M1228.27,450.83l-12.57-7.57.6-1,12.57,7.57Z"/><path class="cls-10" d="M1225.93,454.54l-12.31-8,.64-1,12.31,8Z"/><path class="cls-10" d="M1223.46,458.17l-12-8.39.67-1,12,8.39Z"/><path class="cls-10" d="M1220.87,461.71l-11.75-8.79.7-.94,11.75,8.79Z"/><path class="cls-10" d="M1218.17,465.17,1206.73,456l.73-.91,11.44,9.19Z"/><path class="cls-10" d="M1215.35,468.53,1204.22,459l.76-.89,11.12,9.57Z"/><path class="cls-10" d="M1212.42,471.8l-10.8-9.94.79-.86,10.79,9.94Z"/><path class="cls-10" d="M1209.37,475l-10.45-10.3.82-.83,10.45,10.3Z"/><path class="cls-10" d="M1206.23,478l-10.1-10.65.85-.8,10.1,10.65Z"/><path class="cls-10" d="M1203,481l-9.73-11,.88-.78,9.73,11Z"/><path class="cls-10" d="M1199.63,483.82l-9.35-11.3.9-.75,9.35,11.3Z"/><path class="cls-10" d="M1196.19,486.55l-9-11.61.93-.71,9,11.61Z"/><path class="cls-10" d="M1192.66,489.15l-8.57-11.91.95-.69,8.57,11.91Z"/><path class="cls-10" d="M1189,491.64l-8.17-12.19,1-.65L1190,491Z"/><path class="cls-10" d="M1185.35,494l-7.75-12.46,1-.62,7.75,12.46Z"/></g><path class="cls-10" d="M1116.65,299.36,1044.12,341l.08,83.73,72.33,41.76,72.28-41.73.09-83.76Zm-64.37,124.2,15.4-9-17.73-30.39-.5-36.56,26.28,15.18v13.34l14.76,25.26L1113.74,388l.3,71.08Zm61.51-72.37,0,26.84-61.66-35.36L1113.8,307l0,17.81,35.19-.11,31.89,17.89-26.31,15.13-11.55-6.68Zm69.75,66.69L1168.08,409l-17.44,30.56-31.4,18.72V428l11.55-6.68,14.49-25.42L1122,382.43l61.63-35.82Z"/></g><g id="Security-2" data-name="Security"><circle class="cls-16" cx="1117.96" cy="696.43" r="150"/><circle class="cls-17" cx="1117.96" cy="696.49" r="144.17"/><circle class="cls-18" cx="1118.96" cy="695.97" r="138.57" transform="translate(-96.71 187.44) rotate(-9.18)"/><circle class="cls-10" cx="1117.95" cy="696.32" r="113.66"/><circle class="cls-19" cx="1117.95" cy="695.86" r="107.73" transform="translate(-106.15 210.47) rotate(-10.27)"/><circle id="Front_Shimmer" data-name="Front Shimmer" class="cls-20" cx="1117.54" cy="697.03" r="107.73" transform="translate(-106.37 210.41) rotate(-10.27)"/><path class="cls-10" d="M1072,811q3.41,1.47,2.52,3.54l-.73,1.7q-.88,2-4.29.56l-8.17-3.53.61-1.41,8.17,3.53q1.6.69,1.87.07l.73-1.7q.28-.65-1.32-1.35l-5.08-2.19q-3.41-1.47-2.52-3.54l.45-1q.89-2.07,4.3-.59l7.9,3.41-.61,1.41-7.9-3.41q-1.6-.69-1.89,0l-.45,1q-.28.65,1.32,1.35Z"/><path class="cls-10" d="M1080.35,815.7l-.89,3.07,8.41,2.43-.43,1.48-10.3-3,2.9-10,10.3,3-.43,1.48-8.4-2.43-.72,2.5,8,2.31-.43,1.48Z"/><path class="cls-10" d="M1103.45,824l-.25,1.52-7.85-1.28q-3.67-.6-3.28-3l.9-5.55q.39-2.37,4.05-1.77l7.85,1.28-.25,1.52-7.85-1.27q-1.72-.28-1.86.57l-.9,5.55q-.14.85,1.59,1.13Z"/><path class="cls-10" d="M1117,824.75q1.75.05,1.78-1.07l.24-7.75,2,.06-.24,7.75q-.08,2.66-3.8,2.55l-5.54-.17q-3.71-.12-3.63-2.81l.24-7.73,2,.06-.24,7.73q0,1.15,1.71,1.21Z"/><path class="cls-10" d="M1125.28,826.21l-1-10.37,8.21-.82q3.7-.37,3.92,1.87l.13,1.27q.19,1.87-2.35,2.44l2.93,4.44-2.09.21-2.89-4.38-5.32.53.46,4.63Zm1.07-9,.27,2.68,6.25-.63q1.74-.17,1.67-.88l-.13-1.27q-.07-.71-1.81-.53Z"/><path class="cls-10" d="M1139.31,814l1.94-.36,1.92,10.25-1.94.36Z"/><path class="cls-10" d="M1144,813.21l12.29-3.4.41,1.48-5.12,1.42,2.37,8.56-1.9.52-2.37-8.56-5.27,1.46Z"/><path class="cls-10" d="M1166.53,812.41l-8.58-3.08,2.32-1,6.61,2.38,2.88-6.4,2.29-1-3.7,8.29,1.65,3.9-1.82.77Z"/><path class="cls-10" d="M1052.23,589.19q3.13-2,4.34-.12l1,1.56q1.2,1.87-1.92,3.88l-7.49,4.81-.83-1.3,7.49-4.81q1.47-.94,1.1-1.52l-1-1.56q-.38-.6-1.85.35l-4.66,3q-3.13,2-4.34.12l-.62-1q-1.22-1.89,1.91-3.9l7.24-4.65.83,1.3-7.24,4.65q-1.47.94-1.09,1.54l.62,1q.38.6,1.85-.35Z"/><path class="cls-10" d="M1057.82,583.69q-1-2,2.41-3.62l5.42-2.54q3.36-1.58,4.32.46l2.53,5.39q.94,2-2.42,3.59l-5.42,2.54q-3.36,1.58-4.32-.46Zm11.6,1.88q1.58-.74,1.29-1.36l-2.53-5.39q-.3-.64-1.88.1l-5.42,2.54q-1.58.74-1.28,1.39l2.52,5.36q.3.64,1.88-.1Z"/><path class="cls-10" d="M1072.74,574.56l1.87-.62,2.77,8.44,8-2.64.48,1.46-9.9,3.25Z"/><path class="cls-10" d="M1111.24,576.87l-2.12.26-6.45-7.79-4.49,9.12-2.09.25,5.63-11.18,1.43-.17Z"/><path class="cls-10" d="M1113.37,576.86l.11-10.42,8.25.09q3.72,0,3.69,2.29v1.27q0,1.88-2.6,2.16l2.42,4.74-2.1,0-2.39-4.68-5.35-.06-.05,4.65Zm2.07-8.86,0,2.69,6.28.07q1.75,0,1.75-.69V568.8q0-.71-1.74-.73Z"/><path class="cls-10" d="M1129.88,566.8l1.81.28,4.83,9.35,7.38-7.48,1.67.26-1.58,10.3-1.87-.29,1.1-7.16-6.26,6.36-1.6-.24-4.09-7.94-1.1,7.14-1.87-.29Z"/><path class="cls-10" d="M1160.61,584.49l-2-.63-2.72-9.74-7.81,6.5-2-.62,9.69-7.92,1.37.42Z"/><path class="cls-10" d="M1167,575.86l8.26,3.84q3.91,1.82,2.71,4.39l-2,4.32q-1.19,2.55-5.09.73l-8.26-3.84Zm4.51,11.89q2.12,1,2.66-.17l2-4.32q.55-1.18-1.57-2.17l-6.47-3-3.1,6.66Z"/><path class="cls-10" d="M1189,599.91l-1.8-1.15,0-10.12-9.26,4.18-1.77-1.13,11.45-5.05,1.21.78Z"/><path class="cls-10" d="M1033.88,596.33l9.48,11.2-.89.75-9.48-11.2Z"/><path class="cls-10" d="M1030.57,599.21l9.85,10.87-.87.78L1029.7,600Z"/><path class="cls-10" d="M1027.35,602.2l10.21,10.54-.84.81L1026.51,603Z"/><path class="cls-10" d="M1024.24,605.29l10.56,10.18-.81.84-10.56-10.18Z"/><path class="cls-10" d="M1021.23,608.49l10.9,9.82-.78.87-10.9-9.82Z"/><path class="cls-10" d="M1018.33,611.79l11.23,9.45-.75.9-11.23-9.45Z"/><path class="cls-10" d="M1015.55,615.18l11.54,9.06-.72.92-11.54-9.06Z"/><path class="cls-10" d="M1012.88,618.67l11.84,8.67-.69.94-11.84-8.67Z"/><path class="cls-10" d="M1010.33,622.24l12.13,8.26-.66,1-12.13-8.26Z"/><path class="cls-10" d="M1007.91,625.9l12.4,7.85-.63,1-12.4-7.85Z"/><path class="cls-10" d="M1005.6,629.63l12.65,7.43-.59,1L1005,630.64Z"/><path class="cls-10" d="M1003.43,633.44l12.89,7-.56,1-12.89-7Z"/><path class="cls-10" d="M1001.38,637.32l13.12,6.57-.52,1-13.12-6.57Z"/><path class="cls-10" d="M999.47,641.27l13.33,6.12-.49,1.06L999,642.33Z"/><path class="cls-10" d="M997.68,645.28l13.53,5.68-.45,1.08-13.53-5.68Z"/><path class="cls-10" d="M996,649.34l13.71,5.22-.42,1.09-13.71-5.22Z"/><path class="cls-10" d="M994.53,653.46l13.88,4.76-.38,1.11-13.88-4.76Z"/><path class="cls-10" d="M993.16,657.63l14,4.29-.34,1.12-14-4.29Z"/><path class="cls-10" d="M991.92,661.84l14.17,3.82-.31,1.13L991.62,663Z"/><path class="cls-10" d="M990.83,666.09l14.29,3.35-.27,1.14-14.29-3.35Z"/><path class="cls-10" d="M989.88,670.37l14.39,2.87-.23,1.15-14.39-2.87Z"/><path class="cls-10" d="M989.08,674.68l14.48,2.38-.19,1.15-14.48-2.38Z"/><path class="cls-10" d="M988.42,679l14.55,1.9-.15,1.16-14.55-1.9Z"/><path class="cls-10" d="M987.9,683.38l14.61,1.41-.11,1.17-14.61-1.41Z"/><path class="cls-10" d="M987.54,687.75l14.64.91-.07,1.17-14.64-.92Z"/><path class="cls-10" d="M987.32,692.14l14.67.42,0,1.17-14.67-.42Z"/><path class="cls-10" d="M987.25,696.52l14.67-.07v1.17l-14.67.07Z"/><path class="cls-10" d="M987.32,700.91l14.66-.57,0,1.17-14.66.57Z"/><path class="cls-10" d="M987.55,705.3l14.63-1.06.08,1.17-14.63,1.06Z"/><path class="cls-10" d="M987.92,709.67l14.59-1.56.12,1.17L988,710.83Z"/><path class="cls-10" d="M988.44,714l14.53-2,.16,1.16-14.53,2Z"/><path class="cls-10" d="M989.1,718.37l14.45-2.54.21,1.15-14.45,2.54Z"/><path class="cls-10" d="M989.92,722.69l14.36-3,.24,1.14-14.36,3Z"/><path class="cls-10" d="M990.88,727l14.25-3.51.28,1.14-14.25,3.51Z"/><path class="cls-10" d="M992,731.22l14.12-4,.32,1.13-14.12,4Z"/><path class="cls-10" d="M993.22,735.43l14-4.47.36,1.11-14,4.47Z"/><path class="cls-10" d="M994.61,739.59l13.82-4.93.39,1.1L995,740.7Z"/><path class="cls-10" d="M996.14,743.7l13.65-5.39.43,1.09-13.65,5.39Z"/><path class="cls-10" d="M997.8,747.77l13.46-5.84.47,1.07-13.46,5.84Z"/><path class="cls-10" d="M999.59,751.77l13.26-6.28.5,1.06-13.26,6.28Z"/><path class="cls-10" d="M1001.52,755.71l13-6.74.54,1-13,6.74Z"/><path class="cls-10" d="M1003.57,759.57l12.82-7.15.57,1-12.82,7.15Z"/><path class="cls-10" d="M1005.75,763.38l12.57-7.57.6,1-12.57,7.57Z"/><path class="cls-10" d="M1008.06,767.11l12.31-8,.64,1-12.31,8Z"/><path class="cls-10" d="M1010.49,770.76l12-8.39.67,1-12,8.39Z"/><path class="cls-10" d="M1013,774.33l11.75-8.79.7.94-11.75,8.79Z"/><path class="cls-10" d="M1015.72,777.81l11.44-9.19.73.91-11.44,9.19Z"/><path class="cls-10" d="M1018.51,781.2l11.12-9.57.77.89-11.13,9.57Z"/><path class="cls-10" d="M1021.42,784.49l10.79-9.94.79.86-10.79,9.94Z"/><path class="cls-10" d="M1024.43,787.69l10.45-10.3.82.83-10.45,10.3Z"/><path class="cls-10" d="M1027.55,790.78l10.1-10.65.85.8-10.1,10.65Z"/><path class="cls-10" d="M1030.77,793.76l9.73-11,.88.78-9.73,11Z"/><path class="cls-10" d="M1034.1,796.63l9.35-11.3.9.75-9.35,11.3Z"/><path class="cls-10" d="M1037.51,799.38l9-11.61.93.71-9,11.61Z"/><path class="cls-10" d="M1041,802l8.57-11.91.95.69L1042,802.71Z"/><path class="cls-10" d="M1044.61,804.54l8.17-12.19,1,.65-8.17,12.19Z"/><path class="cls-10" d="M1048.29,806.94l7.75-12.46,1,.62-7.75,12.46Z"/><path class="cls-10" d="M1203.08,597.05l-9.48,11.2-.89-.75,9.48-11.2Z"/><path class="cls-10" d="M1206.37,600l-9.85,10.87-.87-.79,9.85-10.87Z"/><path class="cls-10" d="M1209.56,603l-10.21,10.54-.84-.81,10.21-10.54Z"/><path class="cls-10" d="M1212.64,606.1l-10.56,10.18-.81-.84,10.56-10.18Z"/><path class="cls-10" d="M1215.62,609.32l-10.9,9.82-.78-.87,10.9-9.82Z"/><path class="cls-10" d="M1218.49,612.65l-11.23,9.44-.75-.9,11.23-9.45Z"/><path class="cls-10" d="M1221.24,616.06l-11.54,9.06-.72-.92,11.54-9.06Z"/><path class="cls-10" d="M1223.88,619.57,1212,628.24l-.69-.94,11.84-8.67Z"/><path class="cls-10" d="M1226.39,623.17l-12.13,8.26-.66-1,12.13-8.26Z"/><path class="cls-10" d="M1228.79,626.85l-12.4,7.85-.63-1,12.4-7.85Z"/><path class="cls-10" d="M1231.06,630.61,1218.4,638l-.59-1,12.65-7.43Z"/><path class="cls-10" d="M1233.2,634.43l-12.89,7-.56-1,12.89-7Z"/><path class="cls-10" d="M1235.21,638.33l-13.12,6.57-.52-1,13.12-6.57Z"/><path class="cls-10" d="M1237.09,642.3l-13.33,6.12-.49-1.06,13.33-6.13Z"/><path class="cls-10" d="M1238.84,646.32,1225.3,652l-.45-1.08,13.53-5.68Z"/><path class="cls-10" d="M1240.45,650.4l-13.71,5.22-.42-1.09,13.71-5.22Z"/><path class="cls-10" d="M1241.92,654.53,1228,659.29l-.38-1.11,13.88-4.76Z"/><path class="cls-10" d="M1243.25,658.71l-14,4.29-.34-1.12,14-4.29Z"/><path class="cls-10" d="M1244.45,662.93l-14.17,3.82-.3-1.13,14.17-3.82Z"/><path class="cls-10" d="M1245.5,667.19l-14.29,3.35-.27-1.14,14.29-3.35Z"/><path class="cls-10" d="M1246.41,671.48,1232,674.35l-.23-1.15,14.39-2.87Z"/><path class="cls-10" d="M1247.18,675.8l-14.48,2.38-.19-1.15,14.48-2.38Z"/><path class="cls-10" d="M1247.8,680.15l-14.55,1.9-.15-1.16,14.55-1.9Z"/><path class="cls-10" d="M1248.27,684.51l-14.61,1.41-.11-1.17,14.61-1.41Z"/><path class="cls-10" d="M1248.6,688.88l-14.64.92-.07-1.17,14.64-.92Z"/><path class="cls-10" d="M1248.78,693.27l-14.67.42,0-1.17,14.67-.42Z"/><path class="cls-10" d="M1248.82,697.66l-14.67-.07v-1.17l14.67.07Z"/><path class="cls-10" d="M1248.7,702l-14.66-.57,0-1.17,14.66.57Z"/><path class="cls-10" d="M1248.44,706.43l-14.63-1.06.08-1.17,14.64,1.06Z"/><path class="cls-10" d="M1248,710.8l-14.59-1.56.12-1.17,14.59,1.56Z"/><path class="cls-10" d="M1247.47,715.15l-14.53-2,.16-1.16,14.53,2Z"/><path class="cls-10" d="M1246.76,719.49,1232.31,717l.21-1.15,14.45,2.54Z"/><path class="cls-10" d="M1245.91,723.79l-14.36-3,.24-1.14,14.36,3Z"/><path class="cls-10" d="M1244.91,728.07l-14.25-3.51.28-1.14,14.25,3.51Z"/><path class="cls-10" d="M1243.77,732.31l-14.12-4,.32-1.13,14.12,4Z"/><path class="cls-10" d="M1242.49,736.51l-14-4.46.36-1.11,14,4.46Z"/><path class="cls-10" d="M1241.06,740.66l-13.82-4.93.39-1.1,13.82,4.93Z"/><path class="cls-10" d="M1239.5,744.76l-13.65-5.39.43-1.09,13.65,5.39Z"/><path class="cls-10" d="M1237.81,748.8,1224.35,743l.47-1.07,13.46,5.84Z"/><path class="cls-10" d="M1236,752.79l-13.26-6.28.5-1.06,13.26,6.29Z"/><path class="cls-10" d="M1234,756.72,1221,750l.54-1,13,6.74Z"/><path class="cls-10" d="M1231.93,760.56l-12.82-7.15.57-1,12.82,7.15Z"/><path class="cls-10" d="M1229.71,764.34l-12.57-7.57.6-1,12.57,7.57Z"/><path class="cls-10" d="M1227.37,768.06l-12.31-8,.64-1,12.31,8Z"/><path class="cls-10" d="M1224.91,771.68l-12-8.39.67-1,12,8.39Z"/><path class="cls-10" d="M1222.32,775.23l-11.75-8.79.7-.94L1223,774.3Z"/><path class="cls-10" d="M1219.61,778.69l-11.44-9.19.73-.91,11.44,9.19Z"/><path class="cls-10" d="M1216.79,782.05l-11.12-9.57.76-.89,11.12,9.57Z"/><path class="cls-10" d="M1213.86,785.32l-10.8-9.94.79-.86,10.79,9.94Z"/><path class="cls-10" d="M1210.82,788.48l-10.45-10.3.82-.83,10.45,10.3Z"/><path class="cls-10" d="M1207.67,791.54l-10.1-10.65.85-.8,10.1,10.65Z"/><path class="cls-10" d="M1204.42,794.5l-9.73-11,.88-.78,9.73,11Z"/><path class="cls-10" d="M1201.07,797.34l-9.35-11.3.9-.75,9.35,11.3Z"/><path class="cls-10" d="M1197.63,800.06l-9-11.61.93-.71,9,11.61Z"/><path class="cls-10" d="M1194.1,802.67l-8.57-11.91.95-.69L1195,802Z"/><path class="cls-10" d="M1190.49,805.16,1182.32,793l1-.65,8.17,12.19Z"/><path class="cls-10" d="M1186.79,807.52,1179,795.06l1-.62,7.75,12.46Z"/><path id="Outer" class="cls-10" d="M1117.8,620.24l-73.71,26.84,19.76,90,54,42.94,55.09-42.94,19.52-89.53ZM1164.33,730l-46.53,36.21L1072.37,730l-16.66-75.91,62.09-22.54,63,23Z"/><path id="Star" class="cls-10" d="M1117.8,631.51l-10.22,51.95-43.17,10.22,43.17,10.22,10.22,62.37L1128,703.89l44.21-10.21-44.19-10.28Z"/><path class="cls-10" d="M1107.57,669.7l-3,10.75-10.75,3-11.2-25Z"/><path class="cls-10" d="M1153,658.49l-11.2,25-10.75-3-3-10.75Z"/><path class="cls-10" d="M1082.62,728.86l11.2-25,10.75,3,2.08,10.75Z"/><path class="cls-10" d="M1129,717.65,1131,706.9l10.75-3,11.2,25Z"/><path id="Star-2" class="cls-10" d="M1107.77,683.58l-43.36,10.1"/><line class="cls-1" x1="1095.64" y1="671.45" x2="1107.77" y2="683.58"/></g><g id="Science-2" data-name="Science"><circle class="cls-21" cx="803.74" cy="698.89" r="150"/><circle class="cls-22" cx="803.75" cy="698.95" r="144.17"/><circle class="cls-23" cx="803.75" cy="698.77" r="138.17" transform="translate(-98.92 133.55) rotate(-8.95)"/><circle class="cls-10" cx="803.74" cy="698.78" r="113.66"/><circle class="cls-24" cx="803.33" cy="699.49" r="107.73" transform="translate(-111.84 154.43) rotate(-10.27)"/><path class="cls-10" d="M738,591.65q3.13-2,4.34-.12l1,1.56q1.2,1.87-1.92,3.88l-7.49,4.81-.83-1.3,7.49-4.81q1.47-.94,1.1-1.52l-1-1.56q-.38-.6-1.85.35l-4.66,3q-3.13,2-4.34.12l-.62-1q-1.22-1.89,1.91-3.9l7.24-4.65.83,1.3L732,592.49q-1.47.95-1.09,1.54l.62,1q.38.6,1.85-.35Z"/><path class="cls-10" d="M743.61,586.15q-1-2,2.41-3.62l5.42-2.54q3.36-1.58,4.32.46l2.53,5.39q.94,2-2.42,3.59L750.44,592q-3.36,1.58-4.32-.46Zm11.6,1.88q1.58-.74,1.29-1.36L754,581.28q-.3-.64-1.88.1l-5.42,2.54q-1.58.74-1.28,1.39l2.52,5.36q.3.64,1.88-.1Z"/><path class="cls-10" d="M758.53,577l1.87-.62,2.77,8.44,8-2.64.48,1.46-9.9,3.25Z"/><path class="cls-10" d="M797,579.33l-2.12.26-6.45-7.79L784,580.91l-2.09.25L787.51,570l1.43-.17Z"/><path class="cls-10" d="M799.15,579.33l.11-10.42,8.25.09q3.72,0,3.69,2.29v1.27q0,1.88-2.6,2.16l2.42,4.74-2.1,0-2.39-4.68-5.35-.06-.05,4.65Zm2.07-8.86,0,2.69,6.28.07q1.75,0,1.75-.69v-1.27q0-.71-1.74-.73Z"/><path class="cls-10" d="M815.66,569.26l1.81.28,4.83,9.35,7.38-7.48,1.67.26L829.78,582l-1.87-.29,1.1-7.16-6.26,6.36-1.6-.24-4.09-7.94-1.1,7.14-1.87-.29Z"/><path class="cls-10" d="M846.39,587l-2-.63-2.72-9.74-7.81,6.5-2-.62,9.69-7.92,1.37.42Z"/><path class="cls-10" d="M852.74,578.32l8.26,3.84q3.91,1.82,2.71,4.39l-2,4.32q-1.19,2.55-5.09.73l-8.26-3.84Zm4.51,11.89q2.12,1,2.66-.17l2-4.32q.55-1.18-1.57-2.17l-6.47-3-3.1,6.66Z"/><path class="cls-10" d="M874.83,602.37l-1.8-1.15,0-10.12-9.26,4.18L862,594.16l11.45-5.05,1.21.78Z"/><path class="cls-10" d="M767.67,817q3.52,1.18,2.81,3.31l-.59,1.75q-.7,2.11-4.23.93l-8.44-2.82.49-1.46,8.44,2.82q1.66.55,1.87-.09l.59-1.75q.23-.67-1.43-1.23l-5.25-1.76q-3.52-1.18-2.81-3.31l.36-1.08q.71-2.13,4.24-1l8.16,2.73-.49,1.46-8.16-2.73q-1.66-.55-1.88.12L761,814q-.23.67,1.43,1.23Z"/><path class="cls-10" d="M785.25,826l-.3,1.51-7.8-1.53q-3.65-.71-3.19-3.07l1.08-5.52q.46-2.35,4.11-1.64l7.8,1.53-.3,1.51-7.8-1.53q-1.71-.34-1.88.51l-1.08,5.53q-.17.84,1.55,1.18Z"/><path class="cls-10" d="M790.13,817.51l2,.21L791,828.08l-2-.21Z"/><path class="cls-10" d="M797.28,823.86l-.09,3.2,8.75.24,0,1.54-10.72-.29.28-10.42,10.72.29,0,1.54-8.75-.24-.07,2.6,8.3.23,0,1.54Z"/><path class="cls-10" d="M811.08,820.7l.79,7.9-1.86.19-1-10.37,1.55-.15,11.12,6.92-.79-8,1.86-.19,1,10.37-1.55.15Z"/><path class="cls-10" d="M839.31,822.38l.35,1.5-7.74,1.83q-3.62.86-4.17-1.48l-1.3-5.47q-.55-2.33,3.06-3.19l7.74-1.83.35,1.5-7.74,1.83q-1.7.4-1.5,1.24l1.3,5.48q.2.84,1.9.43Z"/><path class="cls-10" d="M844.09,817.45l1.1,3,8.22-3,.53,1.45-10.06,3.69-3.59-9.79,10.06-3.69.53,1.45-8.22,3,.9,2.45,7.8-2.86.53,1.45Z"/><path class="cls-10" d="M719.67,598.79l9.48,11.2-.89.75-9.48-11.2Z"/><path class="cls-10" d="M716.35,601.67l9.85,10.87-.87.78-9.85-10.87Z"/><path class="cls-10" d="M713.13,604.66l10.21,10.54-.84.81-10.21-10.54Z"/><path class="cls-10" d="M710,607.75l10.56,10.18-.81.84L709.21,608.6Z"/><path class="cls-10" d="M707,611l10.9,9.82-.78.87-10.9-9.82Z"/><path class="cls-10" d="M704.12,614.25l11.23,9.45-.75.9-11.23-9.45Z"/><path class="cls-10" d="M701.33,617.64l11.54,9.06-.72.92-11.54-9.06Z"/><path class="cls-10" d="M698.66,621.13l11.84,8.67-.69.94L698,622.07Z"/><path class="cls-10" d="M696.12,624.7,708.24,633l-.66,1-12.13-8.26Z"/><path class="cls-10" d="M693.69,628.36l12.4,7.85-.63,1-12.4-7.85Z"/><path class="cls-10" d="M691.39,632.09,704,639.52l-.59,1-12.65-7.43Z"/><path class="cls-10" d="M689.21,635.9l12.89,7-.56,1-12.89-7Z"/><path class="cls-10" d="M687.16,639.79l13.12,6.57-.52,1-13.12-6.57Z"/><path class="cls-10" d="M685.25,643.73l13.33,6.12-.49,1.06-13.33-6.12Z"/><path class="cls-10" d="M683.47,647.74,697,653.41l-.45,1.08L683,648.82Z"/><path class="cls-10" d="M681.82,651.81,695.53,657l-.42,1.09L681.4,652.9Z"/><path class="cls-10" d="M680.31,655.92l13.88,4.76-.38,1.11L679.93,657Z"/><path class="cls-10" d="M678.94,660.09l14,4.29-.34,1.12-14-4.29Z"/><path class="cls-10" d="M677.71,664.3l14.17,3.82-.31,1.13-14.17-3.82Z"/><path class="cls-10" d="M676.62,668.55l14.29,3.35-.27,1.14-14.29-3.35Z"/><path class="cls-10" d="M675.67,672.83l14.39,2.87-.23,1.15L675.44,674Z"/><path class="cls-10" d="M674.86,677.14l14.48,2.38-.19,1.15-14.48-2.38Z"/><path class="cls-10" d="M674.2,681.48l14.55,1.9-.15,1.16-14.55-1.9Z"/><path class="cls-10" d="M673.69,685.84l14.61,1.41-.11,1.17L673.58,687Z"/><path class="cls-10" d="M673.32,690.21l14.64.91-.07,1.17-14.64-.92Z"/><path class="cls-10" d="M673.1,694.6l14.67.42,0,1.17-14.67-.42Z"/><path class="cls-10" d="M673,699l14.67-.07v1.17l-14.67.07Z"/><path class="cls-10" d="M673.1,703.37l14.66-.57,0,1.17-14.66.57Z"/><path class="cls-10" d="M673.33,707.76,688,706.7l.08,1.17-14.63,1.06Z"/><path class="cls-10" d="M673.7,712.13l14.59-1.56.12,1.17-14.59,1.55Z"/><path class="cls-10" d="M674.22,716.49l14.53-2,.16,1.16-14.53,2Z"/><path class="cls-10" d="M674.89,720.83l14.45-2.54.21,1.15L675.09,722Z"/><path class="cls-10" d="M675.7,725.15l14.36-3,.24,1.14-14.36,3Z"/><path class="cls-10" d="M676.66,729.43l14.25-3.51.28,1.14-14.25,3.51Z"/><path class="cls-10" d="M677.76,733.68l14.12-4,.32,1.13-14.12,4Z"/><path class="cls-10" d="M679,737.89l14-4.47.36,1.11-14,4.47Z"/><path class="cls-10" d="M680.39,742.05l13.82-4.93.39,1.1-13.82,4.93Z"/><path class="cls-10" d="M681.92,746.17l13.65-5.39.43,1.09-13.65,5.39Z"/><path class="cls-10" d="M683.58,750.23,697,744.38l.47,1.07L684,751.3Z"/><path class="cls-10" d="M685.37,754.23l13.26-6.28.5,1.06-13.26,6.28Z"/><path class="cls-10" d="M687.3,758.18l13-6.74.54,1-13,6.74Z"/><path class="cls-10" d="M689.35,762l12.82-7.15.57,1-12.82,7.15Z"/><path class="cls-10" d="M691.54,765.84l12.57-7.57.6,1-12.57,7.57Z"/><path class="cls-10" d="M693.84,769.57l12.31-8,.64,1-12.31,8Z"/><path class="cls-10" d="M696.28,773.22l12-8.39.67,1-12,8.39Z"/><path class="cls-10" d="M698.83,776.79,710.58,768l.7.94-11.75,8.79Z"/><path class="cls-10" d="M701.51,780.27l11.44-9.19.73.91-11.44,9.19Z"/><path class="cls-10" d="M704.3,783.66l11.12-9.57.77.89-11.13,9.57Z"/><path class="cls-10" d="M707.2,787,718,777l.79.86L708,787.82Z"/><path class="cls-10" d="M710.21,790.15l10.45-10.3.82.83L711,791Z"/><path class="cls-10" d="M713.33,793.24l10.1-10.65.85.8L714.18,794Z"/><path class="cls-10" d="M716.56,796.22l9.73-11,.88.78-9.73,11Z"/><path class="cls-10" d="M719.88,799.09l9.35-11.3.9.75-9.35,11.3Z"/><path class="cls-10" d="M723.29,801.85l9-11.61.93.71-9,11.61Z"/><path class="cls-10" d="M726.8,804.49l8.57-11.91.95.69-8.57,11.91Z"/><path class="cls-10" d="M730.39,807l8.17-12.19,1,.65-8.17,12.19Z"/><path class="cls-10" d="M734.07,809.4l7.75-12.46,1,.62L735.06,810Z"/><path class="cls-10" d="M737.82,811.67,745.15,799l1,.58-7.33,12.71Z"/><path class="cls-10" d="M741.65,813.82l6.9-13,1,.55-6.9,13Z"/><path class="cls-10" d="M745.55,815.83,752,802.66l1.05.51-6.46,13.17Z"/><path class="cls-10" d="M888.86,599.51l-9.48,11.2-.89-.75,9.48-11.2Z"/><path class="cls-10" d="M892.15,602.42l-9.85,10.87-.87-.79,9.85-10.87Z"/><path class="cls-10" d="M895.34,605.43,885.13,616l-.84-.81,10.21-10.54Z"/><path class="cls-10" d="M898.43,608.56l-10.56,10.18-.81-.84,10.56-10.18Z"/><path class="cls-10" d="M901.4,611.78l-10.9,9.82-.78-.87,10.9-9.82Z"/><path class="cls-10" d="M904.27,615.11,893,624.55l-.75-.9,11.23-9.45Z"/><path class="cls-10" d="M907,618.53l-11.54,9.06-.72-.92,11.54-9.06Z"/><path class="cls-10" d="M909.66,622l-11.84,8.67-.69-.94L909,621.09Z"/><path class="cls-10" d="M912.18,625.63l-12.13,8.26-.66-1,12.13-8.26Z"/><path class="cls-10" d="M914.57,629.31l-12.4,7.85-.63-1,12.4-7.85Z"/><path class="cls-10" d="M916.84,633.07l-12.65,7.43-.59-1,12.65-7.43Z"/><path class="cls-10" d="M919,636.89l-12.89,7-.56-1,12.89-7Z"/><path class="cls-10" d="M921,640.79l-13.12,6.57-.52-1,13.12-6.57Z"/><path class="cls-10" d="M922.87,644.76l-13.33,6.12-.49-1.06,13.33-6.13Z"/><path class="cls-10" d="M924.62,648.78l-13.53,5.68-.45-1.08,13.53-5.68Z"/><path class="cls-10" d="M926.23,652.86l-13.71,5.22L912.1,657l13.71-5.22Z"/><path class="cls-10" d="M927.7,657l-13.88,4.76-.38-1.11,13.88-4.76Z"/><path class="cls-10" d="M929,661.17l-14,4.29-.34-1.12,14-4.29Z"/><path class="cls-10" d="M930.23,665.39l-14.17,3.82-.3-1.13,14.17-3.82Z"/><path class="cls-10" d="M931.29,669.65,917,673l-.27-1.14L931,668.51Z"/><path class="cls-10" d="M932.19,673.94l-14.39,2.87-.23-1.15L932,672.8Z"/><path class="cls-10" d="M933,678.26l-14.48,2.38-.19-1.15,14.48-2.38Z"/><path class="cls-10" d="M933.58,682.61,919,684.5l-.15-1.16,14.55-1.9Z"/><path class="cls-10" d="M934.06,687l-14.61,1.41-.11-1.17,14.61-1.41Z"/><path class="cls-10" d="M934.38,691.35l-14.64.92-.07-1.17,14.64-.92Z"/><path class="cls-10" d="M934.57,695.73l-14.67.42,0-1.17,14.67-.42Z"/><path class="cls-10" d="M934.6,700.12l-14.67-.07v-1.17l14.67.07Z"/><path class="cls-10" d="M934.48,704.51l-14.66-.57,0-1.17,14.66.57Z"/><path class="cls-10" d="M934.22,708.89l-14.63-1.06.08-1.17,14.64,1.06Z"/><path class="cls-10" d="M933.81,713.26l-14.59-1.56.12-1.17,14.59,1.56Z"/><path class="cls-10" d="M933.25,717.62l-14.53-2,.16-1.16,14.53,2Z"/><path class="cls-10" d="M932.54,721.95l-14.45-2.54.21-1.15,14.45,2.54Z"/><path class="cls-10" d="M931.69,726.26l-14.36-3,.24-1.14,14.36,3Z"/><path class="cls-10" d="M930.7,730.53,916.45,727l.28-1.14L931,729.4Z"/><path class="cls-10" d="M929.55,734.77l-14.12-4,.32-1.13,14.12,4Z"/><path class="cls-10" d="M928.27,739l-14-4.46.36-1.11,14,4.46Z"/><path class="cls-10" d="M926.85,743.12,913,738.19l.39-1.1L927.24,742Z"/><path class="cls-10" d="M925.29,747.22l-13.65-5.39.43-1.09,13.65,5.39Z"/><path class="cls-10" d="M923.59,751.26l-13.46-5.84.47-1.07,13.46,5.84Z"/><path class="cls-10" d="M921.76,755.25,908.5,749l.5-1.06,13.26,6.29Z"/><path class="cls-10" d="M919.79,759.18l-13-6.74.54-1,13,6.74Z"/><path class="cls-10" d="M917.71,763l-12.82-7.15.57-1L918.28,762Z"/><path class="cls-10" d="M915.5,766.81l-12.57-7.57.6-1,12.57,7.57Z"/><path class="cls-10" d="M913.15,770.52l-12.31-8,.64-1,12.31,8Z"/><path class="cls-10" d="M910.69,774.15l-12-8.39.67-1,12,8.39Z"/><path class="cls-10" d="M908.1,777.69l-11.75-8.79.7-.94,11.75,8.79Z"/><path class="cls-10" d="M905.4,781.15,894,772l.73-.91,11.44,9.19Z"/><path class="cls-10" d="M902.58,784.51l-11.12-9.57.76-.89,11.12,9.57Z"/><path class="cls-10" d="M899.64,787.78l-10.8-9.94.79-.86,10.79,9.94Z"/><path class="cls-10" d="M896.6,790.95l-10.45-10.3.82-.83,10.45,10.3Z"/><path class="cls-10" d="M893.45,794l-10.1-10.65.85-.8,10.1,10.65Z"/><path class="cls-10" d="M890.2,797l-9.73-11,.88-.78,9.73,11Z"/><path class="cls-10" d="M886.85,799.8l-9.35-11.3.9-.75,9.35,11.3Z"/><path class="cls-10" d="M883.42,802.53l-9-11.61.93-.71,9,11.61Z"/><path class="cls-10" d="M879.88,805.13l-8.57-11.91.95-.69,8.57,11.91Z"/><path class="cls-10" d="M876.27,807.62l-8.17-12.19,1-.65L877.24,807Z"/><path class="cls-10" d="M872.57,810l-7.75-12.46,1-.62,7.75,12.46Z"/><path class="cls-10" d="M868.8,812.22l-7.33-12.71,1-.58,7.33,12.71Z"/><path class="cls-10" d="M865,814.33l-6.9-12.95,1-.55,6.9,13Z"/><g id="Symbol"><rect class="cls-10" x="796.4" y="680.7" width="14.49" height="36.48"/><rect class="cls-10" x="785.41" y="691.7" width="36.48" height="14.49"/><path class="cls-10" d="M803.66,762.74A63.79,63.79,0,1,1,867.45,699,63.79,63.79,0,0,1,803.66,762.74Zm.28-134.61a70.7,70.7,0,1,0,70.7,70.7A70.7,70.7,0,0,0,803.93,628.13Z"/><polygon class="cls-10" points="815.39 635.16 792.47 635.16 794.32 616.15 813.41 616.15 815.39 635.16"/><polygon class="cls-10" points="781.92 637.82 762.07 649.28 754.16 631.89 770.7 622.35 781.92 637.82"/><polygon class="cls-10" points="754.26 656.86 742.8 676.71 727.26 665.61 736.81 649.07 754.26 656.86"/><polygon class="cls-10" points="739.83 687.18 739.83 710.1 720.82 708.25 720.82 689.16 739.83 687.18"/><polygon class="cls-10" points="742.5 720.65 753.96 740.5 736.57 748.41 727.02 731.87 742.5 720.65"/><polygon class="cls-10" points="761.54 748.31 781.39 759.77 770.28 775.31 753.74 765.77 761.54 748.31"/><polygon class="cls-10" points="791.85 762.74 814.78 762.74 812.93 781.75 793.83 781.75 791.85 762.74"/><polygon class="cls-10" points="825.33 760.08 845.18 748.62 853.08 766.01 836.55 775.56 825.33 760.08"/><polygon class="cls-10" points="852.98 741.04 864.45 721.19 879.99 732.29 870.44 748.83 852.98 741.04"/><polygon class="cls-10" points="867.42 710.72 867.42 687.8 886.43 689.65 886.43 708.74 867.42 710.72"/><polygon class="cls-10" points="864.75 677.25 853.29 657.4 870.68 649.49 880.23 666.03 864.75 677.25"/><polygon class="cls-10" points="845.71 649.59 825.86 638.13 836.97 622.59 853.5 632.13 845.71 649.59"/><path class="cls-10" d="M857.6,699a10.52,10.52,0,0,1-.68,3.71,14.43,14.43,0,0,1-2,3.53,25.85,25.85,0,0,1-7.25,6.3c-7.66,4.75-16.71,7.18-25.53,8.62a117.86,117.86,0,0,1-33.38.54c-9.22-1.15-18.65-3.38-26.89-7.79-5.22-2.79-11-7.06-12.13-13.19a11.06,11.06,0,0,1,0-3.62,11.69,11.69,0,0,1,1.3-3.55,21.05,21.05,0,0,1,6.24-6.65c7-5.06,15.65-7.73,24-9.4a116.17,116.17,0,0,1,33.13-1.62c9.61.87,19.41,2.83,28.21,6.91a38.12,38.12,0,0,1,9.26,5.8,17.1,17.1,0,0,1,5,6.83,10.41,10.41,0,0,1,.63,3.58.82.82,0,0,0,1.65,0c0-6.53-5.23-11.51-10.37-14.76a55.09,55.09,0,0,0-11.57-5.38,88.9,88.9,0,0,0-14.67-3.61,119.2,119.2,0,0,0-34.18-.55c-9.52,1.22-19.23,3.52-27.71,8.16-5.42,3-11.45,7.57-12.54,14.07s3.13,11.7,8,15.31a46.82,46.82,0,0,0,10.66,5.75,80.54,80.54,0,0,0,14,4.07,117.61,117.61,0,0,0,33.93,1.7c9.95-.91,20-3,29.11-7.24,5.93-2.79,12.49-7,14.75-13.53a12.35,12.35,0,0,0,.67-4A.82.82,0,0,0,857.6,699Z"/><path class="cls-10" d="M833.05,744.18a9.93,9.93,0,0,1-3.31,1.42q-.45.11-.91.19l-.26,0-.11,0h0l-.49.05a15.67,15.67,0,0,1-2,.05,24.72,24.72,0,0,1-8.82-2.26,51.7,51.7,0,0,1-10-6,83.52,83.52,0,0,1-10.28-9.25,110.87,110.87,0,0,1-9.9-12,122.08,122.08,0,0,1-9.11-14.85,100.4,100.4,0,0,1-6.31-14.86,66.42,66.42,0,0,1-3.05-13.42,33.71,33.71,0,0,1,.36-11,17.26,17.26,0,0,1,1.5-4.23,11.45,11.45,0,0,1,2.38-3.21,10.81,10.81,0,0,1,3.08-2l.34-.14.48-.17q.44-.14.89-.25t1-.19l.22,0h.08l.53-.06a15.79,15.79,0,0,1,2,0,17.57,17.57,0,0,1,2,.19,25.63,25.63,0,0,1,4.54,1.18,43.38,43.38,0,0,1,9.71,5.1,75.45,75.45,0,0,1,10.27,8.49,105.35,105.35,0,0,1,10.05,11.37,122.71,122.71,0,0,1,9.45,14.3,107.11,107.11,0,0,1,7.08,15,76.28,76.28,0,0,1,3.89,14,40.75,40.75,0,0,1,.46,11.69,17.59,17.59,0,0,1-3,8.36l-.07.1,0,0-.15.19-.31.36q-.33.37-.69.71a8.82,8.82,0,0,1-1.44,1.14c-.88.58-.06,2,.83,1.42a14,14,0,0,0,5.33-7,28,28,0,0,0,1.41-10.62,58.54,58.54,0,0,0-2.19-13.36,94.6,94.6,0,0,0-5.63-15A121.81,121.81,0,0,0,814,670.89a91.93,91.93,0,0,0-10.52-10.17,59.6,59.6,0,0,0-10.43-7,30.65,30.65,0,0,0-9.61-3.28,15.45,15.45,0,0,0-8.39.93,12.64,12.64,0,0,0-6,5.78,23.3,23.3,0,0,0-2.35,9.92A50,50,0,0,0,768,679.86a86.09,86.09,0,0,0,4.84,14.79,114.93,114.93,0,0,0,8.1,15.6A122.45,122.45,0,0,0,790.8,724a99.29,99.29,0,0,0,10.46,10.9,68.08,68.08,0,0,0,10.53,7.81,36.8,36.8,0,0,0,9.88,4.22,17.84,17.84,0,0,0,8.69.16,12.3,12.3,0,0,0,3.52-1.54C834.77,745,833.95,743.6,833.05,744.18Z"/><path class="cls-10" d="M833,653.67a8.88,8.88,0,0,1,1.47,1.17,11.83,11.83,0,0,1,1.29,1.46A14.4,14.4,0,0,1,837.7,660a27.27,27.27,0,0,1,1.24,10.29,57.69,57.69,0,0,1-2.22,12.93,93,93,0,0,1-5.54,14.69,119.49,119.49,0,0,1-8.61,15.18,115.54,115.54,0,0,1-9.75,12.7,92.32,92.32,0,0,1-10.26,10,58.59,58.59,0,0,1-10.05,6.79,29.86,29.86,0,0,1-9.25,3.24l-.37.05-.54.06q-.53.05-1.06.07a15.59,15.59,0,0,1-2-.06,7.13,7.13,0,0,1-.8-.11q-.48-.08-.95-.2t-.92-.27l-.41-.15-.21-.08-.11,0a11.05,11.05,0,0,1-5.5-5.36,13.72,13.72,0,0,1-.82-1.94,20.66,20.66,0,0,1-.64-2.28,26.83,26.83,0,0,1-.6-5.12A49.36,49.36,0,0,1,769.68,718a85.08,85.08,0,0,1,4.75-14.38,115.07,115.07,0,0,1,7.94-15.24A119.31,119.31,0,0,1,792,674.94a99.51,99.51,0,0,1,10.2-10.67,66.44,66.44,0,0,1,10.2-7.63,35.56,35.56,0,0,1,9.46-4.12,18.44,18.44,0,0,1,4.22-.62,15.51,15.51,0,0,1,2,.07l.38,0,.19,0,.26,0q.46.08.91.2t.88.26l.41.15.24.09.07,0a11.64,11.64,0,0,1,1.6.86c.89.57,1.72-.85.83-1.42a13.59,13.59,0,0,0-7.78-2,26,26,0,0,0-9.44,2.35,51,51,0,0,0-10.21,6.08,85.52,85.52,0,0,0-10.61,9.49,114.46,114.46,0,0,0-10.24,12.46,122,122,0,0,0-9.25,15.16,102.53,102.53,0,0,0-6.42,15.31,67.44,67.44,0,0,0-3,13.88,34.12,34.12,0,0,0,.54,11.39,15.8,15.8,0,0,0,4.33,8,12.7,12.7,0,0,0,7.47,3.25,21.24,21.24,0,0,0,9-1.32A44.38,44.38,0,0,0,798.31,741a77.46,77.46,0,0,0,10.64-8.76,107.9,107.9,0,0,0,10.35-11.74,122.69,122.69,0,0,0,9.6-14.6,109.28,109.28,0,0,0,7.21-15.51A75.27,75.27,0,0,0,840,676.17a41.53,41.53,0,0,0,.34-12.19,18.55,18.55,0,0,0-3.34-8.81,12.65,12.65,0,0,0-3.13-2.92C832.95,651.67,832.12,653.1,833,653.67Z"/><circle class="cls-10" cx="839.84" cy="671.14" r="4.4"/><circle class="cls-10" cx="815.24" cy="743.9" r="4.4"/><circle class="cls-10" cx="751.51" cy="691.38" r="4.4"/></g></g></g></svg>