<?xml version="1.0" standalone="no"?>
<!DOCTYPE svg PUBLIC "-//W3C//DTD SVG 20010904//EN"
 "http://www.w3.org/TR/2001/REC-SVG-20010904/DTD/svg10.dtd">
<svg version="1.0" xmlns="http://www.w3.org/2000/svg"
 width="4375.000000pt" height="4375.000000pt" viewBox="0 0 4375.000000 4375.000000"
 preserveAspectRatio="xMidYMid meet">
<metadata>
Created by potrace 1.11, written by Peter Selinger 2001-2013
</metadata>
<g transform="translate(0.000000,4375.000000) scale(0.100000,-0.100000)"
fill="#000000" stroke="none">
<path d="M21869 43737 c-1 -9 -2 -20 -3 -24 -1 -5 -6 -51 -10 -103 -4 -52 -10
-108 -12 -125 -2 -16 -6 -59 -8 -95 -3 -36 -8 -85 -11 -110 -2 -25 -7 -74 -10
-110 -3 -36 -7 -85 -10 -110 -5 -51 -10 -102 -25 -275 -12 -140 -19 -206 -25
-255 -2 -19 -7 -71 -10 -115 -3 -44 -8 -98 -10 -120 -2 -22 -9 -92 -15 -155
-6 -63 -12 -135 -15 -160 -2 -25 -13 -146 -25 -270 -11 -124 -22 -245 -25
-270 -2 -25 -7 -74 -10 -110 -3 -36 -7 -85 -10 -110 -6 -65 -13 -145 -20 -225
-3 -38 -8 -86 -10 -105 -3 -19 -7 -64 -10 -100 -3 -36 -12 -136 -21 -222 -8
-87 -12 -162 -9 -168 3 -5 1 -10 -5 -10 -6 0 -9 -3 -6 -8 2 -4 1 -41 -4 -82
-4 -41 -11 -111 -15 -155 -3 -44 -8 -96 -10 -115 -2 -19 -6 -69 -10 -110 -4
-41 -8 -91 -10 -110 -2 -19 -6 -66 -10 -105 -3 -38 -8 -86 -10 -105 -3 -19 -7
-71 -10 -115 -4 -44 -8 -91 -10 -105 -2 -14 -6 -59 -10 -100 -3 -41 -8 -95
-10 -120 -6 -58 -13 -129 -20 -210 -3 -36 -8 -81 -10 -100 -2 -19 -7 -69 -10
-110 -3 -41 -8 -95 -10 -120 -12 -120 -15 -150 -20 -210 -12 -144 -16 -187
-20 -220 -3 -19 -7 -66 -10 -105 -3 -38 -7 -90 -10 -115 -2 -25 -7 -72 -10
-105 -3 -33 -7 -78 -9 -100 -3 -22 -7 -74 -11 -115 -3 -41 -8 -91 -10 -110 -2
-19 -7 -69 -10 -110 -3 -41 -8 -91 -10 -110 -2 -19 -14 -136 -25 -260 -22
-252 -28 -315 -35 -380 -5 -48 -11 -111 -20 -225 -3 -38 -8 -86 -10 -105 -2
-19 -7 -66 -10 -105 -3 -38 -8 -90 -10 -115 -3 -25 -7 -72 -10 -105 -3 -33 -8
-80 -10 -105 -2 -25 -7 -76 -10 -115 -4 -38 -8 -86 -10 -105 -2 -19 -7 -64
-10 -100 -7 -89 -25 -287 -30 -330 -7 -69 -15 -156 -20 -220 -5 -66 -13 -142
-20 -215 -2 -22 -7 -71 -10 -110 -3 -38 -8 -88 -10 -110 -6 -59 -54 -579 -61
-655 -2 -36 -7 -85 -10 -110 -2 -25 -6 -72 -9 -105 -3 -33 -7 -76 -9 -95 -3
-19 -8 -71 -11 -115 -4 -44 -8 -93 -10 -110 -2 -16 -7 -61 -10 -100 -9 -102
-15 -174 -20 -225 -2 -25 -7 -74 -10 -110 -3 -36 -8 -81 -10 -100 -2 -19 -7
-69 -10 -110 -3 -41 -8 -91 -10 -110 -4 -35 -9 -96 -20 -220 -3 -36 -8 -81
-10 -100 -2 -19 -7 -69 -10 -110 -3 -41 -8 -93 -10 -115 -2 -22 -7 -69 -10
-105 -3 -36 -7 -81 -10 -100 -2 -19 -7 -71 -10 -115 -3 -44 -8 -91 -10 -105
-2 -14 -7 -61 -10 -105 -3 -44 -8 -96 -10 -115 -2 -19 -6 -64 -9 -100 -6 -72
-24 -262 -31 -325 -2 -22 -7 -74 -10 -115 -3 -41 -8 -93 -10 -115 -4 -38 -20
-208 -30 -320 -3 -27 -7 -70 -10 -95 -3 -25 -7 -79 -10 -120 -3 -41 -8 -91
-10 -110 -2 -19 -7 -64 -9 -100 -3 -36 -8 -87 -11 -115 -10 -101 -15 -152 -20
-215 -3 -36 -8 -85 -10 -110 -4 -39 -45 -490 -60 -655 -3 -33 -8 -80 -10 -105
-3 -25 -8 -74 -11 -110 -3 -36 -7 -83 -9 -105 -2 -22 -6 -71 -10 -110 -3 -38
-8 -86 -10 -105 -2 -19 -7 -69 -10 -110 -3 -41 -8 -91 -10 -110 -5 -42 -23
-240 -30 -325 -2 -33 -6 -80 -9 -105 -3 -25 -7 -72 -10 -105 -3 -33 -11 -108
-17 -167 -6 -59 -12 -122 -13 -140 -2 -18 -4 -41 -5 -50 -1 -12 -25 -24 -88
-43 -187 -55 -494 -168 -683 -251 -115 -50 -462 -229 -570 -294 -58 -34 -176
-109 -263 -167 l-157 -104 -103 69 c-56 38 -178 121 -272 185 -93 63 -276 187
-405 274 -129 87 -237 160 -240 163 -3 3 -75 53 -160 110 -85 57 -191 128
-234 158 -43 30 -136 93 -205 140 -69 47 -186 126 -259 176 -73 50 -157 107
-187 126 -29 19 -120 81 -202 136 -298 204 -432 295 -633 430 -113 76 -207
141 -210 144 -5 5 -49 35 -82 55 -9 5 -207 140 -440 299 -232 158 -429 290
-436 293 -7 3 27 -53 74 -123 96 -142 596 -878 709 -1044 39 -58 119 -175 177
-260 222 -328 366 -540 461 -680 54 -80 142 -210 195 -290 53 -80 99 -147 103
-150 3 -3 66 -95 140 -205 73 -110 136 -202 139 -205 3 -3 10 -13 15 -22 6 -9
40 -61 77 -115 37 -54 108 -159 159 -233 50 -74 166 -245 257 -380 91 -135
184 -272 207 -304 l41 -59 -118 -178 c-65 -97 -118 -180 -118 -183 0 -3 -15
-29 -33 -58 -196 -308 -454 -904 -558 -1288 -16 -57 -20 -62 -61 -65 -29 -3
-100 -9 -223 -20 -22 -2 -67 -6 -100 -9 -33 -4 -85 -8 -115 -11 -91 -8 -173
-16 -210 -20 -19 -3 -64 -7 -100 -10 -222 -18 -302 -26 -340 -30 -19 -3 -64
-7 -100 -10 -67 -5 -144 -12 -215 -20 -22 -2 -71 -7 -110 -10 -69 -6 -127 -11
-215 -20 -25 -2 -79 -7 -120 -10 -41 -4 -86 -8 -100 -10 -14 -2 -61 -6 -105
-10 -44 -3 -98 -8 -120 -10 -113 -11 -156 -15 -220 -20 -38 -3 -86 -8 -105
-10 -19 -2 -66 -7 -105 -10 -38 -4 -86 -8 -105 -10 -19 -2 -71 -6 -115 -10
-44 -3 -93 -8 -110 -10 -45 -6 -132 -14 -205 -20 -36 -3 -90 -7 -120 -10 -91
-9 -162 -16 -210 -21 -25 -2 -74 -7 -110 -9 -36 -3 -83 -7 -105 -10 -22 -2
-71 -7 -110 -10 -38 -3 -90 -8 -115 -11 -25 -2 -74 -6 -110 -9 -36 -4 -85 -8
-110 -10 -25 -3 -74 -7 -110 -10 -36 -3 -85 -8 -110 -10 -97 -11 -128 -14
-210 -20 -47 -4 -94 -9 -105 -11 -19 -4 -289 -9 -927 -19 l-257 -4 17 29 c9
16 40 66 67 111 28 45 61 101 75 124 14 23 77 126 140 229 63 103 122 199 131
214 16 27 205 338 275 452 l34 54 473 3 c472 2 3132 12 3493 13 l192 0 47 123
c147 381 350 797 516 1062 119 190 283 426 484 697 19 26 31 49 27 52 -4 2
-1053 5 -2332 6 -1279 1 -2819 3 -3423 4 l-1098 1 -23 -30 c-12 -16 -72 -102
-131 -190 -60 -88 -113 -164 -117 -170 -5 -5 -61 -86 -125 -180 -152 -224
-246 -361 -318 -465 -64 -92 -173 -251 -253 -370 -28 -41 -55 -79 -60 -85 -4
-5 -34 -48 -65 -95 -32 -47 -113 -166 -181 -265 -69 -99 -172 -250 -231 -335
-58 -85 -151 -220 -206 -300 -55 -80 -108 -156 -117 -170 -89 -132 -597 -870
-610 -888 -19 -25 -27 -27 -148 -37 -45 -3 -95 -8 -110 -10 -16 -2 -68 -6
-115 -9 -47 -4 -95 -8 -105 -10 -10 -2 -59 -7 -109 -11 -49 -4 -103 -9 -120
-10 -54 -5 -169 -16 -215 -21 -43 -4 -62 -6 -215 -19 -38 -3 -83 -7 -100 -10
-16 -2 -66 -6 -110 -10 -44 -3 -96 -8 -115 -10 -19 -2 -69 -7 -110 -11 -41 -3
-88 -8 -105 -10 -16 -2 -66 -6 -110 -9 -44 -4 -93 -8 -110 -10 -27 -2 -112
-11 -215 -20 -19 -2 -66 -6 -105 -10 -38 -3 -86 -8 -105 -10 -19 -3 -64 -7
-100 -10 -96 -7 -157 -13 -230 -19 -60 -6 -90 -9 -210 -21 -25 -3 -79 -7 -120
-10 -41 -3 -86 -7 -100 -10 -14 -2 -65 -7 -115 -11 -49 -4 -99 -8 -110 -9 -11
-1 -56 -5 -100 -9 -44 -4 -96 -9 -115 -11 -19 -2 -66 -6 -105 -10 -38 -3 -88
-8 -110 -10 -22 -2 -69 -7 -105 -10 -36 -3 -85 -8 -110 -10 -25 -3 -74 -7
-110 -10 -36 -3 -81 -7 -100 -10 -19 -2 -71 -7 -115 -11 -44 -3 -93 -8 -110
-9 -16 -2 -68 -6 -114 -10 -47 -4 -92 -8 -100 -10 -9 -1 -52 -6 -96 -9 -75 -6
-99 -8 -222 -21 -27 -2 -79 -7 -118 -11 -38 -3 -86 -7 -105 -9 -19 -2 -71 -6
-115 -10 -44 -4 -91 -8 -105 -10 -14 -2 -63 -7 -110 -11 -47 -3 -96 -8 -110
-9 -14 -1 -59 -6 -100 -9 -41 -4 -93 -9 -115 -11 -22 -2 -69 -7 -105 -10 -36
-3 -83 -8 -105 -10 -22 -2 -78 -7 -125 -10 -47 -4 -92 -8 -100 -10 -8 -2 -58
-7 -110 -10 -52 -4 -104 -9 -115 -11 -11 -2 -54 -6 -95 -9 -41 -3 -91 -8 -110
-10 -19 -2 -69 -7 -110 -10 -41 -4 -86 -8 -100 -10 -14 -2 -68 -7 -120 -11
-52 -4 -99 -8 -105 -9 -5 -1 -28 -3 -50 -4 -70 -3 -17 -19 90 -26 120 -9 145
-11 210 -18 28 -4 82 -9 120 -12 39 -3 86 -8 105 -10 19 -2 71 -7 115 -10 44
-3 94 -8 110 -10 17 -2 62 -7 100 -10 39 -3 88 -8 110 -10 52 -5 133 -13 220
-20 39 -3 84 -8 100 -10 17 -2 66 -6 110 -10 44 -3 94 -8 110 -10 17 -2 67 -7
110 -10 44 -3 96 -8 115 -10 43 -5 192 -19 325 -30 39 -4 104 -10 145 -14 41
-5 82 -9 90 -9 8 0 42 -2 75 -5 33 -4 92 -9 130 -12 39 -4 81 -8 95 -10 14 -2
61 -7 105 -10 44 -3 96 -8 115 -10 19 -2 64 -7 100 -10 36 -3 85 -8 110 -10
60 -6 153 -14 220 -20 84 -7 182 -16 211 -20 14 -2 66 -6 115 -10 49 -4 97 -9
107 -11 11 -2 56 -6 100 -9 45 -4 96 -8 112 -10 30 -3 117 -11 230 -21 33 -2
76 -7 95 -9 19 -2 73 -7 120 -11 47 -3 92 -7 100 -9 8 -2 53 -6 100 -9 47 -4
103 -9 125 -11 22 -3 67 -7 100 -10 33 -3 78 -8 100 -10 22 -2 74 -7 115 -10
41 -3 91 -8 110 -10 19 -2 67 -7 105 -10 39 -3 88 -8 110 -10 22 -2 69 -7 105
-10 36 -3 85 -8 110 -10 25 -3 74 -7 110 -10 36 -3 81 -7 100 -10 19 -2 67 -7
105 -10 66 -5 100 -8 220 -19 28 -3 79 -8 115 -11 36 -3 83 -8 105 -10 22 -3
72 -7 110 -10 39 -3 88 -8 110 -10 22 -2 72 -7 110 -10 39 -3 84 -8 100 -10
17 -2 71 -7 120 -10 50 -4 101 -8 115 -10 14 -2 59 -6 100 -10 41 -3 91 -8
110 -10 19 -2 69 -7 110 -10 41 -4 86 -8 100 -10 14 -2 61 -7 105 -10 44 -3
96 -8 115 -10 19 -2 62 -6 95 -9 141 -12 192 -17 225 -21 19 -2 69 -7 110 -10
41 -3 91 -8 110 -10 33 -4 63 -7 215 -20 185 -17 336 -31 425 -40 25 -2 77 -7
115 -10 39 -3 86 -8 105 -10 19 -2 70 -7 113 -10 43 -4 86 -8 95 -10 9 -1 62
-6 116 -10 55 -4 107 -8 116 -10 9 -2 50 -6 91 -9 118 -10 192 -17 224 -21 17
-2 66 -7 110 -10 44 -3 98 -8 120 -10 50 -5 131 -13 215 -20 36 -3 83 -8 105
-10 85 -8 153 -15 220 -20 39 -3 86 -8 105 -10 19 -2 69 -7 110 -10 41 -4 91
-8 110 -11 19 -2 64 -6 100 -9 36 -3 83 -7 105 -10 22 -3 74 -7 115 -10 41 -3
91 -8 110 -10 19 -2 64 -7 100 -10 36 -3 108 -10 160 -15 52 -5 131 -12 175
-15 44 -3 91 -8 105 -10 14 -2 55 -6 93 -9 37 -3 97 -9 135 -12 37 -3 78 -7
92 -9 14 -2 64 -7 111 -10 47 -4 94 -8 105 -10 10 -2 35 -4 54 -4 49 -2 57
-10 64 -61 3 -25 8 -54 10 -65 4 -21 12 -75 22 -140 3 -22 8 -43 10 -46 2 -3
6 -19 8 -35 11 -57 16 -78 40 -173 27 -105 99 -318 122 -362 7 -15 11 -30 6
-32 -4 -3 -1217 -5 -2697 -5 -1479 0 -3144 -1 -3700 -2 l-1010 -1 -28 -41
c-16 -22 -78 -113 -138 -202 -61 -88 -147 -215 -193 -281 -45 -66 -167 -244
-271 -395 -103 -151 -213 -311 -244 -355 -93 -135 -214 -311 -346 -505 -70
-102 -158 -230 -195 -285 -38 -55 -67 -101 -65 -104 6 -5 12675 -4 12681 1 2
3 -12 25 -31 49 -55 67 -56 68 -121 154 -94 125 -210 293 -296 430 -152 244
-338 596 -453 860 -31 72 -63 144 -71 162 -8 17 -14 37 -14 45 0 8 -4 18 -9
23 -19 21 -182 493 -226 655 -9 36 -21 76 -26 90 -8 23 -89 355 -89 364 0 3
14 3 32 1 30 -4 127 -13 208 -20 83 -6 188 -16 220 -20 19 -3 67 -7 105 -10
39 -3 86 -7 105 -9 19 -3 69 -7 110 -11 72 -5 117 -10 205 -19 22 -3 78 -8
125 -11 86 -7 120 -12 126 -17 1 -2 24 -71 49 -153 127 -409 322 -849 532
-1199 29 -49 53 -91 53 -93 0 -2 47 -74 106 -160 l105 -157 -18 -34 c-10 -18
-25 -41 -33 -50 -8 -9 -82 -116 -163 -237 -154 -229 -459 -678 -575 -848 -37
-54 -71 -105 -77 -115 -5 -9 -12 -19 -15 -22 -3 -3 -43 -61 -90 -130 -227
-336 -532 -785 -657 -970 -54 -80 -161 -237 -238 -350 -76 -113 -166 -245
-200 -295 -61 -90 -186 -273 -367 -540 -52 -77 -147 -218 -212 -313 -76 -111
-110 -170 -96 -162 13 7 100 65 194 129 94 64 243 166 331 226 88 59 221 150
295 200 74 51 216 147 315 214 365 248 493 335 640 434 230 157 481 327 685
466 102 69 223 151 270 183 47 32 92 62 100 68 8 5 62 42 120 81 58 40 182
124 275 187 505 343 590 401 703 478 l124 84 131 -88 c384 -256 752 -447 1157
-600 116 -44 344 -121 431 -146 l57 -16 7 -87 c4 -49 8 -101 10 -118 2 -16 6
-64 10 -105 3 -41 8 -88 10 -105 2 -16 6 -68 10 -115 4 -47 8 -96 10 -110 2
-14 6 -59 10 -100 3 -41 8 -96 10 -122 3 -27 7 -69 10 -95 2 -27 7 -79 10
-118 3 -38 7 -83 9 -100 3 -16 7 -68 11 -115 4 -47 8 -92 10 -100 2 -8 6 -55
9 -105 4 -49 9 -101 11 -115 2 -14 7 -61 10 -105 3 -44 7 -96 10 -115 2 -19 7
-66 10 -105 3 -38 8 -88 10 -110 3 -22 7 -71 10 -110 4 -38 8 -83 10 -100 2
-16 7 -66 10 -110 3 -44 8 -93 10 -110 2 -16 6 -69 10 -117 3 -48 8 -95 9
-105 2 -10 7 -54 10 -98 4 -44 9 -102 12 -130 6 -55 10 -94 18 -200 3 -38 8
-95 11 -125 13 -119 14 -137 20 -205 3 -38 8 -88 10 -110 2 -22 7 -71 10 -110
3 -38 8 -88 10 -110 3 -22 7 -71 10 -110 3 -38 8 -81 10 -95 2 -14 6 -61 9
-105 6 -81 12 -138 22 -230 3 -27 7 -75 9 -105 3 -30 7 -77 10 -105 2 -27 7
-79 10 -115 3 -36 8 -85 10 -110 12 -119 15 -150 20 -215 3 -38 8 -86 10 -105
2 -19 7 -71 10 -115 4 -44 8 -93 10 -110 2 -16 7 -61 10 -100 6 -69 12 -131
20 -210 2 -22 7 -71 10 -110 3 -38 8 -88 10 -110 2 -22 7 -76 10 -120 3 -44 8
-91 10 -105 3 -23 7 -63 20 -220 2 -30 7 -75 9 -100 3 -25 8 -76 11 -115 3
-38 8 -86 10 -105 2 -19 7 -69 10 -110 3 -41 8 -93 10 -115 5 -52 15 -158 20
-221 3 -27 7 -67 9 -89 3 -22 8 -71 11 -110 3 -38 8 -88 10 -110 2 -22 7 -71
10 -110 3 -38 8 -91 10 -117 3 -27 7 -69 10 -95 2 -27 7 -79 10 -118 3 -38 8
-86 10 -105 3 -19 7 -64 9 -100 3 -36 8 -90 11 -120 6 -64 12 -129 20 -220 3
-36 7 -83 10 -105 2 -22 7 -71 10 -110 3 -38 8 -86 10 -105 2 -19 7 -66 10
-105 3 -38 8 -91 10 -117 3 -27 7 -69 10 -95 2 -27 7 -79 10 -118 4 -38 8 -86
10 -105 2 -19 6 -71 10 -115 3 -44 8 -91 10 -105 2 -14 6 -61 10 -105 4 -44 8
-96 10 -115 9 -81 15 -149 20 -215 3 -38 8 -90 11 -115 2 -25 7 -68 9 -95 8
-107 16 -190 20 -220 2 -16 7 -66 10 -110 4 -44 8 -93 10 -110 2 -16 7 -65 10
-107 4 -43 8 -90 10 -105 2 -16 6 -64 9 -108 4 -44 9 -96 11 -115 5 -39 11
-107 21 -225 4 -44 8 -91 9 -105 2 -14 6 -56 9 -95 4 -38 8 -88 11 -110 2 -22
7 -71 10 -110 3 -38 8 -86 10 -105 3 -19 7 -71 10 -115 4 -44 8 -96 10 -115 2
-19 7 -66 11 -105 3 -38 7 -86 9 -105 2 -19 6 -69 10 -110 3 -41 8 -86 10
-100 2 -14 7 -68 10 -120 4 -52 9 -104 11 -115 2 -11 6 -54 9 -95 3 -41 8 -88
10 -105 2 -16 6 -66 10 -110 3 -44 8 -96 10 -115 2 -19 7 -66 10 -105 6 -73
11 -127 20 -210 3 -27 7 -76 10 -107 3 -51 6 -79 20 -213 2 -22 7 -76 10 -120
7 -83 8 -99 19 -200 7 -70 13 -142 21 -240 3 -38 8 -86 10 -105 3 -19 7 -69
10 -110 3 -41 7 -88 10 -105 2 -16 6 -66 10 -110 3 -44 8 -93 10 -110 2 -16 6
-64 10 -105 3 -41 8 -91 10 -110 2 -19 7 -69 10 -110 4 -41 8 -90 11 -109 2
-19 6 -69 9 -110 3 -42 8 -87 10 -101 2 -14 7 -62 10 -108 3 -45 8 -97 10
-115 3 -18 7 -66 10 -107 3 -41 8 -89 10 -105 2 -17 7 -62 10 -100 7 -96 15
-185 20 -215 6 -44 19 -215 17 -227 -2 -6 2 -14 8 -18 5 -3 10 2 11 12 0 10 2
27 3 38 2 11 6 63 10 115 4 52 9 106 11 120 3 14 7 59 10 100 3 41 7 91 9 110
3 19 8 67 11 105 3 39 8 88 10 110 2 22 7 69 10 105 3 36 7 81 10 100 2 19 7
73 10 120 4 47 8 96 10 110 2 14 6 59 10 102 3 42 8 91 10 110 2 18 7 69 10
113 3 44 8 91 10 105 2 14 6 64 10 111 3 47 7 95 9 105 2 10 7 55 10 99 4 44
9 98 11 120 5 44 11 115 20 220 3 39 8 84 10 100 2 17 7 66 10 110 4 44 8 91
10 105 2 14 6 63 10 110 4 47 8 96 10 110 2 14 6 63 10 110 4 47 8 96 10 110
2 14 7 59 10 100 3 41 7 91 10 110 2 19 7 69 10 110 4 41 8 91 10 110 2 19 7
64 10 100 3 36 7 85 10 110 2 25 7 74 10 110 9 94 15 159 20 210 5 49 15 160
20 225 12 139 17 193 20 215 2 14 6 61 10 105 3 44 8 98 10 120 12 112 17 165
21 215 2 30 6 75 9 100 5 46 13 136 20 225 2 28 6 73 9 100 3 28 8 79 11 115
3 36 8 85 10 110 3 25 8 74 11 110 3 36 7 81 9 100 2 19 6 67 9 105 4 39 8 88
11 110 2 22 7 72 10 110 3 39 8 86 10 105 2 19 7 71 10 115 3 44 8 91 10 105
2 14 6 64 10 111 3 47 7 95 9 105 2 11 7 57 11 104 3 47 8 101 10 120 2 19 6
62 9 95 3 33 8 92 11 130 4 39 8 81 10 95 2 14 7 61 10 105 4 44 8 91 10 105
2 14 6 63 10 110 3 47 8 96 10 110 2 14 6 63 10 110 4 47 8 96 10 110 2 14 7
63 10 110 3 47 8 96 10 110 2 14 6 59 10 100 3 41 8 91 10 110 4 45 13 138 21
220 6 69 9 100 19 220 3 41 8 86 10 100 2 14 6 66 10 115 4 50 9 97 10 106 2
9 6 57 10 107 3 49 8 100 10 113 2 13 6 60 10 104 3 44 8 94 10 110 2 17 7 62
10 100 3 39 8 90 10 115 3 25 7 72 10 105 6 78 15 170 21 219 2 22 7 74 10
115 3 42 7 87 9 101 2 14 6 63 10 110 4 47 8 96 10 110 2 14 7 63 10 110 4 47
9 93 10 102 2 9 6 57 10 105 3 48 8 104 10 123 7 60 14 132 21 210 3 41 8 89
10 105 2 17 6 71 10 120 3 50 7 92 9 95 2 3 6 50 10 105 4 55 9 107 10 116 2
8 6 55 10 103 3 48 8 95 10 104 1 9 6 58 10 107 3 50 8 104 10 120 4 31 15
140 20 210 7 85 16 181 20 215 3 19 7 69 10 110 3 41 7 93 10 115 2 22 7 72
10 110 3 39 7 88 10 110 5 43 11 112 20 210 3 33 7 78 10 100 2 22 7 72 10
110 3 39 7 90 10 115 2 25 7 74 10 110 3 36 8 81 10 100 2 19 7 67 10 105 11
139 15 180 19 215 5 35 13 119 21 229 3 31 7 74 10 96 2 22 7 69 10 105 3 36
7 90 10 120 3 30 8 78 10 105 6 86 16 189 20 215 2 14 7 68 10 120 4 52 9 104
11 114 2 11 6 56 9 100 3 45 7 92 10 106 2 14 6 61 10 105 3 44 8 91 10 105 2
14 6 61 10 105 3 44 8 94 10 110 2 17 7 66 10 110 4 44 8 94 10 110 2 17 7 66
10 110 4 44 8 94 11 110 2 17 6 57 8 90 7 95 18 200 21 203 2 2 79 27 172 57
229 72 506 175 528 196 5 5 16 9 24 9 23 0 464 220 582 291 127 75 144 85 294
185 194 128 168 117 212 85 21 -15 130 -89 243 -166 113 -76 261 -177 330
-223 233 -159 395 -268 520 -354 69 -46 247 -167 395 -268 149 -101 324 -220
390 -265 66 -45 212 -144 325 -221 113 -76 266 -180 340 -231 74 -50 232 -157
350 -237 118 -80 253 -171 300 -203 47 -33 162 -111 255 -174 94 -64 261 -177
373 -253 111 -75 202 -135 202 -131 0 3 -43 70 -97 148 -193 284 -282 415
-388 572 -60 88 -141 207 -180 265 -222 325 -301 443 -310 458 -5 9 -12 19
-15 22 -3 3 -47 68 -99 145 -52 77 -124 183 -160 235 -35 52 -134 199 -220
325 -85 127 -159 235 -163 240 -5 6 -54 78 -110 160 -55 83 -156 232 -224 332
-69 100 -127 188 -129 195 -4 11 1197 13 6374 13 5669 0 6378 2 6371 15 -8 14
-282 409 -316 455 -8 11 -39 56 -70 100 -79 115 -155 226 -235 340 -38 55 -93
134 -121 175 -28 41 -54 77 -57 80 -3 3 -10 13 -16 22 -9 15 -166 241 -417
602 -43 61 -105 152 -139 201 -34 50 -67 96 -74 103 -10 11 -644 13 -3619 14
l-3606 0 0 21 c0 19 7 67 25 177 10 63 36 246 49 355 14 113 19 158 31 273 14
137 17 158 23 164 4 3 45 9 92 12 47 4 96 8 110 10 14 3 61 7 105 11 44 3 96
8 115 10 19 2 69 7 110 10 41 4 86 8 100 10 14 2 65 6 114 10 49 4 101 8 115
10 14 2 62 7 106 10 44 4 91 9 105 10 14 1 63 6 110 9 47 4 96 9 110 11 14 2
63 7 110 10 47 4 96 8 110 10 14 2 62 7 107 10 46 3 92 8 102 10 11 2 60 6
111 10 50 3 99 8 108 10 9 1 56 6 104 10 49 3 103 8 120 11 18 2 66 6 108 9
41 3 91 8 110 10 19 3 62 7 95 10 33 3 83 7 110 10 28 3 82 7 120 10 39 3 86
7 105 10 19 2 67 7 105 10 39 3 86 8 105 10 19 2 71 7 115 10 43 3 93 8 110
10 16 2 62 7 100 10 39 3 90 8 115 10 25 2 72 7 105 10 33 3 83 8 110 10 28 3
77 8 110 10 33 3 87 8 120 10 33 3 76 7 95 10 19 2 69 7 110 10 41 3 91 8 110
10 19 2 64 7 100 10 36 3 83 8 105 10 22 2 76 7 120 10 44 3 96 8 115 10 39 5
144 15 205 20 69 5 179 16 210 20 17 2 71 7 120 10 50 4 97 8 105 10 8 2 56 6
105 10 50 4 101 8 115 10 14 2 59 7 100 10 41 4 93 8 115 10 22 1 69 6 105 9
116 12 144 15 225 21 44 3 91 8 105 10 14 2 59 6 100 10 41 3 95 8 120 10 91
9 156 16 210 20 139 12 332 30 430 40 25 3 74 7 110 10 61 5 102 9 210 20 25
2 77 7 115 10 68 6 99 8 215 20 30 2 82 7 115 10 33 3 80 7 105 10 25 3 74 7
110 10 36 3 85 7 110 10 47 5 131 13 215 20 92 8 263 24 320 30 22 2 76 7 120
11 44 3 89 8 100 9 11 2 61 6 112 10 50 3 100 7 110 9 10 2 52 7 93 10 163 14
196 17 230 21 19 2 67 7 105 10 39 3 90 8 115 10 57 6 124 12 220 20 41 3 91
8 110 10 19 2 69 7 110 11 41 3 82 7 90 9 8 2 60 6 115 9 55 4 107 9 115 11 8
2 51 6 95 10 44 3 98 8 120 10 43 5 117 12 208 20 31 3 83 7 115 10 57 5 116
11 215 20 28 2 75 7 102 10 28 2 84 7 125 10 41 3 86 7 100 10 14 2 61 7 105
10 44 4 94 8 110 10 17 2 64 7 105 10 41 3 93 8 115 10 22 2 69 7 105 10 36 3
90 8 120 11 30 2 75 7 100 10 25 2 67 7 94 9 66 6 71 15 10 16 -27 1 -58 3
-69 4 -11 1 -51 5 -90 9 -38 3 -92 8 -120 11 -27 3 -77 7 -110 10 -33 3 -80 8
-105 10 -25 3 -72 7 -105 10 -33 3 -85 7 -115 10 -30 3 -82 8 -115 11 -33 3
-76 7 -95 9 -19 2 -72 7 -117 10 -45 3 -90 7 -100 9 -10 2 -58 7 -108 11 -49
3 -101 8 -115 10 -14 2 -59 7 -100 10 -41 3 -91 8 -110 10 -19 2 -71 6 -115
10 -44 3 -96 8 -115 10 -19 2 -62 6 -95 10 -33 3 -80 7 -105 10 -25 2 -76 7
-115 10 -38 4 -88 8 -110 10 -22 2 -71 7 -110 10 -38 3 -81 8 -95 10 -14 2
-65 6 -115 10 -49 3 -103 8 -120 10 -16 2 -61 7 -100 10 -38 3 -88 8 -110 10
-106 10 -165 16 -225 20 -36 3 -78 7 -95 10 -16 2 -68 7 -115 10 -47 4 -96 8
-109 10 -13 2 -65 7 -115 11 -50 3 -98 8 -107 9 -14 3 -78 9 -209 20 -25 2
-94 8 -155 14 -60 6 -139 14 -175 17 -36 3 -78 7 -95 9 -16 2 -68 7 -115 10
-47 3 -98 8 -115 10 -16 2 -61 6 -100 10 -38 3 -88 7 -110 10 -22 2 -71 7
-110 10 -38 3 -90 8 -115 10 -25 3 -70 7 -100 10 -30 3 -100 9 -155 15 -55 5
-131 12 -170 15 -38 3 -88 8 -110 10 -140 14 -174 17 -205 20 -19 2 -71 7
-115 10 -44 3 -91 8 -105 10 -14 2 -63 6 -110 10 -47 4 -96 8 -110 10 -14 2
-63 7 -110 10 -47 3 -96 8 -110 10 -14 2 -56 6 -95 10 -88 7 -168 14 -220 20
-22 2 -71 7 -110 10 -38 3 -88 7 -110 10 -22 2 -71 7 -110 10 -38 3 -86 8
-105 10 -19 3 -71 7 -115 10 -44 4 -98 8 -120 11 -22 2 -94 9 -160 14 -66 6
-131 13 -145 15 -14 2 -63 6 -110 10 -47 3 -101 8 -120 11 -19 2 -60 6 -90 9
-53 4 -120 10 -225 20 -50 5 -83 8 -225 20 -41 3 -88 8 -105 10 -31 5 -91 10
-210 20 -103 9 -260 23 -325 30 -19 2 -71 7 -115 10 -44 4 -91 8 -105 10 -14
2 -61 7 -105 10 -44 3 -96 8 -115 10 -19 2 -66 6 -105 10 -38 3 -88 8 -110 10
-22 3 -71 7 -110 10 -38 3 -86 7 -105 10 -19 2 -66 6 -105 10 -38 3 -88 8
-110 10 -179 18 -259 25 -435 40 -41 4 -95 9 -119 11 -24 2 -65 6 -90 8 -25 3
-77 8 -116 11 -38 3 -90 8 -115 10 -25 3 -72 7 -105 10 -33 3 -80 8 -105 10
-25 3 -74 7 -110 10 -36 3 -85 8 -110 11 -25 3 -76 7 -115 10 -38 3 -81 7 -95
9 -14 2 -61 7 -105 10 -44 4 -93 8 -110 10 -16 2 -66 6 -110 10 -44 3 -96 8
-115 10 -19 2 -64 7 -100 10 -36 3 -83 8 -105 10 -22 2 -71 7 -110 10 -38 4
-70 8 -71 8 0 1 -20 81 -43 177 -23 96 -51 207 -63 245 -96 325 -167 524 -285
797 l-85 198 74 92 c40 51 78 100 85 108 6 8 54 68 105 132 51 64 104 131 118
149 14 18 30 37 35 43 6 6 33 40 60 76 28 36 58 72 68 81 9 9 17 19 17 23 0 3
9 16 19 28 17 20 536 671 616 773 17 21 49 62 73 92 41 50 42 53 20 54 -13 0
-1122 1 -2465 1 -1344 1 -2443 3 -2443 5 0 5 322 485 330 493 3 3 32 46 66 95
77 116 293 435 403 595 68 100 214 315 293 434 7 10 24 35 39 55 14 20 81 119
150 221 68 102 128 190 132 195 4 6 49 71 99 145 158 234 575 849 598 882 8
12 -91 -50 -220 -137 -318 -216 -369 -251 -581 -394 -101 -69 -218 -148 -259
-176 -114 -78 -305 -208 -500 -340 -96 -65 -222 -151 -280 -190 -328 -223
-403 -275 -485 -329 -49 -32 -92 -62 -95 -65 -3 -3 -117 -82 -255 -174 -137
-93 -371 -251 -520 -352 -148 -101 -333 -227 -410 -279 -77 -52 -213 -145
-303 -205 -100 -68 -168 -108 -175 -104 -7 5 -66 44 -132 89 -231 155 -376
238 -660 378 -283 140 -609 268 -866 341 l-97 27 -6 82 c-4 44 -9 95 -11 111
-2 17 -7 62 -9 100 -3 39 -8 90 -11 115 -2 25 -20 218 -40 430 -42 464 -43
479 -55 605 -6 55 -12 129 -15 165 -3 36 -8 81 -10 100 -2 19 -7 67 -10 105
-14 167 -15 186 -30 330 -7 65 -14 142 -25 275 -6 69 -13 141 -15 160 -2 19
-7 69 -10 110 -3 41 -8 91 -10 110 -2 19 -7 67 -10 105 -3 39 -7 86 -10 105
-2 19 -7 69 -10 110 -4 41 -8 91 -10 110 -5 53 -16 170 -20 215 -2 22 -6 67
-9 100 -24 252 -30 326 -40 445 -4 41 -8 86 -11 100 -2 14 -7 65 -10 113 -4
48 -8 96 -9 105 -2 9 -7 58 -10 107 -4 50 -9 101 -11 115 -3 22 -7 69 -20 224
-3 28 -11 124 -20 215 -8 92 -17 189 -20 216 -28 308 -42 449 -50 535 -3 25
-7 74 -10 110 -3 36 -7 85 -10 110 -3 25 -7 74 -10 110 -3 36 -9 108 -15 160
-5 52 -12 127 -15 165 -3 39 -8 88 -10 110 -5 42 -10 106 -20 220 -4 39 -8 84
-10 100 -2 17 -7 66 -10 110 -4 44 -8 91 -10 105 -2 14 -6 63 -10 110 -3 47
-8 101 -10 120 -2 19 -7 62 -10 95 -5 57 -30 335 -40 440 -7 82 -16 178 -20
215 -2 19 -7 69 -10 110 -3 41 -8 91 -10 110 -3 19 -7 67 -10 105 -3 39 -7 84
-9 100 -2 17 -7 68 -11 115 -4 47 -8 96 -10 110 -2 14 -7 63 -10 110 -4 47 -9
92 -10 100 -2 8 -6 60 -10 115 -4 55 -8 102 -10 105 -2 3 -6 50 -9 105 -4 55
-9 107 -11 115 -2 8 -7 55 -10 103 -4 49 -8 98 -10 110 -2 12 -6 63 -10 112
-3 50 -8 101 -10 115 -2 14 -7 59 -10 100 -3 41 -7 89 -9 105 -2 17 -7 66 -10
110 -4 44 -9 96 -11 115 -2 19 -6 67 -10 105 -3 39 -8 90 -10 115 -25 268 -41
436 -50 550 -3 36 -8 81 -10 100 -3 19 -7 67 -10 105 -3 39 -10 113 -16 165
-5 52 -14 149 -19 215 -6 66 -12 138 -15 160 -2 22 -7 74 -10 115 -3 41 -8 89
-10 105 -3 17 -7 59 -10 95 -11 131 -15 177 -25 290 -6 63 -13 138 -17 165 -3
28 -5 57 -5 65 0 8 -4 51 -9 95 -4 44 -10 114 -14 155 -3 41 -8 95 -10 120 -7
62 -12 117 -30 315 -8 94 -17 190 -20 215 -2 25 -7 74 -10 110 -3 36 -7 85
-10 110 -2 25 -7 74 -10 110 -3 36 -8 81 -10 100 -2 19 -7 73 -11 120 -3 47
-7 92 -9 100 -2 8 -6 58 -10 110 -4 52 -8 102 -10 110 -2 8 -6 56 -9 105 -4
50 -9 97 -11 105 -2 8 -7 56 -10 105 -4 50 -8 104 -10 120 -2 17 -7 62 -10
100 -9 104 -15 175 -20 220 -2 22 -7 72 -10 110 -3 39 -8 84 -10 100 -2 17 -7
71 -10 120 -3 50 -8 101 -10 115 -2 14 -7 59 -10 100 -3 41 -8 91 -10 110 -2
19 -7 64 -10 100 -9 102 -16 183 -20 210 -2 14 -6 66 -10 115 -3 50 -8 101
-10 115 -2 14 -7 61 -10 105 -6 76 -14 108 -16 72z m5356 -17804 c64 -87 122
-165 128 -174 7 -8 17 -23 22 -32 6 -9 26 -40 46 -69 275 -403 543 -922 720
-1397 103 -277 214 -646 264 -877 2 -11 7 -34 11 -52 l7 -33 -64 6 c-35 3 -80
8 -99 10 -19 2 -71 7 -115 10 -44 3 -91 8 -105 10 -14 2 -64 6 -111 10 -47 3
-96 7 -110 10 -13 2 -55 6 -94 9 -38 3 -117 10 -175 16 -58 5 -132 13 -165 16
-33 3 -63 9 -66 12 -3 4 -11 27 -18 52 -48 176 -184 549 -258 710 -78 170
-180 370 -244 480 -39 69 -78 137 -86 152 -7 14 -64 103 -127 197 l-113 170
66 98 c81 119 336 496 443 653 43 63 85 124 93 135 8 10 15 23 15 27 0 25 30
-8 135 -149z m-4378 -8 c12 -3 31 -8 42 -10 90 -17 433 -128 556 -180 22 -9
58 -24 80 -33 92 -39 362 -176 457 -234 196 -117 498 -329 498 -349 0 -5 -51
-111 -114 -236 -62 -125 -182 -367 -266 -538 -84 -170 -170 -345 -192 -388
-21 -44 -36 -77 -31 -74 4 2 143 70 308 152 165 81 441 217 614 303 l313 155
24 -29 c14 -16 35 -45 48 -64 13 -19 32 -44 42 -56 11 -11 24 -27 29 -36 6 -8
37 -55 70 -104 33 -49 62 -93 64 -99 2 -5 9 -17 16 -25 57 -68 350 -650 328
-650 -3 0 -1 -6 5 -13 17 -20 136 -386 167 -510 15 -60 23 -112 19 -116 -5 -4
-79 -38 -164 -76 -85 -37 -177 -78 -205 -90 -27 -12 -99 -44 -160 -70 -60 -26
-143 -63 -183 -81 -41 -19 -75 -34 -78 -34 -2 0 -43 -18 -90 -40 -47 -22 -88
-40 -91 -40 -2 0 -44 -18 -91 -39 -113 -51 -339 -151 -527 -234 -82 -36 -221
-97 -308 -135 l-158 -69 33 -16 c18 -8 128 -56 243 -107 178 -78 710 -312 840
-370 22 -9 78 -34 125 -55 131 -57 135 -59 293 -129 81 -36 149 -66 151 -66 2
0 37 -15 78 -34 40 -18 123 -55 183 -82 61 -26 111 -48 112 -49 5 -3 -60 -243
-94 -350 -75 -235 -233 -595 -341 -780 -124 -213 -368 -565 -392 -565 -5 0
-75 33 -157 74 -415 207 -1066 526 -1068 524 -1 -2 132 -275 296 -607 165
-332 299 -608 299 -615 0 -6 -49 -47 -108 -90 -208 -155 -473 -316 -672 -409
-176 -83 -200 -93 -290 -127 -47 -17 -105 -40 -130 -50 -87 -35 -407 -127
-471 -135 -23 -3 -29 2 -45 38 -9 23 -28 67 -42 97 -99 225 -279 634 -332 755
-27 61 -102 232 -168 380 -65 149 -167 381 -227 517 -60 137 -112 245 -116
240 -3 -4 -77 -169 -164 -367 -87 -198 -168 -382 -180 -410 -13 -27 -62 -140
-110 -250 -48 -110 -95 -218 -105 -240 -50 -112 -173 -393 -180 -410 -4 -11
-20 -46 -34 -77 -57 -127 -74 -165 -96 -218 -13 -30 -24 -56 -25 -57 -6 -12
-495 136 -598 180 -18 8 -52 22 -77 32 -230 93 -494 234 -724 387 -117 78
-286 206 -292 222 -2 6 40 102 95 211 252 507 491 998 488 1001 -2 2 -183 -86
-403 -194 -219 -109 -491 -244 -603 -299 l-205 -101 -48 61 c-110 141 -325
466 -361 547 -4 8 -11 22 -16 30 -19 29 -129 256 -157 320 -79 188 -158 418
-207 608 l-34 132 33 15 c19 8 49 21 67 29 44 19 552 244 602 266 22 10 155
68 295 130 140 61 278 122 305 135 28 13 70 31 95 41 25 9 50 21 55 25 6 4 33
16 60 27 28 11 75 31 105 45 98 44 153 68 280 124 69 30 128 57 132 61 4 4
-120 63 -275 132 -155 68 -309 136 -342 151 -33 15 -190 84 -350 154 -159 70
-425 187 -590 260 -165 73 -339 149 -387 170 -86 38 -87 38 -81 69 19 106 138
495 170 556 7 14 13 30 13 35 0 29 150 346 238 505 110 197 353 554 386 566
11 4 545 -255 1089 -527 75 -38 137 -66 137 -63 0 5 -90 187 -492 1002 -61
123 -107 227 -102 231 114 97 380 278 574 390 50 29 337 171 385 191 11 4 37
15 57 24 79 35 404 147 463 161 11 2 54 13 95 24 117 32 107 39 174 -117 33
-75 77 -175 98 -220 21 -46 38 -86 38 -88 0 -3 18 -43 40 -90 22 -47 40 -88
40 -90 0 -2 29 -68 64 -146 35 -79 157 -354 270 -613 114 -258 214 -484 221
-501 8 -16 28 -60 44 -98 17 -37 35 -65 41 -61 5 3 10 10 10 15 0 7 551 1263
630 1435 10 22 50 114 90 205 173 394 177 402 197 397 10 -3 28 -8 40 -12z
m5568 -5489 c-4 -17 -20 -87 -36 -156 -17 -69 -32 -132 -34 -140 -8 -34 -87
-295 -105 -348 -174 -512 -323 -845 -585 -1307 -81 -143 -305 -488 -387 -595
-11 -14 -49 -65 -86 -114 -37 -49 -72 -91 -78 -93 -6 -2 -49 51 -94 119 -91
134 -211 311 -387 568 -63 91 -120 179 -129 195 l-15 30 84 125 c306 453 549
960 712 1486 26 82 49 152 53 156 4 3 43 9 87 13 44 3 103 8 130 11 28 2 75 7
105 9 94 9 163 15 210 20 25 3 72 7 105 10 57 4 123 11 210 20 22 2 78 7 125
11 47 3 86 7 88 8 1 2 9 3 17 3 12 0 14 -7 10 -31z"/>
<path d="M1677 14423 c-137 -204 -236 -348 -244 -358 -5 -5 -56 -80 -114 -165
-127 -186 -221 -324 -304 -445 -116 -168 -521 -760 -610 -890 -150 -221 -197
-288 -232 -337 l-35 -48 299 0 298 1 125 194 c69 107 140 219 158 248 18 28
63 99 101 157 l67 105 876 3 876 2 78 -112 c43 -62 99 -144 125 -183 27 -38
66 -96 89 -129 22 -32 40 -62 40 -67 0 -5 3 -9 8 -9 4 -1 39 -48 77 -105 l70
-104 318 -1 317 0 -82 113 c-45 61 -115 159 -157 216 -42 57 -110 150 -151
206 -41 57 -102 141 -136 187 -33 45 -134 184 -225 308 -90 124 -171 235 -179
247 -8 12 -118 163 -244 335 -127 172 -261 356 -299 408 -39 52 -84 114 -101
137 -17 23 -53 73 -81 112 l-50 70 -306 1 -306 0 -66 -97z m418 -255 c82 -145
145 -241 518 -795 l157 -233 -710 0 -710 0 248 373 c262 392 320 489 392 654
25 57 45 103 46 103 1 0 27 -46 59 -102z"/>
<path d="M7909 14488 c0 -18 -1 -545 -2 -1171 l-2 -1137 280 0 280 0 0 518 0
517 435 1 c492 0 572 -6 730 -57 85 -27 184 -78 279 -141 66 -45 266 -199 340
-263 14 -12 62 -53 106 -91 44 -38 87 -75 95 -84 8 -9 49 -45 92 -82 42 -36
91 -79 110 -96 18 -16 73 -65 123 -108 49 -44 98 -87 109 -96 18 -16 50 -18
363 -18 222 0 343 4 343 10 0 6 -3 10 -8 10 -4 0 -26 17 -48 38 -23 20 -108
96 -190 167 -81 72 -191 168 -244 215 -53 47 -129 114 -169 150 -252 222 -467
356 -701 434 -74 25 -126 47 -115 47 11 1 31 3 45 4 63 5 200 23 242 31 15 3
39 7 55 9 121 16 333 81 448 137 295 144 414 367 324 608 -20 52 -102 161
-156 207 -79 66 -155 111 -268 157 -51 22 -216 64 -280 72 -27 3 -52 7 -55 9
-3 2 -43 6 -90 10 -47 4 -101 9 -120 12 -19 3 -556 8 -1192 10 l-1158 4 -1
-33z m2231 -246 c68 -12 82 -15 168 -33 112 -23 244 -91 310 -161 42 -45 70
-120 65 -176 -11 -128 -150 -251 -343 -305 -55 -16 -65 -18 -150 -32 -25 -4
-54 -9 -65 -11 -73 -14 -318 -19 -945 -19 l-715 0 -1 370 c0 204 2 374 4 378
7 13 1594 2 1672 -11z"/>
<path d="M15255 13350 l0 -1170 267 0 268 0 2 985 3 984 125 -206 c69 -113
137 -224 151 -247 14 -23 107 -174 206 -336 99 -162 211 -346 249 -408 38 -62
76 -125 85 -140 9 -15 51 -83 93 -152 42 -69 125 -205 184 -302 l107 -178 255
3 255 2 131 210 c71 116 237 383 368 595 131 212 248 401 261 420 31 48 174
279 194 312 25 43 253 408 254 408 1 0 2 -439 2 -975 l0 -975 267 0 268 0 1
23 c0 25 0 2272 -1 2300 0 16 -23 17 -376 15 l-376 -3 -59 -95 c-32 -52 -64
-105 -71 -117 -7 -12 -29 -48 -49 -80 -133 -214 -543 -880 -563 -913 -11 -19
-24 -36 -28 -38 -4 -2 -8 -8 -8 -13 0 -4 -44 -79 -98 -166 -54 -87 -123 -198
-153 -248 -30 -49 -57 -91 -61 -93 -5 -2 -8 -8 -8 -12 0 -5 -20 -43 -45 -83
-25 -41 -45 -78 -45 -82 0 -5 -7 -17 -16 -26 -16 -17 -20 -12 -84 99 -37 64
-205 344 -372 622 -168 278 -406 672 -529 877 l-224 372 -415 1 -415 0 0
-1170z"/>
<path d="M25757 14453 c-25 -38 -78 -115 -117 -173 -40 -58 -108 -157 -151
-220 -43 -63 -122 -178 -175 -255 -52 -77 -125 -183 -160 -235 -36 -52 -102
-149 -147 -215 -114 -165 -210 -306 -367 -535 -73 -107 -161 -235 -195 -285
-34 -49 -103 -150 -153 -222 l-91 -133 297 0 297 0 60 95 c92 146 136 214 269
420 l124 190 876 3 876 2 37 -57 c21 -32 40 -60 43 -63 6 -5 311 -449 370
-537 l34 -53 319 0 c340 0 329 -2 287 40 -3 3 -18 25 -35 48 -29 44 -156 218
-172 237 -5 6 -24 32 -43 59 -19 26 -44 61 -55 76 -30 42 -183 251 -205 280
-10 14 -64 88 -120 165 -55 77 -106 147 -113 155 -7 8 -59 80 -117 160 -57 80
-108 150 -113 155 -4 6 -35 48 -69 95 -67 92 -126 173 -234 320 -39 52 -81
111 -94 130 -14 19 -28 40 -33 45 -11 13 -93 126 -192 263 l-80 111 -306 1
-306 0 -46 -67z m387 -265 c26 -46 52 -92 59 -103 82 -132 218 -342 240 -370
4 -5 93 -137 197 -292 l190 -283 -710 0 -710 0 28 43 c15 23 131 197 258 388
127 190 237 358 246 375 8 16 28 54 45 84 16 30 47 97 68 148 22 50 40 92 41
92 1 0 23 -37 48 -82z"/>
<path d="M32300 13350 l0 -1171 948 4 c521 2 974 7 1007 10 33 4 85 9 115 12
307 32 563 97 755 193 238 119 412 280 526 489 49 90 77 176 98 298 45 275 -9
526 -162 755 -62 92 -236 247 -342 306 -228 126 -425 193 -672 230 -21 3 -49
7 -63 9 -33 5 -108 14 -195 21 -38 4 -508 9 -1042 11 l-973 4 0 -1171z m1875
877 c158 -15 193 -19 230 -27 22 -5 54 -11 72 -14 17 -4 71 -20 120 -37 276
-98 464 -260 543 -470 44 -120 62 -328 40 -464 -16 -99 -21 -116 -42 -173
-121 -323 -411 -508 -878 -557 -30 -3 -71 -8 -90 -11 -60 -9 -1310 -17 -1311
-8 -1 12 -1 1733 0 1757 1 18 24 19 629 14 345 -3 654 -7 687 -10z"/>
<path d="M41254 14433 c-101 -147 -493 -721 -714 -1043 -115 -168 -232 -339
-260 -380 -54 -78 -393 -574 -410 -600 -6 -8 -44 -63 -85 -122 l-74 -108 297
0 298 0 19 33 c17 28 52 84 210 327 23 36 68 106 100 155 32 50 74 114 93 143
l34 52 873 0 874 0 153 -222 c84 -123 170 -248 191 -278 21 -30 61 -90 90
-132 l52 -78 317 0 318 0 -62 88 c-35 48 -65 89 -68 92 -6 5 -172 232 -200
273 -8 12 -44 63 -81 112 -167 227 -355 484 -384 525 -18 25 -173 239 -346
475 -173 237 -323 442 -334 458 -11 15 -27 36 -35 46 -8 11 -55 76 -105 145
l-90 125 -305 1 -306 0 -60 -87z m417 -275 c34 -62 199 -317 365 -565 l302
-453 -709 0 -709 0 58 88 c32 48 139 209 238 357 239 358 299 461 359 613 15
39 29 72 30 72 1 0 31 -51 66 -112z"/>
<path d="M21871 24 c0 -11 3 -14 6 -6 3 7 2 16 -1 19 -3 4 -6 -2 -5 -13z"/>
</g>
</svg>
